<svg width="47" height="60" fill="none" xmlns="http://www.w3.org/2000/svg"><path d="M.797 1.31h45.216v11.123H.797V1.311z" fill="#15A94E" stroke="#127D3C"/><rect x="6.857" y="46.012" width="33.094" height="8.849" rx="2.5" fill="#15A94E" stroke="#127D3C"/><mask id="a" fill="#fff"><path fill-rule="evenodd" clip-rule="evenodd" d="M45.755 1.568h-44.7V59.15h44.7V1.57zM.297.811v59.096h46.216V.81H.297z"/><path fill-rule="evenodd" clip-rule="evenodd" d="M39.694 35.662H7.116v4.546h32.578v-4.546zm-33.336-.757v6.06h34.094v-6.06H6.358zm33.336-9.092H7.116v4.546h32.578v-4.546zm-33.336-.758v6.061h34.094v-6.06H6.358zm33.336-8.334H7.116v4.546h32.578v-4.546zm-33.336-.757v6.06h34.094v-6.06H6.358z"/></mask><path fill-rule="evenodd" clip-rule="evenodd" d="M45.755 1.568h-44.7V59.15h44.7V1.57zM.297.811v59.096h46.216V.81H.297z" fill="#000"/><path fill-rule="evenodd" clip-rule="evenodd" d="M39.694 35.662H7.116v4.546h32.578v-4.546zm-33.336-.757v6.06h34.094v-6.06H6.358zm33.336-9.092H7.116v4.546h32.578v-4.546zm-33.336-.758v6.061h34.094v-6.06H6.358zm33.336-8.334H7.116v4.546h32.578v-4.546zm-33.336-.757v6.06h34.094v-6.06H6.358z" fill="#000"/><path d="M1.055 1.568v-1h-1v1h1zm44.7 0h1v-1h-1v1zM1.055 59.15h-1v1h1v-1zm44.7 0v1h1v-1h-1zM.297.811v-1h-1v1h1zm0 59.096h-1v1h1v-1zm46.216 0v1h1v-1h-1zm0-59.096h1v-1h-1v1zM7.116 35.662v-1h-1v1h1zm32.578 0h1v-1h-1v1zM7.116 40.208h-1v1h1v-1zm32.578 0v1h1v-1h-1zM6.358 34.905v-1h-1v1h1zm0 6.06h-1v1h1v-1zm34.094 0v1h1v-1h-1zm0-6.06h1v-1h-1v1zM7.116 25.813v-1h-1v1h1zm32.578 0h1v-1h-1v1zM7.116 30.359h-1v1h1v-1zm32.578 0v1h1v-1h-1zM6.358 25.055v-1h-1v1h1zm0 6.061h-1v1h1v-1zm34.094 0v1h1v-1h-1zm0-6.06h1v-1h-1v1zM7.116 16.72v-1h-1v1h1zm32.578 0h1v-1h-1v1zM7.116 21.267h-1v1h1v-1zm32.578 0v1h1v-1h-1zM6.358 15.964v-1h-1v1h1zm0 6.06h-1v1h1v-1zm34.094 0v1h1v-1h-1zm0-6.06h1v-1h-1v1zM1.055 2.568h44.7v-2h-44.7v2zm1 56.581V1.57h-2v57.58h2zm43.7-1h-44.7v2h44.7v-2zm-1-56.58v57.58h2V1.57h-2zM.297 1.81h46.216v-2H.297v2zm1 58.096V.81h-2v59.096h2zm45.216-1H.297v2h46.216v-2zm-1-58.096v59.096h2V.81h-2zM7.116 36.662h32.578v-2H7.116v2zm1 3.546v-4.546h-2v4.546h2zm31.578-1H7.116v2h32.578v-2zm-1-3.546v4.546h2v-4.546h-2zm-32.336.243h34.094v-2H6.358v2zm1 5.06v-6.06h-2v6.06h2zm33.094-1H6.358v2h34.094v-2zm-1-5.06v6.06h2v-6.06h-2zM7.116 26.813h32.578v-2H7.116v2zm1 3.546v-4.546h-2v4.546h2zm31.578-1H7.116v2h32.578v-2zm-1-3.546v4.546h2v-4.546h-2zm-32.336.242h34.094v-2H6.358v2zm1 5.061v-6.06h-2v6.06h2zm33.094-1H6.358v2h34.094v-2zm-1-5.06v6.06h2v-6.06h-2zM7.116 17.72h32.578v-2H7.116v2zm1 3.546V16.72h-2v4.546h2zm31.578-1H7.116v2h32.578v-2zm-1-3.546v4.546h2V16.72h-2zm-32.336.243h34.094v-2H6.358v2zm1 5.06v-6.06h-2v6.06h2zm33.094-1H6.358v2h34.094v-2zm-1-5.06v6.06h2v-6.06h-2z" fill="#127D3C" mask="url(#a)"/></svg>