<svg width="113" height="1014" fill="none" xmlns="http://www.w3.org/2000/svg"><g opacity=".5" stroke="#15A94E" stroke-width="4"><path opacity=".8" d="M46.779 7.668c28.833 37.334 48.3 27.3-8.5 206.5-71 224 36 262.5 60.5 239.5 24.499-23 10.499-95.5-52-72.5-62.5 23-25.5 158.5 0 228.5s42.54 96.847 14.5 175c-11.39 31.742-49.545 53.38-57.111 96-14.024 79 87.61 95.5 57.11 130.502" stroke-linecap="round" stroke-dasharray="10 10"/><path d="M46.779 2.168c28.833 37.334 48.3 32.8-8.5 212-71 224 36 262.5 60.5 239.5 24.499-23 10.499-95.5-52-72.5"/></g></svg>