<svg width="60" height="60" fill="none" xmlns="http://www.w3.org/2000/svg"><path d="M26.25 3.75c-1.988 0-2.71 1.444-3.178 2.39-.469.948-.75 1.36-1.51 1.36h-5.625a2.812 2.812 0 00-2.812 2.813v46.874A2.812 2.812 0 0015.938 60h28.124a2.812 2.812 0 002.813-2.813V45A.938.938 0 0045 45v12.188a.938.938 0 01-.938.937H15.939a.938.938 0 01-.938-.938V10.313a.938.938 0 01.938-.938h9.843v1.406h-7.968a1.407 1.407 0 00-1.407 1.406v42.188a1.407 1.407 0 001.407 1.406h24.375a1.406 1.406 0 001.406-1.406V45a.47.47 0 00-.938 0v1.875a2.813 2.813 0 01-.797 2.278 3.019 3.019 0 01-2.465.319.74.74 0 00-.769.31.77.77 0 000 .852 2.035 2.035 0 01.084 2.222 4.144 4.144 0 01-3.084 1.988H17.812a.47.47 0 01-.468-.469V12.187a.469.469 0 01.468-.468h8.054c.046.116.106.226.178.328l.047.056c.069.09.151.169.243.235.107.067.22.123.338.168h.075c.127.041.26.063.394.066h5.625a1.39 1.39 0 00.393-.066h.075c.118-.045.231-.101.338-.168.092-.066.174-.145.244-.235l.046-.056a1.63 1.63 0 00.179-.328h8.147a.469.469 0 01.468.469v20.624a.47.47 0 00.938 0V12.189a1.407 1.407 0 00-1.407-1.407H34.22V9.375h9.843a.937.937 0 01.938.938v15a.938.938 0 001.875 0v-15A2.812 2.812 0 0044.062 7.5h-5.624c-.76 0-1.004-.356-1.51-1.36-.506-1.002-1.19-2.39-3.178-2.39h-1.106c.109-.3.166-.618.169-.938a2.812 2.812 0 10-5.626 0c.003.32.06.637.17.938H26.25zm13.266 49.556a2.944 2.944 0 00.075-2.812 3.62 3.62 0 002.859-.59l.206-.217v4.688a.469.469 0 01-.468.469h-4.079a4.885 4.885 0 001.407-1.538zM33.28 11.25a.469.469 0 01-.468.469h-5.626a.47.47 0 01-.468-.469V9.375h6.562v1.875zm1.978-4.266c.075.16.17.338.263.516H24.478c.094-.178.188-.356.263-.516.506-1.003.75-1.359 1.509-1.359h7.5c.76 0 1.003.356 1.51 1.36zm-6.197-4.171a.938.938 0 111.876 0 .938.938 0 01-1.875 0z" fill="#15A94E"/><path d="M22.5 37.969H30a2.344 2.344 0 002.344-2.344v-18.75A2.344 2.344 0 0030 14.531h-7.5a2.344 2.344 0 00-2.344 2.344v1.078a.938.938 0 00-.468.797v1.875a.938.938 0 00.468.797v14.203a2.345 2.345 0 002.344 2.344zm7.5-.938h-7.5a1.406 1.406 0 01-1.406-1.406V18.094h.937c.31 0 .45.131.713.412a1.8 1.8 0 001.397.713h4.218a1.8 1.8 0 001.397-.713c.263-.281.403-.412.713-.412h.937v17.531A1.406 1.406 0 0130 37.031zm-8.906-20.156a1.406 1.406 0 011.406-1.406H30a1.406 1.406 0 011.406 1.406v.281h-.937a1.8 1.8 0 00-1.397.713c-.263.281-.403.412-.713.412h-4.218c-.31 0-.45-.131-.713-.412a1.8 1.8 0 00-1.397-.713h-.937v-.281zm15.937 30.938a.469.469 0 00-.468-.47h-15a.469.469 0 100 .938h15a.469.469 0 00.468-.468zm1.05-8.232a.938.938 0 00-1.312.15l-3.094 3.863-1.134-1.135a.943.943 0 00-1.536 1.026.941.941 0 00.204.306l1.875 1.875a.937.937 0 00.666.271h.056a.937.937 0 00.675-.356l3.75-4.687a.938.938 0 00-.15-1.313zm-2.456-24.112H37.5a.47.47 0 000-.938h-1.875a.47.47 0 000 .938zm0 3.75h4.688a.47.47 0 000-.938h-4.688a.47.47 0 000 .938zm0 3.75H37.5a.47.47 0 000-.938h-1.875a.47.47 0 000 .938zm5.156 3.281a.469.469 0 00-.468-.469h-4.688a.47.47 0 000 .938h4.688a.47.47 0 00.468-.469zM38.906 30a.469.469 0 00-.468-.469h-2.813a.47.47 0 000 .938h2.813a.47.47 0 00.468-.469zM21.563 51.094a.469.469 0 100 .937h10.312a.469.469 0 100-.937H21.562zm20.353-13.922a2.812 2.812 0 00-.3 3.61l-.694.693a.466.466 0 000 .666.448.448 0 00.656 0l.703-.694c.474.338 1.04.522 1.622.525a2.813 2.813 0 002.035-.825l1.321-1.322 10.566-10.613a2.812 2.812 0 000-3.974 2.812 2.812 0 00-3.75-.188 2.999 2.999 0 00-2.466.15c-1.726.9-3.279 2.1-4.584 3.544a.478.478 0 000 .665.488.488 0 00.666 0c3.112-3.112 4.687-3.703 5.625-3.618L43.237 35.84l-1.321 1.33zm2.653 2.653a.943.943 0 01-1.536-.305.941.941 0 01.204-1.026l.666-.666 1.322 1.331-.656.666zm10.603-13.266a.937.937 0 111.322 1.332l-9.938 9.937-1.331-1.322 9.947-9.947z" fill="#15A94E"/></svg>