<svg width="50" height="53" fill="none" xmlns="http://www.w3.org/2000/svg"><mask id="a" maskUnits="userSpaceOnUse" x="0" y="-.014" width="50" height="53" fill="#000"><path fill="#fff" d="M0-.014h50v53H0z"/><path d="M44.506 52H10.6c-2.711 0-5.423-.048-8.134 0C1.342 52.024 1 51.588 1 50.498c-.049-9.4 6.034-18.438 14.877-22.023 1.27-.51 1.27-.51.342-1.575-1.637-1.914-2.712-4.119-3.152-6.59-.146-.824-.512-1.115-1.294-1.042-1.124.121-1.54-.388-1.49-1.478.049-1.139 0-2.253 0-3.392 0-.46 0-1.017.537-1.114.977-.17 1.124-.897 1.368-1.624 1.124-3.246 2.907-6.032 5.863-7.97.195-.146.488-.267.464-.534-.196-1.332.806-1.332 1.66-1.575 3.103-.896 6.181-.726 9.259.146.586.17 1.075.388 1.026 1.114-.025.412.22.679.537.897 2.98 2.06 4.617 5.015 5.716 8.359.122.387.147.872.635.969 1.148.242 1.148 1.066 1.124 1.938-.024 1.017-.024 2.01-.024 3.028 0 .848-.391 1.333-1.27 1.212-1.124-.146-1.466.436-1.637 1.405-.415 2.277-1.368 4.313-2.907 6.033-.757.824-.513 1.09.415 1.43 7.524 2.834 12.434 8.164 14.877 15.723.708 2.205 1.001 4.482 1.05 6.784.024.92-.367 1.333-1.295 1.308L44.506 52zM24.45 50.861c4.592 0 9.184-.048 13.752.025 1.173.024 1.442-.412 1.417-1.478-.049-4.676-.122-9.377.025-14.028.073-1.866-.636-2.956-2.15-3.756a2.256 2.256 0 01-.415-.242c-.782-.557-1.026-.29-1.026.581.024 2.472 0 4.919 0 7.39 0 1.55-.147 1.696-1.661 1.696H14.63c-1.441 0-1.612-.17-1.612-1.623 0-2.35 0-4.676-.025-7.026 0-.315.245-.945-.513-.776-1.368.315-3.029 2.399-3.029 3.804 0 4.725.025 9.449-.024 14.174 0 .92.268 1.284 1.246 1.26 4.592-.025 9.184 0 13.777 0zm-.074-32.829s0-.024 0 0c3.738 0 7.5 0 11.237-.024.537 0 1.344.267 1.466-.485.146-.993.586-2.301-.269-2.955-.782-.606-1.002-1.309-1.246-2.084-.83-2.762-2.15-5.233-4.397-7.123-.952-.8-1.099-.751-1.368.436-.537 2.326-1.05 4.652-1.588 6.978-.097.387-.195.775-.341 1.163-.123.29-.367.436-.684.339a.529.529 0 01-.367-.582c.049-.363.098-.726.196-1.066.635-2.786 1.245-5.596 1.954-8.382.244-1.018-.05-1.406-1.002-1.6a17.037 17.037 0 00-6.913.025c-.928.194-1.221.557-.977 1.502.635 2.495 1.173 5.04 1.735 7.559.146.63.268 1.26.366 1.89.049.29-.073.581-.415.654-.342.073-.538-.121-.66-.412-.122-.29-.195-.606-.269-.92-.513-2.254-1.001-4.483-1.538-6.736-.367-1.623-.587-1.672-1.881-.557-2.223 1.938-3.494 4.41-4.324 7.171-.147.46-.122 1.139-.537 1.309-1.246.508-.953 1.502-1.002 2.447-.073 1.187.44 1.526 1.588 1.502 3.762-.097 7.499-.049 11.236-.049zm.171 21.757c2.98 0 5.936-.024 8.916 0 .904 0 1.344-.218 1.344-1.211-.049-2.472 0-4.919 0-7.39 0-.363 0-.727-.244-1.042-.758-.945-3.616-1.43-4.666-.775-3.42 2.084-6.913 2.277-10.406.29-1.1-.63-2.003-.678-3.053-.12a9.17 9.17 0 01-1.124.484c-.758.267-1.05.776-1.026 1.575.049 2.302.049 4.603 0 6.905-.025.993.342 1.333 1.343 1.333 2.98-.073 5.96-.049 8.916-.049zm-.268-20.497h-8.794c-1.441 0-1.466.024-1.148 1.454a12.787 12.787 0 002.223 4.821c2.491 3.344 6.424 4.773 10.21 3.756 3.738-1.018 7.206-5.088 7.67-8.94.123-.945-.39-1.09-1.148-1.067-2.98 0-5.984-.024-9.013-.024zm16.684 15.215c-.122.146-.196.218-.196.267-.024 5.088-.024 10.151-.024 15.24 0 .605.293.702.83.75 1.661.17 3.323.025 4.983.025.953 0 1.197-.218 1.173-1.14-.122-3.827-1.197-7.389-3.151-10.66-1.026-1.623-2.15-3.173-3.615-4.482zM8.23 35.55c-.562.097-.757.533-1.026.848-3.176 3.95-4.788 8.456-4.983 13.495-.025.848.488.945 1.074.945 1.368.024 2.76-.097 4.129-.048.708.024.928-.194.928-.873-.024-4.627 0-9.255-.024-13.906 0-.146-.05-.291-.098-.46z"/></mask><path d="M44.506 52H10.6c-2.711 0-5.423-.048-8.134 0C1.342 52.024 1 51.588 1 50.498c-.049-9.4 6.034-18.438 14.877-22.023 1.27-.51 1.27-.51.342-1.575-1.637-1.914-2.712-4.119-3.152-6.59-.146-.824-.512-1.115-1.294-1.042-1.124.121-1.54-.388-1.49-1.478.049-1.139 0-2.253 0-3.392 0-.46 0-1.017.537-1.114.977-.17 1.124-.897 1.368-1.624 1.124-3.246 2.907-6.032 5.863-7.97.195-.146.488-.267.464-.534-.196-1.332.806-1.332 1.66-1.575 3.103-.896 6.181-.726 9.259.146.586.17 1.075.388 1.026 1.114-.025.412.22.679.537.897 2.98 2.06 4.617 5.015 5.716 8.359.122.387.147.872.635.969 1.148.242 1.148 1.066 1.124 1.938-.024 1.017-.024 2.01-.024 3.028 0 .848-.391 1.333-1.27 1.212-1.124-.146-1.466.436-1.637 1.405-.415 2.277-1.368 4.313-2.907 6.033-.757.824-.513 1.09.415 1.43 7.524 2.834 12.434 8.164 14.877 15.723.708 2.205 1.001 4.482 1.05 6.784.024.92-.367 1.333-1.295 1.308L44.506 52zM24.45 50.861c4.592 0 9.184-.048 13.752.025 1.173.024 1.442-.412 1.417-1.478-.049-4.676-.122-9.377.025-14.028.073-1.866-.636-2.956-2.15-3.756a2.256 2.256 0 01-.415-.242c-.782-.557-1.026-.29-1.026.581.024 2.472 0 4.919 0 7.39 0 1.55-.147 1.696-1.661 1.696H14.63c-1.441 0-1.612-.17-1.612-1.623 0-2.35 0-4.676-.025-7.026 0-.315.245-.945-.513-.776-1.368.315-3.029 2.399-3.029 3.804 0 4.725.025 9.449-.024 14.174 0 .92.268 1.284 1.246 1.26 4.592-.025 9.184 0 13.777 0zm-.074-32.829s0-.024 0 0c3.738 0 7.5 0 11.237-.024.537 0 1.344.267 1.466-.485.146-.993.586-2.301-.269-2.955-.782-.606-1.002-1.309-1.246-2.084-.83-2.762-2.15-5.233-4.397-7.123-.952-.8-1.099-.751-1.368.436-.537 2.326-1.05 4.652-1.588 6.978-.097.387-.195.775-.341 1.163-.123.29-.367.436-.684.339a.529.529 0 01-.367-.582c.049-.363.098-.726.196-1.066.635-2.786 1.245-5.596 1.954-8.382.244-1.018-.05-1.406-1.002-1.6a17.037 17.037 0 00-6.913.025c-.928.194-1.221.557-.977 1.502.635 2.495 1.173 5.04 1.735 7.559.146.63.268 1.26.366 1.89.049.29-.073.581-.415.654-.342.073-.538-.121-.66-.412-.122-.29-.195-.606-.269-.92-.513-2.254-1.001-4.483-1.538-6.736-.367-1.623-.587-1.672-1.881-.557-2.223 1.938-3.494 4.41-4.324 7.171-.147.46-.122 1.139-.537 1.309-1.246.508-.953 1.502-1.002 2.447-.073 1.187.44 1.526 1.588 1.502 3.762-.097 7.499-.049 11.236-.049zm.171 21.757c2.98 0 5.936-.024 8.916 0 .904 0 1.344-.218 1.344-1.211-.049-2.472 0-4.919 0-7.39 0-.363 0-.727-.244-1.042-.758-.945-3.616-1.43-4.666-.775-3.42 2.084-6.913 2.277-10.406.29-1.1-.63-2.003-.678-3.053-.12a9.17 9.17 0 01-1.124.484c-.758.267-1.05.776-1.026 1.575.049 2.302.049 4.603 0 6.905-.025.993.342 1.333 1.343 1.333 2.98-.073 5.96-.049 8.916-.049zm-.268-20.497h-8.794c-1.441 0-1.466.024-1.148 1.454a12.787 12.787 0 002.223 4.821c2.491 3.344 6.424 4.773 10.21 3.756 3.738-1.018 7.206-5.088 7.67-8.94.123-.945-.39-1.09-1.148-1.067-2.98 0-5.984-.024-9.013-.024zm16.684 15.215c-.122.146-.196.218-.196.267-.024 5.088-.024 10.151-.024 15.24 0 .605.293.702.83.75 1.661.17 3.323.025 4.983.025.953 0 1.197-.218 1.173-1.14-.122-3.827-1.197-7.389-3.151-10.66-1.026-1.623-2.15-3.173-3.615-4.482zM8.23 35.55c-.562.097-.757.533-1.026.848-3.176 3.95-4.788 8.456-4.983 13.495-.025.848.488.945 1.074.945 1.368.024 2.76-.097 4.129-.048.708.024.928-.194.928-.873-.024-4.627 0-9.255-.024-13.906 0-.146-.05-.291-.098-.46z" fill="#15A94E"/><path d="M44.506 52H10.6c-2.711 0-5.423-.048-8.134 0C1.342 52.024 1 51.588 1 50.498c-.049-9.4 6.034-18.438 14.877-22.023 1.27-.51 1.27-.51.342-1.575-1.637-1.914-2.712-4.119-3.152-6.59-.146-.824-.512-1.115-1.294-1.042-1.124.121-1.54-.388-1.49-1.478.049-1.139 0-2.253 0-3.392 0-.46 0-1.017.537-1.114.977-.17 1.124-.897 1.368-1.624 1.124-3.246 2.907-6.032 5.863-7.97.195-.146.488-.267.464-.534-.196-1.332.806-1.332 1.66-1.575 3.103-.896 6.181-.726 9.259.146.586.17 1.075.388 1.026 1.114-.025.412.22.679.537.897 2.98 2.06 4.617 5.015 5.716 8.359.122.387.147.872.635.969 1.148.242 1.148 1.066 1.124 1.938-.024 1.017-.024 2.01-.024 3.028 0 .848-.391 1.333-1.27 1.212-1.124-.146-1.466.436-1.637 1.405-.415 2.277-1.368 4.313-2.907 6.033-.757.824-.513 1.09.415 1.43 7.524 2.834 12.434 8.164 14.877 15.723.708 2.205 1.001 4.482 1.05 6.784.024.92-.367 1.333-1.295 1.308L44.506 52zM24.45 50.861c4.592 0 9.184-.048 13.752.025 1.173.024 1.442-.412 1.417-1.478-.049-4.676-.122-9.377.025-14.028.073-1.866-.636-2.956-2.15-3.756a2.256 2.256 0 01-.415-.242c-.782-.557-1.026-.29-1.026.581.024 2.472 0 4.919 0 7.39 0 1.55-.147 1.696-1.661 1.696H14.63c-1.441 0-1.612-.17-1.612-1.623 0-2.35 0-4.676-.025-7.026 0-.315.245-.945-.513-.776-1.368.315-3.029 2.399-3.029 3.804 0 4.725.025 9.449-.024 14.174 0 .92.268 1.284 1.246 1.26 4.592-.025 9.184 0 13.777 0zm-.074-32.829s0-.024 0 0c3.738 0 7.5 0 11.237-.024.537 0 1.344.267 1.466-.485.146-.993.586-2.301-.269-2.955-.782-.606-1.002-1.309-1.246-2.084-.83-2.762-2.15-5.233-4.397-7.123-.952-.8-1.099-.751-1.368.436-.537 2.326-1.05 4.652-1.588 6.978-.097.387-.195.775-.341 1.163-.123.29-.367.436-.684.339a.529.529 0 01-.367-.582c.049-.363.098-.726.196-1.066.635-2.786 1.245-5.596 1.954-8.382.244-1.018-.05-1.406-1.002-1.6a17.037 17.037 0 00-6.913.025c-.928.194-1.221.557-.977 1.502.635 2.495 1.173 5.04 1.735 7.559.146.63.268 1.26.366 1.89.049.29-.073.581-.415.654-.342.073-.538-.121-.66-.412-.122-.29-.195-.606-.269-.92-.513-2.254-1.001-4.483-1.538-6.736-.367-1.623-.587-1.672-1.881-.557-2.223 1.938-3.494 4.41-4.324 7.171-.147.46-.122 1.139-.537 1.309-1.246.508-.953 1.502-1.002 2.447-.073 1.187.44 1.526 1.588 1.502 3.762-.097 7.499-.049 11.236-.049zm.171 21.757c2.98 0 5.936-.024 8.916 0 .904 0 1.344-.218 1.344-1.211-.049-2.472 0-4.919 0-7.39 0-.363 0-.727-.244-1.042-.758-.945-3.616-1.43-4.666-.775-3.42 2.084-6.913 2.277-10.406.29-1.1-.63-2.003-.678-3.053-.12a9.17 9.17 0 01-1.124.484c-.758.267-1.05.776-1.026 1.575.049 2.302.049 4.603 0 6.905-.025.993.342 1.333 1.343 1.333 2.98-.073 5.96-.049 8.916-.049zm-.268-20.497h-8.794c-1.441 0-1.466.024-1.148 1.454a12.787 12.787 0 002.223 4.821c2.491 3.344 6.424 4.773 10.21 3.756 3.738-1.018 7.206-5.088 7.67-8.94.123-.945-.39-1.09-1.148-1.067-2.98 0-5.984-.024-9.013-.024zm16.684 15.215c-.122.146-.196.218-.196.267-.024 5.088-.024 10.151-.024 15.24 0 .605.293.702.83.75 1.661.17 3.323.025 4.983.025.953 0 1.197-.218 1.173-1.14-.122-3.827-1.197-7.389-3.151-10.66-1.026-1.623-2.15-3.173-3.615-4.482zM8.23 35.55c-.562.097-.757.533-1.026.848-3.176 3.95-4.788 8.456-4.983 13.495-.025.848.488.945 1.074.945 1.368.024 2.76-.097 4.129-.048.708.024.928-.194.928-.873-.024-4.627 0-9.255-.024-13.906 0-.146-.05-.291-.098-.46z" stroke="#15A94E" mask="url(#a)"/></svg>