<svg width="50" height="49" fill="none" xmlns="http://www.w3.org/2000/svg"><path d="M47.67 34.854c-1.98-3.54-4.844-6.285-7.92-8.832a4.466 4.466 0 00-.655-.475c-.196-.107-.382-.165-.575-.154-.193.012-.373.092-.56.221a4.864 4.864 0 00-.621.548c-.405.404-.813.809-1.223 1.215a187.23 187.23 0 00-3.067 3.087c-.258.258-.43.348-.577.348-.146 0-.319-.09-.577-.348-3.35-3.356-6.706-6.7-10.06-10.04-2.236-2.227-4.47-4.452-6.702-6.68L9.964 8.58h0l-.004-.004a3.335 3.335 0 00-.104-.09l-.006-.005a4.424 4.424 0 01-.096-.083.82.82 0 01-.152-.169c-.03-.05-.04-.092-.033-.133.007-.043.037-.109.13-.198.5-.46.498-1.058.497-1.586V2.497c0-.055 0-.112.002-.17.004-.225.009-.475-.044-.697a.99.99 0 00-.198-.413 1.042 1.042 0 00-.437-.3h0L9.516.916a.999.999 0 00-.903.087c-.203.122-.381.303-.54.464l-.081.082c-.786.784-1.573 1.57-2.362 2.355C4.05 5.477 2.468 7.054.894 8.638l-.044.044V9.74l.044.044c.29.289.662.453 1.091.474h.001l3.914.168h.007c.09 0 .19.009.3.018l.007.001c.105.01.22.02.33.02.221.003.475-.028.652-.217h0c.225-.243.41-.36.56-.405a.524.524 0 01.4.037c.133.065.263.176.402.316.067.067.133.138.202.212l.006.007c.07.076.144.154.219.23l.43.43.431.43h0l5.139 5.105a7087.417 7087.417 0 0015.443 15.32c.279.278.371.458.368.606-.003.148-.104.32-.383.58-1.2 1.117-2.356 2.29-3.505 3.456l-.488.495a4.23 4.23 0 00-.498.569 1.05 1.05 0 00-.206.528 1.02 1.02 0 00.14.547c.1.184.25.384.443.615h0c3.302 3.916 6.96 7.386 12.117 8.82l.02.005h.02c1.18 0 2.378 0 3.556.02h.023l.022-.007c.321-.094.66-.207.98-.32 3.764-1.31 6.304-4.826 6.094-8.51h0c-.096-1.622-.687-3.103-1.461-4.48zm0 0s0 0 0 0l-.13.073.13-.073s0 0 0 0zm-15.619-.581l.087.122c.913-.646 1.561-1.313 2.225-2.202v-.002c.536-.737 1.175-1.398 1.847-2.047.229-.22.463-.44.697-.661.451-.424.906-.852 1.338-1.296l.001-.002c.17-.177.289-.235.388-.238.101-.003.228.05.417.211 2.6 2.242 5.056 4.604 6.766 7.61.361.639.667 1.295.884 1.89.217.596.342 1.12.351 1.498 0 3.004-1.779 5.4-4.177 6.387h-.002c-2.195.932-4.321.59-6.394-.39h0c-3.194-1.502-5.706-3.878-8.004-6.527-.156-.182-.185-.299-.173-.386.014-.097.084-.207.24-.363.378-.372.745-.762 1.11-1.15.215-.229.429-.456.643-.678.584-.604 1.18-1.176 1.844-1.655l-.088-.121zm0 0c-.925.667-1.718 1.51-2.512 2.355-.363.386-.726.772-1.102 1.142l9.7-9.688c-.43.442-.88.866-1.329 1.288-.92.866-1.836 1.728-2.566 2.733-.655.88-1.292 1.534-2.19 2.17zM6.583 8.026c-.37.286-.728.313-1.096.27a6.216 6.216 0 01-.401-.068l-.168-.03a4.328 4.328 0 00-.235-.037c.58-.574 1.15-1.143 1.714-1.705.58-.579 1.15-1.15 1.718-1.71a2.54 2.54 0 01-.165 1.71c-.269.576-.75 1.092-1.367 1.57z" fill="#15A94E" stroke="#15A94E" stroke-width=".3"/><path d="M40.102 40.49h0l.003-.001a.636.636 0 00.316-.27.776.776 0 00.095-.392c0-.277-.139-.498-.28-.66h0l-.007-.007a550.62 550.62 0 00-4.683-4.677c-.159-.158-.348-.294-.56-.335-.223-.043-.445.024-.644.223a.866.866 0 00-.224.346.612.612 0 00-.007.351c.058.215.22.403.38.562.6.618 1.218 1.235 1.835 1.852h0c.46.46.924.918 1.387 1.376.464.458.927.916 1.386 1.374h0l.004.004c.13.12.274.224.442.278a.81.81 0 00.557-.024zm4.31 3.19v-.025l-.008-.022-.002-.012v-.019a.95.95 0 00-.003-.025v-.002a.268.268 0 00-.058-.158c-.681-.944-1.478-1.778-2.448-2.442h0l-.002-.001a.524.524 0 00-.483-.054.853.853 0 00-.375.294h0l-.005.007c-.177.265-.212.601.009.87h0v.002c.66.79 1.38 1.528 2.195 2.172h0l.002.002c.499.379 1.178-.004 1.178-.587z" fill="#15A94E" stroke="#15A94E" stroke-width=".3"/></svg>