<svg width="52" height="58" fill="none" xmlns="http://www.w3.org/2000/svg"><g clip-path="url(#clip0)" fill="#15A94E"><path d="M25.548.023c5.987-.069 11.44.251 16.777 1.804 2.018.594 3.921 1.416 5.638 2.603 3.156 2.192 4.2 5.32 4.014 8.974-.232 4.567-.673 9.088-1.786 13.564-2.53 10.161-7.263 19.044-15.13 26.191-1.484 1.347-3.155 2.444-4.849 3.517-3.04 1.963-5.917 1.621-8.864-.274-5.662-3.654-9.954-8.518-13.365-14.18-4.595-7.65-6.961-15.985-7.704-24.776-.186-2.215-.464-4.453-.14-6.714.418-2.922 1.95-5.069 4.41-6.644C8.099 1.85 12.113 1.05 16.197.502a58.238 58.238 0 019.351-.479zm.325 1.872c-2.924.16-5.963.183-9.003.503-3.156.342-6.265.936-9.212 2.215-3.666 1.598-5.801 4.133-5.546 8.311.14 2.193.209 4.408.464 6.6 1.044 9.362 4.038 18.016 9.676 25.712 2.924 3.973 6.358 7.42 10.744 9.91 2.18 1.233 4.13 1.073 6.218-.114 4.943-2.832 8.679-6.85 11.742-11.486 6.427-9.682 8.956-20.437 8.91-31.877 0-2.42-1.137-4.293-3.11-5.709-1.925-1.37-4.083-2.1-6.357-2.672-4.734-1.141-9.584-1.164-14.526-1.393z"/><path d="M48.078 15.938c-.418 10.184-3.783 21.122-11.626 30.507-2.483 2.969-5.29 5.526-8.724 7.422-1.253.708-2.367.639-3.597-.046-3.829-2.17-6.845-5.183-9.537-8.563-6.358-8.015-9.513-17.217-10.488-27.242-.186-1.94-.14-3.882-.232-5.8-.093-1.85.766-3.22 2.135-4.338 2.39-1.987 5.29-2.832 8.284-3.289 8.585-1.347 17.147-1.415 25.663.503.835.183 1.624.457 2.413.776 4.572 1.736 5.755 3.494 5.709 10.07zm-21.72-10.39c-3.642.069-7.123.206-10.557.731-2.761.434-5.476 1.05-7.866 2.558-1.416.867-2.181 2.078-2.065 3.79.07 1.096.116 2.192.185 3.311.557 9.385 3.086 18.131 8.47 25.963 2.598 3.79 5.685 7.102 9.583 9.636 1.23.8 2.297.937 3.62.115 3.155-1.964 5.777-4.476 8.028-7.353 7.472-9.477 10.28-20.437 10.419-32.243.023-1.347-.696-2.306-1.764-3.037-1.253-.867-2.645-1.415-4.084-1.85-4.64-1.324-9.397-1.438-13.968-1.62z"/><path d="M21.139 22.926c.858-.023 1.415.525 1.972 1.073 1.973 1.941 1.973 1.941 3.945 0 1.392-1.37 2.784-2.763 4.177-4.11 1.113-1.073 2.088-1.119 3.248-.091a30.64 30.64 0 012.135 2.1c.998 1.096 1.067 2.124.046 3.152a684.011 684.011 0 01-10.093 9.933c-.882.845-2.135.822-3.04-.023a247.459 247.459 0 01-6.08-5.96c-1.09-1.119-.997-2.215.07-3.311.673-.685 1.369-1.347 2.042-2.01.464-.502.974-.707 1.578-.753zm13.992.57c-.163-.524-.65-.798-1.021-1.186-1.346-1.302-1.021-1.462-2.53.022l-4.176 4.11c-2.413 2.375-2.158 2.467-4.64.023-1.88-1.85-1.323-1.804-3.296.046-.603.548-.557.96 0 1.507a252.213 252.213 0 014.989 4.932c.464.48.812.571 1.323.046 2.947-2.946 5.94-5.868 8.933-8.814.186-.183.395-.365.418-.685z"/></g><defs><clipPath id="clip0"><path fill="#fff" d="M0 0h52v58H0z"/></clipPath></defs></svg>