<svg width="36" height="36" fill="none" xmlns="http://www.w3.org/2000/svg"><path d="M33.735 33.225L2.775 2.265a.36.36 0 00-.615.255v30.96c0 .2.161.36.36.36h30.96a.36.36 0 00.255-.615zM2.88 33.12V3.389L5.471 5.98l-.874.875.51.51.874-.875 1.315 1.315-.875.874.51.509.874-.874L9.12 9.629l-1.787 1.787.51.509 1.786-1.787 1.315 1.315-.874.875.51.51.874-.876 1.315 1.316-.875.874.509.51.875-.876 1.315 1.316-1.787 1.786.51.51 1.786-1.787 1.315 1.315-.874.875.509.509.874-.875 1.316 1.316-.875.874.509.509.875-.874 1.315 1.315-1.787 1.786.51.51 1.786-1.787 1.315 1.315-.875.874.51.51.874-.875 1.315 1.315-.875.875.51.509.874-.875 1.315 1.315-1.787 1.787.51.51 1.786-1.788 1.316 1.316-.875.874.509.509.875-.874 1.314 1.314-.874.875.509.51.874-.876 2.916 2.916H2.881z" stroke="#15A94E" stroke-width=".8"/><path d="M6.971 13.916a.36.36 0 00-.62.25V29.61c0 .199.162.36.36.36h14.836a.36.36 0 00.26-.61L6.971 13.917zm.1 15.334V15.06l13.632 14.19H7.072z" stroke="#15A94E" stroke-width=".8"/></svg>