<svg width="36" height="32" fill="none" xmlns="http://www.w3.org/2000/svg"><g clip-path="url(#clip0)" fill="#15A94E"><path d="M18 32.05c-8.55 0-15.525-6.975-15.525-15.525 0-3.75 1.35-7.425 3.9-10.275l1.65 1.5c-2.175 2.4-3.3 5.55-3.3 8.775C4.725 23.875 10.65 29.8 18 29.8c1.95 0 3.825-.375 5.55-1.2l.9 2.025c-2.026.975-4.2 1.425-6.45 1.425zm11.549-5.175l-1.65-1.5c2.175-2.4 3.375-5.55 3.375-8.85 0-7.35-5.925-13.275-13.275-13.275-1.95 0-3.825.375-5.55 1.2l-.9-2.025c2.025-.9 4.2-1.425 6.45-1.425 8.55 0 15.525 6.975 15.525 15.525 0 3.825-1.425 7.5-3.975 10.35z"/><path d="M9.6 15.325H7.2v-7.2H0v-2.4h9.6v9.6zm26.4 12h-9.6v-9.6h2.4v7.2H36v2.4zM17.855 9.117c.019-.156.271-.156.29 0C18.775 14.3 22 15.368 22 18.97c0 2.226-1.83 4.03-4 4.03-2.169 0-4-1.804-4-4.03 0-3.602 3.224-4.67 3.855-9.853z"/></g><defs><clipPath id="clip0"><path fill="#fff" d="M0 0h36v32H0z"/></clipPath></defs></svg>