<svg width="36" height="36" fill="none" xmlns="http://www.w3.org/2000/svg"><path d="M22.15 15.644a16.779 16.779 0 00-9.28 0 29.11 29.11 0 00-5.157-5.755 23.987 23.987 0 0119.717 0 29.112 29.112 0 00-5.28 5.755v0z" stroke="#15A94E" stroke-linecap="round" stroke-linejoin="round"/><path d="M11.313 3.563h12.374a7.75 7.75 0 017.75 7.75v17.53a2.594 2.594 0 01-2.593 2.595H6.156a2.594 2.594 0 01-2.593-2.594V11.312a7.75 7.75 0 017.75-7.75zm18.614 26.364c.287-.288.448-.677.448-1.083V11.312a6.688 6.688 0 00-6.688-6.687H11.313a6.687 6.687 0 00-6.687 6.688v17.53a1.531 1.531 0 001.531 1.532h22.688a1.53 1.53 0 001.082-.448z" fill="#15A94E" stroke="#15A94E"/><path d="M10.936 10.661h0l-.002-.001-1.031-1.031a.535.535 0 11.757-.758l1.031 1.032h0l.002.001a.532.532 0 010 .754h0l-.003.003a.531.531 0 01-.754 0zm6.94-1.035a.531.531 0 01-.907-.376V8.219a.531.531 0 111.062 0V9.25c0 .14-.056.276-.155.376zm5.432.278h0l.001-.001L24.34 8.87a.536.536 0 01.758.758l-1.032 1.03h0l-.001.002a.531.531 0 01-.755 0h0l-.002-.003a.531.531 0 010-.754zm-6.233 4.184l3.094-4.125-.4-.3.4.3a.531.531 0 01.744-.107l.3-.4-.3.4a.532.532 0 01.106.744l-3.094 4.125a.532.532 0 01-.187.156l.223.448-.223-.448a.531.531 0 01-.557-.05l-.295.394.295-.394a.532.532 0 01-.106-.743z" fill="#15A94E" stroke="#15A94E"/></svg>