<svg width="95" height="64" fill="none" xmlns="http://www.w3.org/2000/svg"><path d="M58.981 10.667c2.963 0 5.365-2.388 5.365-5.334C64.346 2.388 61.944 0 58.98 0c-2.962 0-5.364 2.388-5.364 5.333 0 2.946 2.402 5.334 5.364 5.334zM82.596 35.2c2.37 0 4.291-1.91 4.291-4.267 0-2.356-1.92-4.266-4.29-4.266-2.371 0-4.292 1.91-4.292 4.266 0 2.357 1.921 4.267 4.291 4.267zm-47.21-24.533c2.962 0 5.364-2.388 5.364-5.334C40.75 2.388 38.348 0 35.386 0c-2.963 0-5.365 2.388-5.365 5.333 0 2.946 2.402 5.334 5.365 5.334zM11.776 35.2c2.37 0 4.291-1.91 4.291-4.267 0-2.356-1.921-4.266-4.291-4.266s-4.292 1.91-4.292 4.266c0 2.357 1.922 4.267 4.292 4.267z" fill="#15A94E"/><path d="M94.174 49.28l-3.755-8.854c-1.288-1.813-3.326-3.2-5.579-3.84-.644-.213-1.502-.32-2.253-.32-1.502 0-2.897.32-4.184.96l-6.544-4.586-3.863-16c-.107-.427-.429-.96-.75-1.174a12.96 12.96 0 00-4.4-2.133c-1.287-.32-2.574-.533-3.862-.533-1.287 0-2.575.213-3.755.533a12.958 12.958 0 00-4.398 2.133c-.43.32-.644.747-.751 1.174l-2.897 11.52-2.79-11.52c-.107-.427-.429-.96-.75-1.174a12.958 12.958 0 00-4.4-2.133c-1.287-.32-2.574-.533-3.861-.533-1.288 0-2.575.213-3.755.533a12.958 12.958 0 00-4.399 2.133c-.43.32-.644.747-.751 1.174l-3.862 16-6.545 4.587c-1.394-.64-2.789-.96-4.291-.96-.751 0-1.61.106-2.253.32-2.253.533-4.291 1.92-5.579 3.84L.192 49.28c-.429.96-.107 2.026.644 2.666.43.214.858.32 1.287.32a2.12 2.12 0 001.931-1.28l2.36-5.546V64h4.292V51.2h2.146V64h4.291V41.6h.107l8.476-5.867c.43-.32.751-.746.858-1.28l3.433-14.187V64h4.292V39.467h2.146V64h4.29V20.267l4.4 17.6c.214.96 1.072 1.6 2.038 1.6.966 0 1.824-.64 2.038-1.6l4.4-17.6v8.96L49.864 44.8h3.755V64h4.291V44.8h2.146V64h4.292V44.8h3.754L64.35 29.227v-8.96l3.54 14.186c.107.533.43.96.858 1.28l8.583 5.974v6.613l-2.253 6.08h2.146V64h4.291v-9.6h2.146V64h4.291v-9.6h2.146l-2.038-5.654V45.44l2.36 5.547c.322.853 1.18 1.28 1.93 1.28.43 0 .86-.107 1.288-.427.644-.534.966-1.707.537-2.56z" fill="#15A94E"/></svg>