<svg width="36" height="36" fill="none" xmlns="http://www.w3.org/2000/svg"><g clip-path="url(#clip0)" fill="#15A94E"><path d="M18.371 7.638c1.458.007 2.64-1.149 2.64-2.58 0-1.426-1.182-2.581-2.64-2.581-1.457 0-2.639 1.155-2.639 2.58 0 1.426 1.182 2.581 2.64 2.581zm2.644 1.107h-5.292c-1.995 0-3.297 1.716-3.297 3.349v7.86c0 1.521 2.193 1.521 2.193 0v-7.265h.425v19.76c0 2.103 2.97 2.034 3.042 0V21.06h.565v11.395c.12 2.159 3.043 1.951 3.043-.007v-19.76h.354v7.265c0 1.522 2.264 1.522 2.264 0v-7.86c0-1.625-1.31-3.348-3.297-3.348z"/></g><defs><clipPath id="clip0"><path fill="#fff" d="M0 2h36v32H0z"/></clipPath></defs></svg>