<svg width="36" height="36" fill="none" xmlns="http://www.w3.org/2000/svg"><path d="M12.938 14.063a.562.562 0 01-.563-.563V9.562a.563.563 0 011.125 0V13.5a.563.563 0 01-.563.563zm.562-6.75V6.75a.563.563 0 00-1.125 0v.563a.563.563 0 001.125 0zm8.921 19.383l.895 5.395a.562.562 0 01-.316.6.562.562 0 01-.236.052H12.64a.56.56 0 01-.562-.652l.94-5.625a11.812 11.812 0 01-6.83-10.716.562.562 0 01.563-.563h2.813V4.5a.563.563 0 01.562-.563H24.75a.563.563 0 01.563.563v1.688H27a.563.563 0 01.563.562V9a.563.563 0 01-.563.563h-1.688v5.624h3.938a.563.563 0 01.563.563 11.812 11.812 0 01-7.392 10.946zm2.892-19.384v1.125h1.125V7.313h-1.125zm-14.625 7.875h13.5V5.063h-13.5v10.125zm-3.376 1.126c.027.472.085.941.175 1.406h21.01c.095-.464.158-.934.19-1.407H7.313zm14.03 10.76c-.492.143-.992.254-1.497.332l-.433.067-.506.045-.653.046h-.399a9.52 9.52 0 01-.979-.051h-.096c-.36-.04-.714-.096-1.068-.163l-.276-.062a17.76 17.76 0 01-.782-.203L14.35 27l-.258-.079-.788 4.72h8.798l-.76-4.568zm6.879-8.23H7.779a10.732 10.732 0 006.154 6.79l.31.113c.208.078.41.152.618.219l.4.107c.185.05.377.101.562.14l.444.074c.18.028.36.061.563.078.203.017.326.028.495.04.169.011.332 0 .5 0h.951c.236 0 .478-.045.72-.079l.22-.034c.28-.045.562-.107.843-.174h.09a10.714 10.714 0 007.571-7.273z" fill="#15A94E" stroke="#15A94E" stroke-width=".6"/></svg>