<svg width="36" height="36" fill="none" xmlns="http://www.w3.org/2000/svg"><path d="M10.643 32.063a.562.562 0 01-.563-.563v-3.938a.562.562 0 111.125 0V31.5a.562.562 0 01-.563.563zm.562 2.25v-.563a.562.562 0 10-1.125 0v.563a.562.562 0 101.125 0zm-2.25-6.188v-.563a.562.562 0 10-1.125 0v.563a.562.562 0 101.125 0zm24.902-18.034v10.092a.562.562 0 01-.563.562h-2.919a1.687 1.687 0 01-1.688-1.688v-.494H15.143a2.25 2.25 0 00-2.25 2.25v2.25h.518a1.687 1.687 0 110 3.375H5.625a1.687 1.687 0 110-3.375h.563v-2.25a9 9 0 019-9h2.216v-2.25h-3.938a1.687 1.687 0 110-3.376h4.5a.563.563 0 01.563.563h1.125a.563.563 0 01.562-.563h4.5a1.688 1.688 0 110 3.375H20.78v2.25h7.909v-.596a1.688 1.688 0 011.687-1.687h2.92a.562.562 0 01.562.562zm-20.39-1.653h11.25a.563.563 0 100-1.126h-3.938a.562.562 0 01-.563.563h-2.25a.563.563 0 01-.562-.563h-3.938a.563.563 0 000 1.125zm5.062 3.374h1.125v-2.25h-1.125v2.25zm-5.125 12.376H5.625a.563.563 0 000 1.125h7.78a.562.562 0 000-1.125zm15.284-6.75v-4.5h-13.5a7.875 7.875 0 00-7.876 7.874v2.25h4.45v-2.25a3.375 3.375 0 013.375-3.375h13.55zm4.044-6.784h-2.357a.563.563 0 00-.563.562v7.842a.563.563 0 00.563.562h2.357v-8.966z" fill="#15A94E" stroke="#15A94E" stroke-width=".6"/></svg>