<svg width="30" height="32" fill="none" xmlns="http://www.w3.org/2000/svg"><path d="M5.354.149c-.024-.199-.35-.199-.374 0C4.165 6.733 0 8.089 0 12.666c0 2.827 2.366 5.119 5.167 5.119 2.802 0 5.167-2.292 5.167-5.12 0-4.575-4.165-5.932-4.98-12.516zm19.667 0c-.025-.199-.35-.199-.376 0-.814 6.584-4.979 7.94-4.979 12.517 0 2.827 2.365 5.119 5.168 5.119 2.801 0 5.166-2.292 5.166-5.12C30 8.09 25.835 6.734 25.02.15zM14.813 14.364c-.815 6.585-4.98 7.94-4.98 12.517C9.833 29.708 12.198 32 15 32c2.802 0 5.167-2.292 5.167-5.12 0-4.575-4.165-5.931-4.98-12.516-.024-.199-.35-.199-.374 0z" fill="#15A94E"/></svg>