<svg width="36" height="36" fill="none" xmlns="http://www.w3.org/2000/svg"><path d="M8.354 2.149c-.024-.199-.35-.199-.374 0C7.165 8.733 3 10.089 3 14.666c0 2.827 2.366 5.119 5.167 5.119 2.802 0 5.167-2.292 5.167-5.12 0-4.575-4.165-5.932-4.98-12.516zm19.667 0c-.025-.199-.35-.199-.376 0-.814 6.584-4.979 7.94-4.979 12.517 0 2.827 2.365 5.119 5.168 5.119 2.801 0 5.166-2.292 5.166-5.12 0-4.575-4.165-5.932-4.98-12.516zM17.813 16.364c-.815 6.585-4.98 7.94-4.98 12.517C12.833 31.708 15.198 34 18 34c2.802 0 5.167-2.292 5.167-5.12 0-4.575-4.165-5.931-4.98-12.516-.024-.199-.35-.199-.374 0z" fill="#15A94E"/></svg>