<svg width="345" height="35" fill="none" xmlns="http://www.w3.org/2000/svg"><path d="M9.543 27.456h.987v-8.188h-.998l-2.18 1.566v1.027l2.168-1.509h.023v7.104z" fill="#000"/><path stroke="#D9D9DE" stroke-width=".726" d="M10.637.656v11.621"/><path d="M63.695 27.593c1.708 0 2.916-1.152 2.916-2.798 0-1.572-1.135-2.712-2.706-2.712-.795 0-1.476.295-1.862.845h-.022l.278-2.752h3.847v-.908h-4.687l-.42 4.67h.902c.38-.658 1.005-.976 1.782-.976 1.09 0 1.867.778 1.867 1.861 0 1.101-.772 1.873-1.884 1.873-.982 0-1.725-.602-1.816-1.475h-1.004c.085 1.395 1.243 2.372 2.809 2.372z" fill="#000"/><path stroke="#D9D9DE" stroke-width=".726" d="M64.385.656v11.621"/><path d="M114.013 27.456h.988v-8.188h-.999l-2.179 1.566v1.027l2.168-1.509h.022v7.104zm5.93.137c1.907 0 3.008-1.652 3.008-4.24 0-2.57-1.107-4.221-3.008-4.221s-3.019 1.663-3.019 4.227c0 2.588 1.107 4.233 3.019 4.233zm0-.891c-1.282 0-1.992-1.306-1.992-3.348 0-1.998.727-3.325 1.992-3.325 1.266 0 1.98 1.316 1.98 3.33 0 2.043-.703 3.343-1.98 3.343z" fill="#000"/><path stroke="#D9D9DE" stroke-width=".726" d="M118.131.656v11.621"/><path d="M167.386 27.456h.988v-8.188h-.999l-2.179 1.566v1.027l2.168-1.509h.022v7.104zm5.879.137c1.708 0 2.917-1.152 2.917-2.798 0-1.572-1.135-2.712-2.707-2.712-.794 0-1.475.295-1.861.845h-.023l.278-2.752h3.847v-.908h-4.687l-.42 4.67h.903c.38-.658 1.004-.976 1.781-.976 1.09 0 1.867.778 1.867 1.861 0 1.101-.772 1.873-1.884 1.873-.981 0-1.725-.602-1.815-1.475h-1.005c.085 1.395 1.243 2.372 2.809 2.372z" fill="#000"/><path stroke="#D9D9DE" stroke-width=".726" d="M171.879.656v11.621"/><path d="M218.155 21.634h.988c0-.919.76-1.611 1.77-1.611.936 0 1.538.641 1.538 1.447 0 .68-.256 1.123-1.362 2.275l-2.883 3.008v.703h5.402v-.908h-4v-.022l1.946-1.998c1.504-1.543 1.918-2.218 1.918-3.12 0-1.243-1.044-2.276-2.559-2.276-1.577 0-2.758 1.067-2.758 2.502zm9.499 5.959c1.907 0 3.008-1.652 3.008-4.24 0-2.57-1.107-4.221-3.008-4.221s-3.019 1.663-3.019 4.227c0 2.588 1.107 4.233 3.019 4.233zm0-.891c-1.282 0-1.991-1.306-1.991-3.348 0-1.998.726-3.325 1.991-3.325 1.266 0 1.981 1.316 1.981 3.33 0 2.043-.704 3.343-1.981 3.343z" fill="#000"/><path stroke="#D9D9DE" stroke-width=".726" d="M225.627.656v11.621"/><path d="M272.026 21.634h.988c0-.919.76-1.611 1.77-1.611.936 0 1.538.641 1.538 1.447 0 .68-.256 1.123-1.362 2.275l-2.883 3.008v.703h5.402v-.908h-4v-.022l1.946-1.998c1.504-1.543 1.918-2.218 1.918-3.12 0-1.243-1.044-2.276-2.559-2.276-1.577 0-2.758 1.067-2.758 2.502zm9.448 5.959c1.708 0 2.917-1.152 2.917-2.798 0-1.572-1.135-2.712-2.707-2.712-.794 0-1.475.295-1.861.845h-.023l.278-2.752h3.847v-.908h-4.687l-.42 4.67h.903c.38-.658 1.004-.976 1.781-.976 1.09 0 1.867.778 1.867 1.861 0 1.101-.771 1.873-1.884 1.873-.981 0-1.725-.602-1.815-1.475h-1.005c.085 1.395 1.243 2.372 2.809 2.372z" fill="#000"/><path stroke="#D9D9DE" stroke-width=".726" d="M279.373.656v11.621"/><path d="M327.221 23.66h1.027c1.152 0 1.873.568 1.867 1.578-.005.857-.726 1.47-1.804 1.47-1.09 0-1.856-.551-1.918-1.42h-.982c.074 1.357 1.203 2.305 2.9 2.305 1.606 0 2.843-.982 2.843-2.39 0-1.163-.812-1.906-2.003-2.008v-.023c1.027-.216 1.736-.913 1.736-1.93 0-1.168-.948-2.11-2.588-2.11-1.532 0-2.61.89-2.723 2.281h.981c.063-.885.778-1.396 1.742-1.396 1.05 0 1.561.55 1.561 1.362 0 .817-.681 1.419-1.657 1.419h-.982v.862zm8.075 3.933c1.906 0 3.007-1.652 3.007-4.24 0-2.57-1.106-4.221-3.007-4.221s-3.019 1.663-3.019 4.227c0 2.588 1.107 4.233 3.019 4.233zm0-.891c-1.283 0-1.992-1.306-1.992-3.348 0-1.998.727-3.325 1.992-3.325 1.265 0 1.98 1.316 1.98 3.33 0 2.043-.703 3.343-1.98 3.343z" fill="#000"/><path stroke="#D9D9DE" stroke-width=".726" d="M333.121.656v11.621"/></svg>