<svg width="31" height="33" fill="none" xmlns="http://www.w3.org/2000/svg"><path d="M19.242 10.658v0c0 2.084-1.718 3.773-3.742 3.773-2.022 0-3.74-1.689-3.74-3.773 0-1.69.715-2.793 1.632-4.205l.089-.137c.725-1.12 1.522-2.395 2.02-4.201.497 1.806 1.294 3.082 2.02 4.2l.088.138c.917 1.412 1.633 2.516 1.633 4.205z" fill="#15A94E" stroke="#15A94E" stroke-width="1.069"/><path d="M0 13.362h9.086m12.828 0H31M3.208 22.448c0 .486-.149.905-.363 1.191-.214.286-.47.413-.706.413-.237 0-.492-.127-.707-.413-.214-.285-.362-.705-.362-1.19 0-.487.148-.906.362-1.192.215-.286.47-.412.707-.412.236 0 .492.127.706.412.214.286.363.705.363 1.191zm3.207 4.276c0 .486-.149.905-.363 1.191-.214.286-.47.413-.706.413-.237 0-.492-.127-.707-.413-.214-.286-.362-.705-.362-1.19 0-.487.148-.906.362-1.192.215-.286.47-.412.707-.412.236 0 .492.126.706.412.214.286.363.705.363 1.191zm-3.207-9.62c0 .485-.149.905-.363 1.19-.214.286-.47.413-.706.413-.237 0-.492-.127-.707-.412-.214-.286-.362-.706-.362-1.192 0-.485.148-.905.362-1.19.215-.286.47-.413.707-.413.236 0 .492.127.706.412.214.286.363.706.363 1.191zm8.016 12.293c.486 0 .905.148 1.19.362.287.215.413.47.413.706 0 .237-.126.492-.412.707-.286.214-.705.363-1.191.363-.486 0-.905-.149-1.191-.363-.286-.215-.413-.47-.413-.707 0-.236.127-.491.413-.706.286-.214.705-.362 1.19-.362zm16.568-6.949c0 .486.149.905.363 1.191.214.286.47.413.706.413.237 0 .492-.127.707-.413.214-.285.362-.705.362-1.19 0-.487-.148-.906-.362-1.192-.215-.286-.47-.412-.707-.412-.236 0-.492.127-.706.412-.214.286-.363.705-.363 1.191zm-3.207 4.276c0 .486.149.905.363 1.191.214.286.47.413.706.413.237 0 .492-.127.707-.413.214-.286.362-.705.362-1.19 0-.487-.148-.906-.362-1.192-.215-.286-.47-.412-.707-.412-.236 0-.492.126-.706.412-.214.286-.363.705-.363 1.191zm3.207-9.62c0 .485.149.905.363 1.19.214.286.47.413.706.413.237 0 .492-.127.707-.412.214-.286.362-.706.362-1.192 0-.485-.148-.905-.362-1.19-.215-.286-.47-.413-.707-.413-.236 0-.492.127-.706.412-.214.286-.363.706-.363 1.191zm-8.016 12.293c-.486 0-.905.148-1.19.362-.287.215-.413.47-.413.706 0 .237.126.492.412.707.286.214.705.363 1.191.363.486 0 .905-.149 1.191-.363.286-.215.413-.47.413-.707 0-.236-.127-.491-.413-.706-.286-.214-.705-.362-1.19-.362zM10.69 16.712c-.421-.243-.858-.324-1.213-.281-.355.043-.592.2-.71.405-.119.205-.137.49.004.818.14.329.429.667.85.91.42.243.858.324 1.213.281.354-.043.591-.2.71-.405.118-.205.136-.49-.004-.818-.14-.329-.43-.667-.85-.91zm9.877-.107c-.469.126-.835.378-1.056.66-.22.28-.277.56-.216.788.062.229.25.442.581.575.332.134.775.168 1.245.043.47-.126.836-.378 1.056-.66.22-.28.277-.56.216-.788-.061-.229-.25-.442-.581-.575-.332-.134-.775-.168-1.245-.043zm4.555 5.309c0-.486-.149-.905-.363-1.191-.214-.286-.47-.413-.706-.413-.237 0-.492.127-.707.413-.214.286-.362.705-.362 1.19 0 .487.148.906.362 1.192.215.285.47.412.707.412.236 0 .492-.127.706-.412.214-.286.363-.705.363-1.191zm-17.639 0c0-.486-.148-.905-.363-1.191-.214-.286-.47-.413-.706-.413-.237 0-.492.127-.706.413-.215.286-.363.705-.363 1.19 0 .487.148.906.363 1.192.214.285.47.412.706.412.237 0 .492-.127.706-.412.215-.286.363-.705.363-1.191zm4.275 2.672c0-.486-.148-.905-.362-1.19-.215-.287-.47-.413-.707-.413-.236 0-.492.127-.706.412-.214.286-.363.705-.363 1.191 0 .486.149.905.363 1.191.214.286.47.413.706.413.237 0 .492-.127.707-.413.214-.286.362-.705.362-1.19zm4.276-4.276c0-.486-.149-.905-.363-1.19-.214-.286-.47-.413-.706-.413-.237 0-.492.127-.706.412-.215.286-.363.705-.363 1.191 0 .486.148.906.363 1.191.214.286.469.413.706.413s.492-.127.706-.413c.214-.285.363-.705.363-1.19zm0 6.414c0-.486-.149-.905-.363-1.19-.214-.287-.47-.413-.706-.413-.237 0-.492.126-.706.412-.215.286-.363.705-.363 1.191 0 .486.148.905.363 1.191.214.286.469.413.706.413s.492-.127.706-.413c.214-.286.363-.705.363-1.19zm4.277-4.276c0-.486-.148-.905-.363-1.19-.214-.287-.47-.413-.706-.413-.237 0-.492.127-.706.412-.215.286-.363.705-.363 1.191 0 .486.149.905.363 1.191.214.286.47.413.706.413.237 0 .492-.127.706-.413.215-.285.363-.705.363-1.19z" stroke="#15A94E" stroke-width="1.069"/></svg>