<svg width="32" height="32" fill="none" xmlns="http://www.w3.org/2000/svg"><path d="M28.106 14.375L25.75 12.02V6.25a1.63 1.63 0 00-1.625-1.625H22.5a1.63 1.63 0 00-1.625 1.625v.899l-3.25-3.247C17.181 3.482 16.775 3 16 3s-1.181.483-1.625.902L3.894 14.375C3.387 14.903 3 15.288 3 16c0 .915.702 1.625 1.625 1.625H6.25v9.75A1.63 1.63 0 007.875 29h4.875v-8.125a1.63 1.63 0 011.625-1.625h3.25a1.63 1.63 0 011.625 1.625V29h4.875a1.63 1.63 0 001.625-1.625v-9.75h1.625c.923 0 1.625-.71 1.625-1.625 0-.712-.387-1.097-.894-1.625z" fill="#15A94E"/></svg>