<svg width="56" height="64" fill="none" xmlns="http://www.w3.org/2000/svg"><path d="M15.127 11.2a5.6 5.6 0 100-11.2 5.6 5.6 0 000 11.2zm25.594 0a5.6 5.6 0 100-11.2 5.6 5.6 0 000 11.2zm15.12 24.08l-4.56-16.88c-.16-.48-.4-.96-.72-1.28-1.52-1.6-3.44-2.8-5.52-3.52-1.36-.56-2.8-.8-4.32-.8-1.52 0-2.96.24-4.32.72-2.16.72-4 1.92-5.52 3.52-.32.4-.56.8-.72 1.28l-2.24 8.4-2.24-8.32c-.16-.48-.4-.96-.72-1.28-1.52-1.6-3.44-2.8-5.52-3.52-1.36-.56-2.8-.8-4.32-.8-1.52 0-2.96.24-4.32.72-2.16.72-4 1.92-5.52 3.52-.32.4-.56.8-.72 1.28L.081 35.2c-.32 1.28.32 2.72 1.68 3.04.16.16.32.16.56.16 1.04 0 2-.72 2.32-1.76l4.08-15.36V64h4.8V39.2h3.2V64h4.8V21.28l4.08 15.28c.32 1.04 1.28 1.76 2.32 1.76.24 0 .4 0 .64-.08.72-.24 1.28-.8 1.52-1.44.08 0 4.24-15.52 4.24-15.52v6.48l-4.56 17.04h4.56V64h4.8V44.8h3.2V64h4.8V44.8h4.56l-4.56-17.04v-6.48l4.08 15.28c.32 1.04 1.28 1.76 2.32 1.76.24 0 .4 0 .64-.08 1.28-.32 2-1.68 1.68-2.96z" fill="#15A94E"/></svg>