<svg width="46" height="46" fill="none" xmlns="http://www.w3.org/2000/svg"><g clip-path="url(#clip0)" fill="#15A94E"><path d="M24.767 0c.18.06.353.146.542.172.464.06.929.086 1.453.138-.051.223-.068.36-.103.49-.327 1.083.25 2.313 1.221 2.657 1.333.473 2.503-.103 2.89-1.238.258-.748.275-.731 1.049-.422 1.91.766 3.646 1.832 5.289 3.062.172.129.318.275.473.413-1.127 1.556-1.213 2.648-.293 3.534.886.852 2.073.74 3.397-.327.783.413 2.89 3.973 3.827 6.467-.378.172-.774.319-1.144.534-.825.473-1.057 1.238-.946 2.115.095.783.5 1.376 1.265 1.686a2.234 2.234 0 001.634.043c.086-.035.189-.026.352-.035a20.833 20.833 0 01-.008 7.482 13.179 13.179 0 00-.5-.12c-1.048-.241-2.321.129-2.69 1.479-.276 1.015.06 2.175 1.298 2.631.748.276.756.284.438 1.075-.782 1.97-1.883 3.75-3.173 5.418-.086.112-.19.207-.31.353-.662-.637-1.376-1.11-2.33-.92-.482.094-.912.3-1.247.688-.774.894-.637 2.038.447 3.405-.456.352-.894.722-1.367 1.04-1.531 1.041-3.14 1.944-4.868 2.615-.31.12-.36.034-.438-.207-.18-.559-.405-1.092-.912-1.453-.722-.499-1.892-.481-2.614.052-.637.464-.98 1.548-.748 2.356.034.138.077.267.129.49-2.52.465-4.997.456-7.525.009.37-1.333.284-2.537-1.101-3.07-1.78-.688-2.726.31-3.182 1.943a23.522 23.522 0 01-6.579-3.792c.62-.662 1.144-1.333.946-2.236-.094-.439-.292-.92-.593-1.247-.843-.92-1.926-.8-3.5.327-.353-.456-.74-.886-1.058-1.368-1.032-1.54-1.935-3.139-2.606-4.867-.129-.318-.008-.361.233-.439.559-.18 1.092-.413 1.444-.92.5-.722.473-1.9-.06-2.614-.473-.654-1.565-.998-2.365-.757a7.607 7.607 0 01-.516.138c-.051-.5-.086-.946-.146-1.385-.026-.215-.112-.421-.172-.628v-3.526c.06-.206.146-.412.172-.627.06-.448.095-.886.146-1.385.241.069.379.103.516.138.809.24 1.875-.095 2.357-.74.533-.705.567-1.849.086-2.571-.362-.55-.93-.766-1.514-.972-.206-.069-.301-.12-.198-.387.68-1.754 1.583-3.388 2.649-4.936.318-.473.688-.895.954-1.247.654.31 1.196.67 1.79.817a1.756 1.756 0 001.788-.585c.284-.344.49-.8.593-1.238.198-.903-.326-1.574-.92-2.21.155-.147.275-.284.422-.396 1.65-1.247 3.396-2.322 5.314-3.096.817-.327.809-.335 1.118.439.482 1.212 1.591 1.66 2.915 1.186.92-.335 1.48-1.59 1.161-2.64-.043-.129-.06-.266-.103-.49.533-.043.998-.077 1.454-.129.18-.026.36-.112.541-.172h3.526zM44.53 22.987s.009 0 0 0a34.5 34.5 0 000-1.634c-.008-.31-.086-.559-.49-.567-.163 0-.327-.086-.49-.138-1.453-.499-2.545-1.875-2.554-3.405-.009-1.11.507-1.987 1.324-2.71.241-.214.387-.42.207-.73a924.096 924.096 0 01-1.858-3.182c-.137-.232-.3-.232-.542-.155-.387.12-.79.232-1.195.275-.67.069-1.281-.172-1.857-.507-1.42-.834-2.297-2.606-1.583-4.292.138-.335.078-.507-.198-.662-1.014-.585-2.03-1.16-3.035-1.754-.336-.198-.55-.13-.8.163-.654.757-1.48 1.247-2.494 1.316-1.763.112-3.44-1.273-3.758-3.087-.043-.258-.13-.422-.387-.422a171.773 171.773 0 00-3.646.009c-.12 0-.293.163-.353.292-.095.198-.112.439-.18.654-.474 1.436-1.875 2.537-3.355 2.563-1.126.017-2.012-.508-2.751-1.316-.198-.215-.396-.396-.688-.232a133.433 133.433 0 00-3.242 1.909c-.104.06-.19.335-.138.456.292.765.387 1.505.129 2.322-.55 1.771-2.657 3.199-4.644 2.356-.327-.138-.507-.095-.662.19-.594 1.014-1.17 2.029-1.763 3.035-.198.335-.12.559.163.808.74.645 1.247 1.454 1.307 2.451.12 1.797-1.255 3.483-3.078 3.81-.25.043-.422.129-.422.378a128.87 128.87 0 00.009 3.646c0 .12.163.293.284.353.198.095.438.12.653.18 1.35.37 2.546 1.91 2.563 3.312.017 1.143-.49 2.055-1.316 2.794-.223.198-.395.405-.232.688.61 1.075 1.247 2.15 1.866 3.225.146.25.327.241.576.155.37-.129.766-.224 1.153-.267.714-.086 1.35.181 1.935.542 1.402.878 2.219 2.632 1.505 4.292-.12.275-.104.447.163.602 1.015.584 2.03 1.17 3.036 1.771.361.215.593.146.868-.172.645-.74 1.462-1.23 2.46-1.29 1.746-.094 3.388 1.204 3.75 3.002.085.438.309.533.662.541 1.031.009 2.063.009 3.095 0 .396 0 .706-.094.706-.593 0-.146.077-.301.129-.447.49-1.385 1.763-2.417 3.224-2.503 1.17-.06 2.116.456 2.873 1.325.206.232.413.37.696.214 1.075-.619 2.142-1.255 3.217-1.874.215-.13.24-.284.154-.499-.292-.748-.37-1.48-.128-2.288.524-1.78 2.691-3.25 4.704-2.356.258.112.43.086.567-.163a563.6 563.6 0 011.789-3.07c.206-.344.129-.577-.18-.835-.766-.653-1.239-1.487-1.3-2.502-.094-1.754 1.256-3.397 3.07-3.732.336-.06.44-.233.448-.508.043-.584.034-1.16.034-1.737z"/><path d="M7.215 22.996c0-8.608 7.198-15.79 15.798-15.78 8.634.008 15.771 7.18 15.78 15.754.017 8.651-7.163 15.91-15.97 15.824-8.445-.086-15.6-7.147-15.608-15.798zm1.384.009c.07 8.118 6.373 14.404 14.448 14.378 8.058-.026 14.387-6.346 14.336-14.473-.043-8.032-6.356-14.37-14.517-14.302-8.032.078-14.19 6.347-14.267 14.396z"/><path d="M23.993 20.846h.507c1.565 0 3.122.009 4.687-.009.413-.008.748.086.937.448.19.37-.043.67-.249.963-.499.688-1.006 1.376-1.505 2.064-1.419 1.952-2.838 3.912-4.257 5.865l-3.122 4.334c-.12.163-.215.378-.37.464-.214.112-.507.215-.73.164a.58.58 0 01-.447-.688c.103-.516.24-1.015.387-1.522.206-.714.438-1.42.645-2.142.275-.971.533-1.952.808-2.924.25-.868.499-1.737.774-2.666-.207-.017-.37-.043-.533-.043-1.591 0-3.182-.017-4.773 0-.387 0-.68-.111-.852-.438-.172-.318-.017-.576.181-.852 1.247-1.72 2.485-3.44 3.724-5.168 1.745-2.434 3.5-4.859 5.254-7.293.06-.077.12-.163.18-.24.319-.396.637-.5.955-.31.344.198.473.628.353 1.05-.465 1.582-.92 3.172-1.393 4.755-.344 1.17-.706 2.339-1.05 3.509-.06.206-.068.404-.111.679zm-.06-5.194a1.327 1.327 0 00-.147-.043c-1.935 2.683-3.878 5.357-5.865 8.11.258.008.422.025.594.025 1.479 0 2.95-.009 4.429 0 .584 0 .937.559.73 1.1-.12.319-.223.637-.318.964-.352 1.17-.705 2.348-1.04 3.517-.095.327-.155.671-.224 1.006.052.018.103.035.146.052 1.935-2.683 3.87-5.358 5.865-8.127h-5.005c-.55 0-.903-.413-.782-.911.06-.25.146-.49.215-.731.395-1.35.8-2.7 1.195-4.05.086-.293.138-.603.207-.912zm-12.384 6.656h1.341v1.376h-1.34v-1.376zm22.91 1.392h-1.342v-1.375h1.342V23.7z"/></g><defs><clipPath id="clip0"><path fill="#fff" d="M0 0h46v46H0z"/></clipPath></defs></svg>