<svg width="46" height="46" fill="none" xmlns="http://www.w3.org/2000/svg"><path fill-rule="evenodd" clip-rule="evenodd" d="M37.252 18.893c-.628-6.56-6.09-11.706-12.814-11.706-5.202 0-9.656 3.088-11.71 7.519-.618-.196-1.262-.331-1.945-.331a6.47 6.47 0 00-6.469 6.469c0 .71.143 1.381.354 2.018C1.89 24.482.002 27.455.002 30.903a9.343 9.343 0 009.344 9.344v.003h25.873v-.003c5.956 0 10.782-4.826 10.782-10.781 0-5.256-3.768-9.621-8.75-10.573zm-2.033 18.48v.002H9.346c-3.567-.003-6.47-2.904-6.47-6.472.001-2.3 1.213-4.377 3.241-5.558 1.97-1.132 2.106-1.356 1.28-3.389-.14-.418-.208-.782-.208-1.11a3.597 3.597 0 013.594-3.595s.943-.067 1.945.331c1.649.657 1.829.029 2.608-1.666 1.649-3.555 5.22-5.854 9.102-5.854 5.175 0 9.453 3.915 9.953 9.106.177 2.058.177 2.058 2.322 2.548a7.9 7.9 0 016.413 7.75c0 4.36-3.547 7.906-7.907 7.906z" fill="#15A94E"/></svg>