<svg width="46" height="28" fill="none" xmlns="http://www.w3.org/2000/svg"><g clip-path="url(#clip0)"><path d="M0 1.826C.574.443 1.613-.054 3.12 0c2.617.089 5.252.018 7.887.018.717 0 1.434-.054 2.08.354.16.124.358.16.52.054.896-.586 1.9-.39 2.886-.39 2.33-.018 4.66 0 6.991 0 .753 0 1.506-.054 2.17.354.16.089.34.16.501.053.896-.603 1.9-.39 2.868-.39 2.51-.018 5.02-.018 7.53 0 1.882 0 2.742.851 2.742 2.695 0 1.029.018 2.075 0 3.104-.017.585.233.798.79.78a97.884 97.884 0 013.226 0c1.703.018 2.6.904 2.617 2.553 0 1.1.126 2.2-.036 3.281-.16 1.029-.143 2.004 0 3.05a12.92 12.92 0 010 3.529c-.143 1.028-.16 2.004 0 3.05.18 1.152.054 2.358.036 3.547-.018 1.276-.932 2.27-2.223 2.287-3.173.036-6.328.106-9.5-.035-1.04-.036-2.026-.09-3.066-.018-3.191.195-6.382.142-9.573.017-1.004-.035-1.972-.07-2.976-.017-3.19.177-6.382.142-9.573.017-1.004-.035-1.918-.23-2.976 0-1.165.267-2.438.09-3.657.054-1.2-.036-1.846-.834-2.366-1.791C0 18.034 0 9.93 0 1.826zM32.214 6.58c1.524 0 3.048 0 4.572.018.663 0 1.021-.249 1.021-.94V2.465c0-.603-.34-.94-.95-.94h-9.142c-.664 0-.968.337-.968.993a89.672 89.672 0 010 3.103c0 .674.322.958.986.958 1.488-.018 2.976 0 4.481 0zm-25.15 0c1.523 0 3.047 0 4.57.018.646 0 .933-.249.915-.905a99.622 99.622 0 010-3.28c.018-.657-.323-.905-.932-.905H2.67c-.7.018-1.058.32-1.058 1.046a89.57 89.57 0 010 3.104c-.018.674.287.957.968.94 1.488-.036 2.994-.018 4.482-.018zm12.655 0a188.71 188.71 0 014.482 0c.592 0 .896-.195.896-.816-.018-1.117 0-2.252 0-3.37 0-.584-.286-.868-.878-.868h-9.035c-.717 0-1.004.372-.986 1.064.018.975.036 1.95 0 2.926-.036.816.358 1.082 1.147 1.064 1.452-.018 2.922 0 4.374 0zm6.58 19.719c1.487.017 2.993-.018 4.481.017.807.018 1.13-.319 1.112-1.117-.036-.94-.018-1.897 0-2.837.018-.71-.305-1.01-1.022-1.01-3.012.017-6.024.017-9.035-.019-.753 0-1.004.337-.986 1.029.018.975.036 1.95 0 2.926-.018.727.269 1.01 1.004.993 1.452 0 2.958.018 4.445.018zm12.566.017c0-.017 0-.017 0 0 1.542-.017 3.102-.017 4.643-.017.645 0 .914-.266.914-.905-.017-1.064 0-2.128 0-3.192 0-.585-.286-.85-.878-.85-3.065.017-6.149.017-9.214.017-.628 0-.932.301-.932.922 0 1.01.017 2.004 0 3.015-.018.762.358 1.028 1.111 1.028 1.434-.035 2.904-.018 4.356-.018zM38.92 8.21c-1.524.018-3.048.018-4.553 0-.682 0-.986.284-.968.958a84.62 84.62 0 010 3.014c-.018.727.358.976 1.057.976 2.976-.018 5.97-.018 8.946 0 .77 0 1.075-.337 1.057-1.064-.018-.94-.036-1.898 0-2.838.036-.762-.304-1.064-1.057-1.046-1.506.018-2.994 0-4.482 0zm-6.65 11.509c1.487 0 2.975-.018 4.463.017.77.018 1.075-.301 1.058-1.046a74.54 74.54 0 010-2.837c.017-.762-.341-1.064-1.076-1.064a764.36 764.36 0 01-9.035 0c-.7 0-.95.32-.95.975.018.976.036 1.95 0 2.926-.018.745.287 1.064 1.057 1.046 1.506-.035 2.994-.017 4.482-.017zM26.351 8.21s0 .018 0 0c-1.524 0-3.047.018-4.571 0-.681-.018-.986.266-.95.94.036.975.018 1.95 0 2.926-.018.745.305 1.082 1.058 1.064a728.99 728.99 0 018.873 0c.825 0 1.13-.373 1.112-1.135-.018-.922-.036-1.827 0-2.749.036-.815-.34-1.099-1.13-1.081-1.47.07-2.922.035-4.392.035zM13.786 21.368c-1.524 0-3.048.018-4.572 0-.627 0-.95.195-.932.869a94.71 94.71 0 010 3.192c-.018.638.287.904.932.886 3.012-.017 6.024-.017 9.035 0 .628 0 .95-.195.933-.869a94.87 94.87 0 010-3.192c.018-.638-.27-.904-.915-.886h-4.481zm-.108-8.21c1.524 0 3.048-.018 4.571 0 .628 0 .969-.195.95-.87a94.868 94.868 0 010-3.191c.018-.656-.322-.887-.932-.887H9.143c-.61 0-.86.284-.843.87.018 1.028.036 2.074 0 3.102-.018.745.305.993 1.022.976 1.416-.018 2.886 0 4.356 0zm-6.687 6.56c1.524 0 3.048-.017 4.572 0 .663.018 1.004-.212.986-.921-.036-1.029-.018-2.075 0-3.104.018-.638-.251-.922-.897-.922H2.528c-.664 0-.897.302-.897.922.018.976.036 1.951 0 2.926-.036.798.251 1.117 1.076 1.1 1.416-.036 2.85 0 4.284 0zM19.63 14.79c-1.488 0-2.976.018-4.482 0-.681-.018-.986.23-.968.922.036 1.029.018 2.057 0 3.103-.018.639.269.905.914.905a784 784 0 019.125 0c.663 0 .896-.32.878-.94a57.181 57.181 0 010-3.015c.018-.727-.286-1.01-1.004-.993-1.487.036-2.975.018-4.463.018zm22.265 4.93h1.703c.502 0 .806-.213.824-.727a110.72 110.72 0 000-3.458c0-.497-.322-.745-.806-.745H40.12c-.52 0-.789.266-.789.763a99.658 99.658 0 000 3.28c0 .585.305.869.879.887h1.685zM4.087 13.158c.502 0 1.022-.018 1.524.017.717.036 1.04-.23 1.022-.975-.036-1.028-.018-2.057 0-3.103 0-.585-.233-.87-.843-.87a97.885 97.885 0 01-3.226 0c-.7-.017-.95.32-.933.976.018 1.011.036 2.004 0 3.015-.018.745.323 1.01 1.04.957.448-.053.932-.017 1.416-.017zm-.053 13.157c.501 0 1.021-.017 1.523 0 .753.036 1.112-.248 1.058-1.028-.036-.497-.018-1.011-.018-1.508 0-2.819.323-2.393-2.492-2.411-2.832-.018-2.51-.372-2.492 2.5.036 2.678-.376 2.447 2.42 2.447z" fill="#15A94E"/></g><defs><clipPath id="clip0"><path fill="#fff" d="M0 0h46v28H0z"/></clipPath></defs></svg>