<svg width="43" height="46" fill="none" xmlns="http://www.w3.org/2000/svg"><g clip-path="url(#clip0)" fill="#15A94E"><path d="M.2 14.9C8.965 14.076 13.51 9.004 14.327 0c.78 3.873 1.464 7.647 4.24 10.537 2.758 2.87 6.333 3.715 10.098 4.344-8.842.747-13.387 5.8-14.11 14.783-.095-.02-.17-.04-.266-.059-.076-.452-.171-.884-.247-1.337-.552-3.361-1.445-6.565-3.841-9.082-1.769-1.867-3.975-2.948-6.428-3.518-1.179-.276-2.377-.512-3.575-.767zm24.206 14.43c5.306-.668 8.31-3.676 8.919-9.2.304 1.12.494 2.3.95 3.342.457 1.081 1.047 2.182 1.845 3.027.76.806 1.826 1.396 2.834 1.848 1.045.472 2.205.708 3.29 1.022-2.245.295-4.374.924-6.105 2.615-1.75 1.73-2.263 4.01-2.814 6.389-.685-5.426-3.575-8.473-8.919-9.043zM18.359 46c-.609-3.48-2.453-5.563-5.933-6.055 3.366-.57 5.362-2.536 5.933-6.114.608 3.52 2.548 5.544 5.952 6.095-3.442.53-5.344 2.555-5.952 6.074z"/></g><defs><clipPath id="clip0"><path fill="#fff" d="M.199 0h42.044v46H.199z"/></clipPath></defs></svg>