<svg width="176" height="176" fill="none" xmlns="http://www.w3.org/2000/svg"><path d="M147 122.224v3.592c0 3.968-5.419 7.184-12.103 7.184H42.103C35.42 133 30 129.784 30 125.816v-3.592c0-.662.903-1.198 2.017-1.198h112.966c1.114 0 2.017.536 2.017 1.198z" fill="#2B69DD"/><path d="M68.188 120.812h40.624v2.276c0 1.884-2.728 3.412-6.093 3.412H74.281c-3.365 0-6.094-1.528-6.094-3.412v-2.276z" fill="#75ACFE"/><path d="M39.75 127.312a1.624 1.624 0 11-.001-3.249 1.624 1.624 0 01.001 3.249z" fill="#FBAC00"/><path d="M46.25 127.312a1.624 1.624 0 11-.001-3.249 1.624 1.624 0 01.001 3.249z" fill="#E64C3C"/><path d="M58.112 127.312h-5.85c-1.077 0-1.95-.727-1.95-1.624 0-.898.873-1.626 1.95-1.626h5.85c1.078 0 1.95.728 1.95 1.626 0 .897-.872 1.624-1.95 1.624z" fill="#75ACFE"/><path d="M142.993 49.351v71.675H34.007V49.351c0-4.06 3.614-7.351 8.073-7.351h92.84c4.459 0 8.073 3.291 8.073 7.351z" fill="#2B69DD"/><path d="M133.377 49.982c-12.226.403-89.886 5.087-91.34 64.658a.818.818 0 010-.321V51.993c0-1.11.904-2.01 2.02-2.01h89.32z" fill="#75ACFE"/><path d="M134.979 51.99v62.239a2.015 2.015 0 01-2.021 2.008H44.041a2.029 2.029 0 01-1.333-.502 2.006 2.006 0 01-.688-1.104c1.455-59.57 79.116-64.247 91.342-64.649.342.08.661.238.93.462.447.39.698.956.687 1.546z" fill="#75ACFE"/><rect opacity=".4" x="64.573" y="87.158" width="48.082" height="1.825" rx=".912" fill="#2B69DD"/><path fill-rule="evenodd" clip-rule="evenodd" d="M105.865 79.139c2.359 9.427-3.4 18.974-12.864 21.324-9.463 2.351-19.048-3.386-21.408-12.813-2.36-9.427 3.4-18.974 12.864-21.324 9.464-2.35 19.048 3.386 21.408 12.813z" fill="#FFC246"/><path fill-rule="evenodd" clip-rule="evenodd" d="M95.816 79.159c-.246-2.486-2.384-3.33-5.091-3.576l-.006-3.44-2.135-.009v3.372l-1.661.012-.014-3.38-2.089-.01.006 3.44-4.216.015.047 2.236s1.544-.028 1.517.002a1.114 1.114 0 011.2.918l.085 9.453a.743.743 0 01-.783.7l-1.627.014-.41 2.51 2.728.01 1.499.019-.005 3.442 2.086-.002-.006-3.44 1.703.06.005 3.439 2.1.006-.008-3.496c3.522-.187 5.98-1.073 6.278-4.393.242-2.675-.973-3.887-3.007-4.357a3.258 3.258 0 001.804-3.545zm-2.909 7.467c.005 2.614-4.464 2.255-5.865 2.305l-.008-4.586c1.372-.031 5.818-.447 5.83 2.291l.043-.01zm-.996-6.532c.012 2.371-3.713 2.07-4.883 2.085l-.056-4.185c1.187.004 4.892-.366 4.896 2.11l.043-.01z" fill="#fff"/><rect x="63.886" y="88.526" width="49.456" height="1.825" rx=".912" fill="#2B69DD"/><path fill="#75ACFE" d="M69.153 90.351h36.405v16.421H69.153z"/><rect x="82.204" y="57.737" width="1.832" height="7.07" rx=".916" fill="#2B69DD"/><rect x="87.699" y="52.263" width="1.832" height="10.947" rx=".916" fill="#2B69DD"/><rect x="93.194" y="54.088" width="1.832" height="3.649" rx=".916" fill="#2B69DD"/><g filter="url(#filter0_d)" clip-path="url(#clip0)"><path fill-rule="evenodd" clip-rule="evenodd" d="M88.614 110.649c4.173 0 7.556-3.369 7.556-7.526s-3.383-7.526-7.556-7.526-7.555 3.37-7.555 7.526c0 4.157 3.382 7.526 7.555 7.526z" fill="#098B50"/><path d="M91.164 100.799a.552.552 0 01.797-.028c.228.218.24.586.028.821l-3.95 4.357a.553.553 0 01-.779.045l-1.974-1.743a.593.593 0 01-.061-.819.552.552 0 01.795-.063l1.564 1.38 3.58-3.95z" fill="#fff"/></g><defs><clipPath id="clip0"><path d="M78.54 93.088h20.149v20.07H78.54v-20.07z" fill="#fff"/></clipPath><filter id="filter0_d" x="77.059" y="92.597" width="23.111" height="23.053" filterUnits="userSpaceOnUse" color-interpolation-filters="sRGB"><feFlood flood-opacity="0" result="BackgroundImageFix"/><feColorMatrix in="SourceAlpha" values="0 0 0 0 0 0 0 0 0 0 0 0 0 0 0 0 0 0 127 0"/><feOffset dy="1"/><feGaussianBlur stdDeviation="2"/><feColorMatrix values="0 0 0 0 0.2 0 0 0 0 0.2 0 0 0 0 0.2 0 0 0 0.25 0"/><feBlend in2="BackgroundImageFix" result="effect1_dropShadow"/><feBlend in="SourceGraphic" in2="effect1_dropShadow" result="shape"/></filter></defs></svg>