<svg width="176" height="176" fill="none" xmlns="http://www.w3.org/2000/svg"><path d="M85.392 76.184l-32.984 55.434c-1.159 1.948.29 4.382 2.607 4.382h65.97c2.318 0 3.766-2.434 2.607-4.382L90.607 76.184c-1.159-1.947-4.056-1.947-5.215 0z" fill="#2B69DD"/><g filter="url(#filter0_d)"><path d="M40.953 63.412l-4.107-14.477c-.266-.937-1.507-1.251-2.233-.565L23.392 58.968c-.727.686-.394 1.858.598 2.109l15.328 3.879c.993.25 1.901-.607 1.635-1.544z" fill="#2B69DD"/></g><path d="M88 112.51c-1.842 0-3.362-1.351-3.463-3.079l-.766-13.151C83.638 94 85.57 92.085 88 92.085s4.362 1.916 4.229 4.195l-.766 13.151c-.1 1.728-1.621 3.079-3.463 3.079zm0 15.32c2.339 0 4.235-1.601 4.235-3.575 0-1.974-1.896-3.574-4.235-3.574-2.34 0-4.235 1.6-4.235 3.574 0 1.974 1.896 3.575 4.235 3.575zM88 40c-13.1 0-25.39 3.488-36 9.5L63.398 69A49.889 49.889 0 0188 62.554 49.89 49.89 0 01112.602 69L124 49.449C113.39 43.436 101.101 40 88 40z" fill="#FBAC00"/><path d="M27.117 136c4.386 0 7.942-3.429 7.942-7.66 0-4.23-3.556-7.659-7.942-7.659-4.385 0-7.94 3.429-7.94 7.659 0 4.231 3.555 7.66 7.94 7.66z" fill="#87B645"/><path d="M123.674 50.213L112.353 68.76c14.522 7.833 24.468 22.421 25.021 39.209.027.823.736 1.478 1.607 1.478h19.408c.905 0 1.631-.706 1.611-1.562-.587-24.702-15.06-46.163-36.326-57.672zM148.883 136c4.385 0 7.941-3.429 7.941-7.66 0-4.23-3.556-7.659-7.941-7.659-4.386 0-7.942 3.429-7.942 7.659 0 4.231 3.556 7.66 7.942 7.66z" fill="red"/><path d="M52.326 50.213a72.374 72.374 0 00-11.912 8.067l1.735 6.124c.275.97-.663 1.856-1.688 1.596l-6.474-1.64C23.118 76.016 16.396 91.213 16 107.888c-.02.854.708 1.558 1.611 1.558H37.02c.87 0 1.579-.655 1.606-1.478.553-16.788 10.499-31.376 25.021-39.21l-11.32-18.546z" fill="#87B645"/><defs><filter id="filter0_d" x="12" y="37" width="48" height="47" filterUnits="userSpaceOnUse" color-interpolation-filters="sRGB"><feFlood flood-opacity="0" result="BackgroundImageFix"/><feColorMatrix in="SourceAlpha" values="0 0 0 0 0 0 0 0 0 0 0 0 0 0 0 0 0 0 127 0"/><feOffset dx="4" dy="4"/><feGaussianBlur stdDeviation="7.5"/><feColorMatrix values="0 0 0 0 0 0 0 0 0 0 0 0 0 0 0 0 0 0 0.25 0"/><feBlend in2="BackgroundImageFix" result="effect1_dropShadow"/><feBlend in="SourceGraphic" in2="effect1_dropShadow" result="shape"/></filter></defs></svg>