<svg width="1275" height="814" fill="none" xmlns="http://www.w3.org/2000/svg"><path fill-rule="evenodd" clip-rule="evenodd" d="M1253.06 350.533c-49.21 99.992-409.376 105.65-450.283 73.531-20.625-16.194-61.075-72.35-77.574-144.433-19.689-86.022 8.248-153.867 49.597-183.774C850.797 40.89 1064.97-26.55 1165.27 11.56c100.29 38.11 137 238.981 87.79 338.973z" fill="url(#paint0_linear)"/><path fill-rule="evenodd" clip-rule="evenodd" d="M947.63 652.361C860.41 829.568 222.097 839.62 149.602 782.705 113.05 754.008 41.367 654.494 12.132 526.751c-34.888-152.445 14.63-272.68 87.912-325.682 134.692-97.418 514.268-216.95 692.014-149.42C969.8 119.18 1034.85 475.155 947.63 652.362z" fill="url(#paint1_linear)"/><defs><linearGradient id="paint0_linear" x1="1215.12" y1="387.589" x2="1124.68" y2="230.949" gradientUnits="userSpaceOnUse"><stop stop-color="#07BEAA"/><stop offset="1" stop-color="#22AE0F"/></linearGradient><linearGradient id="paint1_linear" x1="1055.71" y1="714.249" x2="507" y2="342" gradientUnits="userSpaceOnUse"><stop offset="0" stop-color="#0043FF" stop-opacity=".49"/><stop offset="1" stop-color="#39D3EC" stop-opacity=".69"/></linearGradient></defs></svg>