<svg width="696" height="1879" fill="none" xmlns="http://www.w3.org/2000/svg"><g clip-path="url(#clip0)" fill-rule="evenodd" clip-rule="evenodd"><path opacity=".6" d="M1545.22 1793.11s55.1 59.95-634.197 4.98c-330.103-26.32-705.488-282.01-662.29-559.36 27.658-177.57 287.865-401.731 459.955-602.477C829.067 495.83 877.324 340.106 896.171 333.701c120.309-40.885 336.279 51.107 420.659 79.307 131.94 44.098 278.86 414.401 278.86 414.401l-50.47 965.701z" fill="#1BAAD1"/><path d="M1356.46 1548.62s55.1 59.95-634.193 4.98c-330.104-26.32-705.488-282.01-662.29-559.36C87.634 816.669 347.84 592.508 519.932 391.763 640.31 251.339 688.568 95.616 707.415 89.211c120.312-40.886 336.285 51.107 420.655 79.306 131.94 44.099 278.86 414.402 278.86 414.402l-50.47 965.701z" fill="#F8DB73"/></g><defs><clipPath id="clip0"><path d="M0 0h696v1879H0V0z" fill="#fff"/></clipPath></defs></svg>