<svg width="120" height="48" fill="none" xmlns="http://www.w3.org/2000/svg"><g clip-path="url(#clip0)"><path d="M5.55 10.666l22.197-5v32l-22.198 5v-32z" fill="#DE9902"/><path d="M5.55 10.666l22.197-5v32l-22.198 5v-32z" fill="#DE9902"/><path d="M5.55 10.666h33.296v32H5.55v-32z" fill="#FBAC00"/><path d="M5.55 10.666h33.296v32H5.55v-32z" fill="#FBAC00"/><path fill-rule="evenodd" clip-rule="evenodd" d="M22.801 21.733c-1.603 0-2.968.988-3.469 2.366l-.25.686-.69-.298a3.607 3.607 0 00-1.433-.294c-1.934 0-3.501 1.507-3.501 3.365v.41c0 1.859 1.567 3.365 3.501 3.365h11.092c1.541 0 2.79-1.2 2.79-2.681 0-1.482-1.249-2.682-2.79-2.682h-1.577v-.707c0-1.95-1.644-3.53-3.673-3.53zM18.3 23.04c.84-1.567 2.54-2.64 4.501-2.64 2.574 0 4.7 1.848 5.02 4.238h.23c2.307 0 4.178 1.797 4.178 4.015 0 2.217-1.87 4.015-4.178 4.015H16.959c-2.7 0-4.889-2.104-4.889-4.699v-.41c0-2.595 2.19-4.698 4.889-4.698.464 0 .914.062 1.34.179z" fill="#fff"/><path d="M48.913 39.598h1.574v-5.587c0-1.8 1.268-3.087 2.944-3.087s2.719 1.08 2.719 2.916v5.758h1.554v-5.644c0-1.932 1.329-3.03 2.923-3.03 1.717 0 2.74 1.06 2.74 2.954v5.72h1.574v-6.06c0-2.425-1.493-3.94-3.925-3.94-1.84 0-2.965.871-3.721 1.95-.573-1.098-1.677-1.95-3.394-1.95-1.778 0-2.719.89-3.414 1.856v-1.648h-1.574v9.792zM68.4 27.666h1.798v-1.61H68.4v1.61zm.101 11.932h1.575v-9.792H68.5v9.792zm5.228 0h1.574v-5.606c0-1.837 1.35-3.068 3.169-3.068 1.86 0 2.923 1.136 2.923 2.954v5.72h1.575v-6.08c0-2.33-1.493-3.92-4.048-3.92-1.82 0-2.924.852-3.619 1.913v-1.705H73.73v9.792zm12.638-11.932h1.8v-1.61h-1.8v1.61zm.103 11.932h1.574v-9.792H86.47v9.792zm5.227 0h1.574v-5.606c0-1.837 1.35-3.068 3.169-3.068 1.86 0 2.923 1.136 2.923 2.954v5.72h1.575v-6.08c0-2.33-1.493-3.92-4.048-3.92-1.82 0-2.924.852-3.619 1.913v-1.705h-1.574v9.792zm17.279 3.068c1.677 0 3.087-.435 4.028-1.306.858-.796 1.349-1.951 1.349-3.466v-8.088h-1.574v1.762c-.859-1.061-2.147-1.97-4.13-1.97-2.514 0-4.968 1.761-4.968 4.621 0 2.86 2.433 4.622 4.968 4.622 1.942 0 3.23-.928 4.15-2.065v1.155c0 2.292-1.513 3.486-3.843 3.486a7.112 7.112 0 01-4.068-1.25l-.716 1.136c1.411.909 3.046 1.364 4.804 1.364zm-.02-5.113c-1.963 0-3.66-1.364-3.66-3.334 0-2.045 1.656-3.333 3.66-3.333 2.003 0 3.884 1.307 3.884 3.314 0 2.008-1.881 3.353-3.884 3.353zm-55.45-16.545c3.205 0 5.568-2.375 5.568-5.17 0-2.835-2.342-5.171-5.527-5.171-3.205 0-5.547 2.374-5.547 5.17 0 2.835 2.322 5.17 5.506 5.17zm.041-1.322c-2.24 0-3.924-1.723-3.924-3.849 0-2.126 1.582-3.868 3.883-3.868 2.24 0 3.945 1.742 3.945 3.868s-1.603 3.85-3.904 3.85zm8.393 4.156h1.582v-4.96c.822 1.11 2.095 2.107 4.068 2.107 2.568 0 5.074-1.915 5.074-5.152 0-3.294-2.527-5.17-5.074-5.17-1.952 0-3.205 1.014-4.068 2.202v-1.992H61.94v12.965zm5.362-4.175c-1.972 0-3.842-1.532-3.842-3.83s1.87-3.85 3.842-3.85c2.013 0 3.74 1.495 3.74 3.831 0 2.432-1.686 3.85-3.74 3.85zm9.226-3.237h8.424c.02-.229.02-.382.02-.516 0-2.911-1.808-5.248-4.951-5.248-2.938 0-5.095 2.299-5.095 5.171 0 3.084 2.383 5.17 5.3 5.17 2.014 0 3.308-.746 4.376-1.857l-.986-.823c-.863.842-1.89 1.398-3.349 1.398-1.87 0-3.513-1.207-3.739-3.294zm0-1.187c.226-1.915 1.623-3.332 3.452-3.332 2.095 0 3.205 1.532 3.39 3.332h-6.842zm11.214 5.535h1.582V15.11c0-1.858 1.356-3.103 3.184-3.103 1.87 0 2.938 1.15 2.938 2.988v5.783h1.582v-6.147c0-2.356-1.5-3.965-4.068-3.965-1.828 0-2.938.862-3.636 1.935v-1.724h-1.582v9.901z" fill="#333"/></g><defs><clipPath id="clip0"><path d="M0 0h120v48H0V0z" fill="#fff"/></clipPath></defs></svg>