<svg width="336" height="451" fill="none" xmlns="http://www.w3.org/2000/svg"><g clip-path="url(#clip0)"><path opacity=".8" fill-rule="evenodd" clip-rule="evenodd" d="M14.043 106.975C-.293 220.681 69.65 284.745 106.831 304.257c114.403 60.037 46.02 129.69 150.391 139.152 26.146 2.368 72.26-39.507 78.614-41.885 10.506-3.932 5.541-25.739 20.593-57.495 15.051-31.756 18.838-29.322 45.383-28.256 0 0 25.95-8.765 26.771-29.324.82-20.561 81.468-205.6-26.554-230.53-101.491-23.424-124.227-17.275-265.777-48.03C95.233-1.021 28.379-6.73 14.043 106.976z" fill="#F8DB73"/></g><defs><clipPath id="clip0"><path d="M0 0h336v451H0V0z" fill="#fff"/></clipPath></defs></svg>