<svg width="50" height="49" viewBox="0 0 50 49" fill="none" xmlns="http://www.w3.org/2000/svg">
<path d="M47.67 34.8539C45.6899 31.3134 42.8261 28.5686 39.7504 26.0215C39.5012 25.8149 39.2884 25.654 39.0947 25.5474C38.8992 25.4398 38.7131 25.3818 38.5197 25.3935C38.3268 25.4051 38.1465 25.4846 37.96 25.614C37.7749 25.7425 37.5738 25.9271 37.3388 26.1618C36.9339 26.5662 36.5255 26.9709 36.1161 27.3768C35.0886 28.3952 34.0542 29.4206 33.049 30.4644C32.7911 30.7218 32.6185 30.8123 32.4725 30.8123C32.3263 30.8123 32.1535 30.7216 31.8951 30.4636C28.5458 27.1076 25.1894 23.7647 21.8346 20.4234C19.5993 18.1971 17.3647 15.9715 15.1333 13.7432L9.96436 8.58121L9.96445 8.58112L9.96004 8.57706C9.92695 8.54656 9.89097 8.51597 9.8565 8.48677L9.85039 8.48159C9.81731 8.45357 9.78531 8.42646 9.75433 8.39865C9.68749 8.33862 9.63513 8.28367 9.60229 8.23016C9.57114 8.1794 9.56213 8.13774 9.56906 8.09709C9.57643 8.0538 9.60593 7.988 9.69879 7.89903C10.1983 7.43921 10.1969 6.84082 10.1958 6.3133C10.1957 6.28779 10.1956 6.26244 10.1956 6.23729V6.22995V6.2226V6.21526V6.20792V6.20058V6.19324V6.1859V6.17856V6.17123V6.16389V6.15655V6.14921V6.14187V6.13454V6.1272V6.11987V6.11253V6.1052V6.09786V6.09053V6.08319V6.07586V6.06853V6.06119V6.05386V6.04653V6.0392V6.03187V6.02454V6.0172V6.00987V6.00255V5.99522V5.98789V5.98056V5.97323V5.9659V5.95858V5.95125V5.94392V5.93659V5.92927V5.92194V5.91462V5.90729V5.89997V5.89264V5.88532V5.878V5.87067V5.86335V5.85603V5.84871V5.84138V5.83406V5.82674V5.81942V5.8121V5.80478V5.79746V5.79014V5.78282V5.7755V5.76819V5.76087V5.75355V5.74623V5.73891V5.7316V5.72428V5.71697V5.70965V5.70233V5.69502V5.6877V5.68039V5.67307V5.66576V5.65845V5.65113V5.64382V5.63651V5.62919V5.62188V5.61457V5.60726V5.59995V5.59263V5.58532V5.57801V5.5707V5.56339V5.55608V5.54877V5.54146V5.53415V5.52685V5.51954V5.51223V5.50492V5.49761V5.49031V5.483V5.47569V5.46839V5.46108V5.45377V5.44647V5.43916V5.43186V5.42455V5.41725V5.40994V5.40264V5.39533V5.38803V5.38072V5.37342V5.36612V5.35881V5.35151V5.34421V5.33691V5.3296V5.3223V5.315V5.3077V5.3004V5.2931V5.2858V5.27849V5.27119V5.26389V5.25659V5.24929V5.24199V5.2347V5.2274V5.2201V5.2128V5.2055V5.1982V5.1909V5.1836V5.17631V5.16901V5.16171V5.15441V5.14712V5.13982V5.13252V5.12523V5.11793V5.11063V5.10334V5.09604V5.08875V5.08145V5.07416V5.06686V5.05956V5.05227V5.04497V5.03768V5.03039V5.02309V5.0158V5.0085V5.00121V4.99392V4.98662V4.97933V4.97204V4.96474V4.95745V4.95016V4.94286V4.93557V4.92828V4.92099V4.91369V4.9064V4.89911V4.89182V4.88453V4.87723V4.86994V4.86265V4.85536V4.84807V4.84078V4.83349V4.8262V4.8189V4.81161V4.80432V4.79703V4.78974V4.78245V4.77516V4.76787V4.76058V4.75329V4.746V4.73871V4.73142V4.72413V4.71684V4.70955V4.70227V4.69498V4.68769V4.6804V4.67311V4.66582V4.65853V4.65124V4.64395V4.63667V4.62938V4.62209V4.6148V4.60751V4.60022V4.59293V4.58565V4.57836V4.57107V4.56378V4.55649V4.54921V4.54192V4.53463V4.52734V4.52005V4.51277V4.50548V4.49819V4.4909V4.48361V4.47633V4.46904V4.46175V4.45446V4.44718V4.43989V4.4326V4.42531V4.41803V4.41074V4.40345V4.39616V4.38888V4.38159V4.3743V4.36701V4.35973V4.35244V4.34515V4.33786V4.33058V4.32329V4.316V4.30871V4.30143V4.29414V4.28685V4.27956V4.27228V4.26499V4.2577V4.25041V4.24312V4.23584V4.22855V4.22126V4.21397V4.20669V4.1994V4.19211V4.18482V4.17753V4.17025V4.16296V4.15567V4.14838V4.14109V4.1338V4.12652V4.11923V4.11194V4.10465V4.09736V4.09007V4.08278V4.0755V4.06821V4.06092V4.05363V4.04634V4.03905V4.03176V4.02447V4.01718V4.00989V4.0026V3.99531V3.98802V3.98073V3.97344V3.96615V3.95886V3.95157V3.94428V3.93699V3.9297V3.92241V3.91512V3.90783V3.90054V3.89325V3.88596V3.87867V3.87138V3.86408V3.85679V3.8495V3.84221V3.83492V3.82763V3.82033V3.81304V3.80575V3.79846V3.79116V3.78387V3.77658V3.76929V3.76199V3.7547V3.74741V3.74011V3.73282V3.72552V3.71823V3.71094V3.70364V3.69635V3.68905V3.68176V3.67446V3.66717V3.65987V3.65258V3.64528V3.63799V3.63069V3.62339V3.6161V3.6088V3.6015V3.59421V3.58691V3.57961V3.57232V3.56502V3.55772V3.55042V3.54312V3.53583V3.52853V3.52123V3.51393V3.50663V3.49933V3.49203V3.48473V3.47743V3.47013V3.46283V3.45553V3.44823V3.44093V3.43363V3.42633V3.41903V3.41173V3.40442V3.39712V3.38982V3.38252V3.37521V3.36791V3.36061V3.3533V3.346V3.3387V3.33139V3.32409V3.31678V3.30948V3.30217V3.29487V3.28756V3.28025V3.27295V3.26564V3.25834V3.25103V3.24372V3.23641V3.22911V3.2218V3.21449V3.20718V3.19987V3.19256V3.18525V3.17794V3.17063V3.16332V3.15601V3.1487V3.14139V3.13408V3.12677V3.11946V3.11215V3.10483V3.09752V3.09021V3.08289V3.07558V3.06827V3.06095V3.05364V3.04632V3.03901V3.03169V3.02438V3.01706V3.00975V3.00243V2.99511V2.9878V2.98048V2.97316V2.96584V2.95852V2.9512V2.94389V2.93657V2.92925V2.92193V2.91461V2.90728V2.89996V2.89264V2.88532V2.878V2.87068V2.86335V2.85603V2.84871V2.84138V2.83406V2.82673V2.81941V2.81208V2.80476V2.79743V2.79011V2.78278V2.77545V2.76812V2.7608V2.75347V2.74614V2.73881V2.73148V2.72415V2.71682V2.70949V2.70216V2.69483V2.6875V2.68017V2.67283V2.6655V2.65817V2.65083V2.6435V2.63617V2.62883V2.6215V2.61416V2.60683V2.59949V2.59215V2.58482V2.57748V2.57014V2.5628V2.55546V2.54812V2.54078V2.53344V2.5261V2.51876V2.51142V2.50408V2.49674C10.1956 2.44243 10.1967 2.38542 10.1978 2.32667C10.202 2.10192 10.2067 1.85169 10.1542 1.62992C10.1197 1.48441 10.0597 1.34252 9.95556 1.21729C9.8511 1.09169 9.70835 0.990188 9.51938 0.916802L9.5194 0.916768L9.51628 0.915636C9.15855 0.785729 8.86336 0.852283 8.61291 1.00289C8.41017 1.1248 8.23173 1.30597 8.07289 1.46723C8.04532 1.49522 8.01835 1.5226 7.99194 1.54898C7.20636 2.33349 6.41856 3.11816 5.62998 3.9036C4.0504 5.47688 2.46771 7.05327 0.893587 8.63774L0.85 8.68161V8.74346V8.74532V8.74718V8.74904V8.75091V8.75277V8.75463V8.75649V8.75835V8.76021V8.76206V8.76392V8.76578V8.76764V8.7695V8.77135V8.77321V8.77507V8.77692V8.77878V8.78063V8.78249V8.78434V8.78619V8.78805V8.7899V8.79175V8.79361V8.79546V8.79731V8.79916V8.80101V8.80286V8.80471V8.80656V8.80841V8.81026V8.81211V8.81396V8.8158V8.81765V8.8195V8.82134V8.82319V8.82504V8.82688V8.82873V8.83057V8.83242V8.83426V8.8361V8.83795V8.83979V8.84163V8.84348V8.84532V8.84716V8.849V8.85084V8.85268V8.85452V8.85636V8.8582V8.86004V8.86188V8.86372V8.86556V8.8674V8.86924V8.87107V8.87291V8.87475V8.87658V8.87842V8.88026V8.88209V8.88393V8.88576V8.8876V8.88943V8.89127V8.8931V8.89493V8.89677V8.8986V8.90043V8.90227V8.9041V8.90593V8.90776V8.90959V8.91142V8.91326V8.91509V8.91692V8.91875V8.92058V8.9224V8.92423V8.92606V8.92789V8.92972V8.93155V8.93338V8.9352V8.93703V8.93886V8.94069V8.94251V8.94434V8.94616V8.94799V8.94982V8.95164V8.95347V8.95529V8.95712V8.95894V8.96076V8.96259V8.96441V8.96624V8.96806V8.96988V8.9717V8.97353V8.97535V8.97717V8.97899V8.98082V8.98264V8.98446V8.98628V8.9881V8.98992V8.99174V8.99356V8.99538V8.9972V8.99902V9.00084V9.00266V9.00448V9.0063V9.00812V9.00994V9.01175V9.01357V9.01539V9.01721V9.01903V9.02084V9.02266V9.02448V9.0263V9.02811V9.02993V9.03174V9.03356V9.03538V9.03719V9.03901V9.04082V9.04264V9.04446V9.04627V9.04809V9.0499V9.05172V9.05353V9.05534V9.05716V9.05897V9.06079V9.0626V9.06441V9.06623V9.06804V9.06985V9.07167V9.07348V9.07529V9.07711V9.07892V9.08073V9.08255V9.08436V9.08617V9.08798V9.08979V9.09161V9.09342V9.09523V9.09704V9.09885V9.10066V9.10247V9.10429V9.1061V9.10791V9.10972V9.11153V9.11334V9.11515V9.11696V9.11877V9.12058V9.12239V9.1242V9.12601V9.12782V9.12963V9.13144V9.13325V9.13506V9.13687V9.13868V9.14049V9.1423V9.14411V9.14592V9.14773V9.14954V9.15135V9.15315V9.15496V9.15677V9.15858V9.16039V9.1622V9.16401V9.16582V9.16763V9.16943V9.17124V9.17305V9.17486V9.17667V9.17848V9.18028V9.18209V9.1839V9.18571V9.18752V9.18933V9.19113V9.19294V9.19475V9.19656V9.19837V9.20018V9.20198V9.20379V9.2056V9.20741V9.20922V9.21103V9.21283V9.21464V9.21645V9.21826V9.22007V9.22187V9.22368V9.22549V9.2273V9.22911V9.23092V9.23272V9.23453V9.23634V9.23815V9.23996V9.24177V9.24357V9.24538V9.24719V9.249V9.25081V9.25262V9.25443V9.25623V9.25804V9.25985V9.26166V9.26347V9.26528V9.26709V9.2689V9.27071V9.27251V9.27432V9.27613V9.27794V9.27975V9.28156V9.28337V9.28518V9.28699V9.2888V9.29061V9.29242V9.29423V9.29604V9.29785V9.29966V9.30147V9.30328V9.30509V9.3069V9.30871V9.31052V9.31233V9.31414V9.31595V9.31777V9.31958V9.32139V9.3232V9.32501V9.32682V9.32863V9.33045V9.33226V9.33407V9.33588V9.33769V9.33951V9.34132V9.34313V9.34494V9.34676V9.34857V9.35038V9.35219V9.35401V9.35582V9.35764V9.35945V9.36126V9.36308V9.36489V9.36671V9.36852V9.37033V9.37215V9.37396V9.37578V9.37759V9.37941V9.38123V9.38304V9.38486V9.38667V9.38849V9.3903V9.39212V9.39394V9.39575V9.39757V9.39939V9.40121V9.40302V9.40484V9.40666V9.40848V9.4103V9.41211V9.41393V9.41575V9.41757V9.41939V9.42121V9.42303V9.42485V9.42667V9.42849V9.43031V9.43213V9.43395V9.43577V9.43759V9.43941V9.44123V9.44306V9.44488V9.4467V9.44852V9.45035V9.45217V9.45399V9.45581V9.45764V9.45946V9.46129V9.46311V9.46493V9.46676V9.46858V9.47041V9.47223V9.47406V9.47589V9.47771V9.47954V9.48137V9.48319V9.48502V9.48685V9.48867V9.4905V9.49233V9.49416V9.49599V9.49782V9.49965V9.50147V9.5033V9.50513V9.50696V9.50879V9.51063V9.51246V9.51429V9.51612V9.51795V9.51978V9.52162V9.52345V9.52528V9.52712V9.52895V9.53078V9.53262V9.53445V9.53629V9.53812V9.53996V9.54179V9.54363V9.54547V9.5473V9.54914V9.55098V9.55281V9.55465V9.55649V9.55833V9.56017V9.56201V9.56385V9.56569V9.56753V9.56937V9.57121V9.57305V9.57489V9.57673V9.57857V9.58042V9.58226V9.5841V9.58595V9.58779V9.58963V9.59148V9.59332V9.59517V9.59701V9.59886V9.60071V9.60255V9.6044V9.60625V9.60809V9.60994V9.61179V9.61364V9.61549V9.61734V9.61919V9.62104V9.62289V9.62474V9.62659V9.62844V9.6303V9.63215V9.634V9.63586V9.63771V9.63956V9.64142V9.64327V9.64513V9.64698V9.64884V9.6507V9.65255V9.65441V9.65627V9.65813V9.65999V9.66184V9.6637V9.66556V9.66742V9.66928V9.67115V9.67301V9.67487V9.67673V9.67859V9.74078L0.894006 9.78473C1.18333 10.0737 1.556 10.2382 1.98546 10.2586L1.98608 10.2586C3.27837 10.3147 4.58938 10.3708 5.90034 10.4269L5.90033 10.4271H5.90675C5.99722 10.4271 6.09692 10.4357 6.20688 10.4455L6.21359 10.4461C6.31902 10.4555 6.43315 10.4656 6.5442 10.4668C6.76542 10.4692 7.01935 10.4378 7.19621 10.2486L7.19661 10.2481C7.42101 10.0061 7.60518 9.88883 7.75616 9.84362C7.90134 9.80015 8.02928 9.81924 8.15621 9.88119C8.28853 9.94577 8.41866 10.0566 8.55773 10.1966C8.62452 10.2639 8.69097 10.3353 8.75978 10.4093L8.7663 10.4163C8.83679 10.4921 8.90971 10.5703 8.98452 10.6451L9.41527 11.0752L9.84601 11.5054L9.84631 11.5057C11.5599 13.2076 13.2723 14.9095 14.9848 16.6115C20.122 21.7173 25.2595 26.8232 30.4284 31.9291C30.7067 32.2071 30.7994 32.3871 30.7962 32.5348C30.793 32.6828 30.6923 32.8554 30.4132 33.1155C29.2134 34.2317 28.0568 35.4053 26.9081 36.5708C26.7452 36.7362 26.5824 36.9013 26.4197 37.0662C26.208 37.2776 26.0396 37.462 25.9215 37.6345C25.8023 37.8086 25.7281 37.9794 25.7165 38.1627C25.7048 38.3466 25.7572 38.5243 25.8569 38.7102C25.9557 38.8942 26.1054 39.0942 26.299 39.3253L26.2993 39.3256C29.6008 43.2409 33.2584 46.7112 38.4159 48.145L38.4356 48.1505H38.4561H38.4568C39.6367 48.1505 40.8338 48.1505 42.0121 48.1692L42.0348 48.1696L42.0567 48.1631C42.3783 48.0687 42.7179 47.9556 43.0376 47.8429C46.801 46.5332 49.3413 43.0172 49.131 39.3326L49.131 39.3323C49.0355 37.7114 48.4439 36.23 47.67 34.8539ZM47.67 34.8539C47.67 34.8539 47.67 34.8538 47.67 34.8538L47.5392 34.9273L47.6701 34.8541C47.6701 34.854 47.6701 34.854 47.67 34.8539ZM32.0511 34.2727L32.1377 34.3952C33.0514 33.7488 33.6991 33.0825 34.3626 32.1929L34.3637 32.1913C34.899 31.454 35.5375 30.7926 36.2098 30.1445C36.4388 29.9238 36.6726 29.7038 36.9074 29.4829C37.3583 29.0586 37.813 28.6307 38.2452 28.1867L38.2464 28.1855C38.4157 28.0075 38.5347 27.9497 38.6337 27.9468C38.735 27.9438 38.862 27.9965 39.0511 28.1583C41.6517 30.4004 44.1071 32.7617 45.8168 35.768C46.1784 36.4069 46.4838 37.0633 46.7007 37.6579C46.9183 38.2543 47.043 38.778 47.0521 39.1558C47.0514 42.1601 45.273 44.5555 42.875 45.5427L42.8735 45.5433C40.6778 46.4752 38.5517 46.1326 36.4788 45.153L36.4786 45.1529C33.2852 43.651 30.7732 41.2753 28.4752 38.6259C28.319 38.4439 28.2896 38.3274 28.3019 38.2399C28.3155 38.1428 28.3858 38.0329 28.5422 37.8767C28.9198 37.5054 29.2871 37.1148 29.6519 36.7269C29.8668 36.4983 30.0808 36.2707 30.2955 36.0485C30.8788 35.4451 31.4755 34.8728 32.1389 34.3944L32.0511 34.2727ZM32.0511 34.2727C31.1259 34.94 30.3329 35.7834 29.5391 36.6277C29.176 37.0139 28.8128 37.4003 28.4366 37.7701L38.1377 28.0821C37.7076 28.5239 37.2574 28.9476 36.8081 29.3703C35.888 30.2361 34.9721 31.0979 34.2423 32.1032C33.5868 32.9822 32.9501 33.6368 32.0511 34.2727ZM6.58276 8.02637C6.21264 8.3119 5.85452 8.33925 5.48679 8.29527C5.35193 8.27914 5.22097 8.25421 5.0858 8.22849C5.03077 8.21801 4.97504 8.2074 4.91807 8.1972C4.84088 8.18338 4.76232 8.17052 4.68291 8.16077C5.26365 7.58713 5.83393 7.01762 6.39667 6.45564C6.97611 5.87698 7.54753 5.30634 8.11466 4.74686C8.26448 5.38679 8.1879 5.94884 7.95036 6.45661C7.68115 7.03207 7.20042 7.54763 6.58276 8.02637Z" fill="#15A94E" stroke="#15A94E" stroke-width="0.3"/>
<path d="M40.1017 40.49L40.1017 40.49L40.105 40.4887C40.2451 40.4304 40.3513 40.3393 40.4206 40.2197C40.4888 40.102 40.5157 39.9666 40.5157 39.8265C40.5157 39.5497 40.377 39.3285 40.2351 39.1666L40.2353 39.1664L40.2289 39.1599C38.6742 37.5886 37.1194 36.0359 35.5459 34.4833C35.3872 34.3249 35.1976 34.1889 34.9866 34.1479C34.7633 34.1046 34.5411 34.1723 34.3417 34.3714C34.231 34.4819 34.1558 34.5965 34.1175 34.7166C34.0787 34.8382 34.0807 34.9566 34.1109 35.0684C34.1689 35.2828 34.3309 35.4705 34.4907 35.6302C35.0905 36.2479 35.7088 36.8654 36.3263 37.482L36.3269 37.4826C36.786 37.9411 37.2498 38.3996 37.7133 38.8578C38.1768 39.316 38.6401 39.774 39.0986 40.2319L39.0985 40.232L39.1029 40.236C39.2323 40.3553 39.3775 40.4602 39.5449 40.514C39.7168 40.5693 39.902 40.5675 40.1017 40.49Z" fill="#15A94E" stroke="#15A94E" stroke-width="0.3"/>
<path d="M44.4116 43.6796V43.6553L44.404 43.6326C44.404 43.6323 44.4032 43.6291 44.4024 43.6208C44.4016 43.6123 44.4014 43.6078 44.4011 43.602C44.4008 43.5964 44.4004 43.5897 44.3994 43.5769L44.3993 43.5753C44.3972 43.5477 44.3917 43.4756 44.3408 43.4167C43.6597 42.4733 42.8627 41.6395 41.893 40.9749L41.893 40.9749L41.8913 40.9738C41.7339 40.869 41.5611 40.8641 41.4077 40.9204C41.2591 40.9749 41.1296 41.0854 41.0328 41.2143L41.0326 41.2142L41.0279 41.2211C40.8514 41.4856 40.816 41.8221 41.0367 42.0914L41.0367 42.0914L41.0375 42.0925C41.6979 42.8838 42.4169 43.6211 43.2322 44.2649L43.2322 44.2649L43.2343 44.2666C43.7328 44.6458 44.4116 44.2631 44.4116 43.6796Z" fill="#15A94E" stroke="#15A94E" stroke-width="0.3"/>
</svg>
