<svg width="113" height="1014" viewBox="0 0 113 1014" fill="none" xmlns="http://www.w3.org/2000/svg">
<g opacity="0.5">
<path opacity="0.8" d="M46.7785 7.66846C75.6118 45.0018 95.0783 34.9685 38.2783 214.168C-32.7217 438.168 74.2785 476.668 98.7785 453.668C123.278 430.668 109.278 358.168 46.7785 381.168C-15.7215 404.168 21.2785 539.668 46.7785 609.668C72.2785 679.668 89.3191 706.515 61.2783 784.668C49.8895 816.41 11.7339 838.048 4.16797 880.668C-9.85593 959.668 91.7783 976.168 61.2783 1011.17" stroke="#15A94E" stroke-width="4" stroke-linecap="round" stroke-dasharray="10 10"/>
<path d="M46.7785 2.16846C75.6118 39.5018 95.0783 34.9685 38.2783 214.168C-32.7217 438.168 74.2785 476.668 98.7785 453.668C123.278 430.668 109.278 358.168 46.7785 381.168" stroke="#15A94E" stroke-width="4"/>
</g>
</svg>
