<svg width="47" height="60" viewBox="0 0 47 60" fill="none" xmlns="http://www.w3.org/2000/svg">
<path d="M0.796875 1.31079H46.0131V12.4331H0.796875V1.31079Z" fill="#15A94E" stroke="#127D3C"/>
<rect x="6.85742" y="46.012" width="33.0939" height="8.84936" rx="2.5" fill="#15A94E" stroke="#127D3C"/>
<mask id="path-3-inside-1" fill="white">
<path fill-rule="evenodd" clip-rule="evenodd" d="M45.7555 1.56843H1.05452V59.1493H45.7555V1.56843ZM0.296875 0.810791V59.9069H46.5131V0.810791H0.296875Z"/>
<path fill-rule="evenodd" clip-rule="evenodd" d="M39.6943 35.6624H7.11566V40.2082H39.6943V35.6624ZM6.35802 34.9047V40.9659H40.452V34.9047H6.35802Z"/>
<path fill-rule="evenodd" clip-rule="evenodd" d="M39.6943 25.813H7.11566V30.3589H39.6943V25.813ZM6.35802 25.0554V31.1165H40.452V25.0554H6.35802Z"/>
<path fill-rule="evenodd" clip-rule="evenodd" d="M39.6943 16.7213H7.11566V21.2671H39.6943V16.7213ZM6.35802 15.9636V22.0248H40.452V15.9636H6.35802Z"/>
</mask>
<path fill-rule="evenodd" clip-rule="evenodd" d="M45.7555 1.56843H1.05452V59.1493H45.7555V1.56843ZM0.296875 0.810791V59.9069H46.5131V0.810791H0.296875Z" fill="black"/>
<path fill-rule="evenodd" clip-rule="evenodd" d="M39.6943 35.6624H7.11566V40.2082H39.6943V35.6624ZM6.35802 34.9047V40.9659H40.452V34.9047H6.35802Z" fill="black"/>
<path fill-rule="evenodd" clip-rule="evenodd" d="M39.6943 25.813H7.11566V30.3589H39.6943V25.813ZM6.35802 25.0554V31.1165H40.452V25.0554H6.35802Z" fill="black"/>
<path fill-rule="evenodd" clip-rule="evenodd" d="M39.6943 16.7213H7.11566V21.2671H39.6943V16.7213ZM6.35802 15.9636V22.0248H40.452V15.9636H6.35802Z" fill="black"/>
<path d="M1.05452 1.56843V0.568434H0.0545179V1.56843H1.05452ZM45.7555 1.56843H46.7555V0.568434H45.7555V1.56843ZM1.05452 59.1493H0.0545179V60.1493H1.05452V59.1493ZM45.7555 59.1493V60.1493H46.7555V59.1493H45.7555ZM0.296875 0.810791V-0.189209H-0.703125V0.810791H0.296875ZM0.296875 59.9069H-0.703125V60.9069H0.296875V59.9069ZM46.5131 59.9069V60.9069H47.5131V59.9069H46.5131ZM46.5131 0.810791H47.5131V-0.189209H46.5131V0.810791ZM7.11566 35.6624V34.6624H6.11566V35.6624H7.11566ZM39.6943 35.6624H40.6943V34.6624H39.6943V35.6624ZM7.11566 40.2082H6.11566V41.2082H7.11566V40.2082ZM39.6943 40.2082V41.2082H40.6943V40.2082H39.6943ZM6.35802 34.9047V33.9047H5.35802V34.9047H6.35802ZM6.35802 40.9659H5.35802V41.9659H6.35802V40.9659ZM40.452 40.9659V41.9659H41.452V40.9659H40.452ZM40.452 34.9047H41.452V33.9047H40.452V34.9047ZM7.11566 25.813V24.813H6.11566V25.813H7.11566ZM39.6943 25.813H40.6943V24.813H39.6943V25.813ZM7.11566 30.3589H6.11566V31.3589H7.11566V30.3589ZM39.6943 30.3589V31.3589H40.6943V30.3589H39.6943ZM6.35802 25.0554V24.0554H5.35802V25.0554H6.35802ZM6.35802 31.1165H5.35802V32.1165H6.35802V31.1165ZM40.452 31.1165V32.1165H41.452V31.1165H40.452ZM40.452 25.0554H41.452V24.0554H40.452V25.0554ZM7.11566 16.7213V15.7213H6.11566V16.7213H7.11566ZM39.6943 16.7213H40.6943V15.7213H39.6943V16.7213ZM7.11566 21.2671H6.11566V22.2671H7.11566V21.2671ZM39.6943 21.2671V22.2671H40.6943V21.2671H39.6943ZM6.35802 15.9636V14.9636H5.35802V15.9636H6.35802ZM6.35802 22.0248H5.35802V23.0248H6.35802V22.0248ZM40.452 22.0248V23.0248H41.452V22.0248H40.452ZM40.452 15.9636H41.452V14.9636H40.452V15.9636ZM1.05452 2.56843H45.7555V0.568434H1.05452V2.56843ZM2.05452 59.1493V1.56843H0.0545179V59.1493H2.05452ZM45.7555 58.1493H1.05452V60.1493H45.7555V58.1493ZM44.7555 1.56843V59.1493H46.7555V1.56843H44.7555ZM0.296875 1.81079H46.5131V-0.189209H0.296875V1.81079ZM1.29688 59.9069V0.810791H-0.703125V59.9069H1.29688ZM46.5131 58.9069H0.296875V60.9069H46.5131V58.9069ZM45.5131 0.810791V59.9069H47.5131V0.810791H45.5131ZM7.11566 36.6624H39.6943V34.6624H7.11566V36.6624ZM8.11566 40.2082V35.6624H6.11566V40.2082H8.11566ZM39.6943 39.2082H7.11566V41.2082H39.6943V39.2082ZM38.6943 35.6624V40.2082H40.6943V35.6624H38.6943ZM6.35802 35.9047H40.452V33.9047H6.35802V35.9047ZM7.35802 40.9659V34.9047H5.35802V40.9659H7.35802ZM40.452 39.9659H6.35802V41.9659H40.452V39.9659ZM39.452 34.9047V40.9659H41.452V34.9047H39.452ZM7.11566 26.813H39.6943V24.813H7.11566V26.813ZM8.11566 30.3589V25.813H6.11566V30.3589H8.11566ZM39.6943 29.3589H7.11566V31.3589H39.6943V29.3589ZM38.6943 25.813V30.3589H40.6943V25.813H38.6943ZM6.35802 26.0554H40.452V24.0554H6.35802V26.0554ZM7.35802 31.1165V25.0554H5.35802V31.1165H7.35802ZM40.452 30.1165H6.35802V32.1165H40.452V30.1165ZM39.452 25.0554V31.1165H41.452V25.0554H39.452ZM7.11566 17.7213H39.6943V15.7213H7.11566V17.7213ZM8.11566 21.2671V16.7213H6.11566V21.2671H8.11566ZM39.6943 20.2671H7.11566V22.2671H39.6943V20.2671ZM38.6943 16.7213V21.2671H40.6943V16.7213H38.6943ZM6.35802 16.9636H40.452V14.9636H6.35802V16.9636ZM7.35802 22.0248V15.9636H5.35802V22.0248H7.35802ZM40.452 21.0248H6.35802V23.0248H40.452V21.0248ZM39.452 15.9636V22.0248H41.452V15.9636H39.452Z" fill="#127D3C" mask="url(#path-3-inside-1)"/>
</svg>
