<svg width="52" height="58" viewBox="0 0 52 58" fill="none" xmlns="http://www.w3.org/2000/svg">
<g clip-path="url(#clip0)">
<path d="M25.5481 0.0229706C31.5347 -0.0455334 36.9876 0.274152 42.3245 1.82691C44.3433 2.42061 46.246 3.24266 47.9631 4.43006C51.1188 6.62218 52.163 9.75053 51.9773 13.4041C51.7453 17.971 51.3044 22.4923 50.1906 26.9679C47.6614 37.1293 42.9278 46.0119 35.0617 53.1592C33.5766 54.5064 31.9059 55.6025 30.2121 56.6757C27.1723 58.6395 24.2951 58.297 21.3482 56.4017C15.6864 52.7482 11.3937 47.8844 7.9827 42.2214C3.38832 34.5718 1.02152 26.2371 0.278994 17.4458C0.0933629 15.2308 -0.185084 12.993 0.139771 10.7324C0.557441 7.80958 2.0889 5.66313 4.54852 4.08754C8.09872 1.84974 12.113 1.05053 16.1969 0.502498C19.4454 0.0686399 22.7404 -0.068368 25.5481 0.0229706ZM25.8729 1.89541C22.9492 2.05525 19.9095 2.07809 16.8698 2.39777C13.7141 2.74029 10.6047 3.33399 7.65784 4.61273C3.99162 6.21116 1.85686 8.7458 2.1121 12.9245C2.25133 15.1167 2.32094 17.3316 2.57618 19.5238C3.62036 28.886 6.61367 37.5403 12.2522 45.2356C15.1759 49.2088 18.6101 52.6568 22.9956 55.1458C25.1768 56.3789 27.1259 56.219 29.2143 55.0316C34.1567 52.2001 37.8926 48.1812 40.9555 43.5458C47.383 33.8639 49.9122 23.1088 49.8658 11.6686C49.8658 9.24817 48.7288 7.37573 46.7565 5.95998C44.8305 4.5899 42.6726 3.85919 40.3986 3.28832C35.665 2.14659 30.8154 2.12376 25.8729 1.89541Z" fill="#15A94E"/>
<path d="M48.0775 15.9383C47.6598 26.1225 44.2953 37.0603 36.4523 46.4454C33.9695 49.4139 31.1618 51.9714 27.7277 53.8666C26.4747 54.5745 25.3609 54.506 24.1311 53.821C20.3024 51.6517 17.2859 48.6375 14.5942 45.258C8.23637 37.243 5.08064 28.0407 4.10607 18.0162C3.92044 16.0753 3.96685 14.1344 3.87403 12.2162C3.78122 10.3666 4.63976 8.99656 6.00879 7.87766C8.3988 5.89105 11.2993 5.04617 14.2926 4.58948C22.878 3.24223 31.4403 3.17373 39.9561 5.09184C40.7915 5.27451 41.5804 5.54853 42.3694 5.86822C46.9405 7.60365 48.1239 9.36192 48.0775 15.9383ZM26.3586 5.54853C22.7156 5.61703 19.235 5.75404 15.8008 6.27924C13.0396 6.7131 10.3247 7.32963 7.93472 8.83672C6.51928 9.70444 5.75355 10.9147 5.86957 12.6273C5.93918 13.7233 5.98559 14.8194 6.0552 15.9383C6.61209 25.3233 9.14132 34.069 14.5246 41.9013C17.1235 45.6918 20.2096 49.0029 24.1079 51.5375C25.3377 52.3367 26.405 52.4737 27.7277 51.6517C30.8834 49.6879 33.5054 47.1761 35.7562 44.2989C43.2279 34.8225 46.0356 23.8619 46.1748 12.0564C46.198 10.7092 45.4787 9.7501 44.4113 9.0194C43.1583 8.15168 41.766 7.60365 40.3274 7.16979C35.6866 5.84538 30.9298 5.73121 26.3586 5.54853Z" fill="#15A94E"/>
<path d="M21.1388 22.926C21.9974 22.9032 22.5543 23.4512 23.1112 23.9992C25.0835 25.9402 25.0835 25.9402 27.0558 23.9992C28.4481 22.6291 29.8403 21.2362 31.2325 19.889C32.3463 18.8158 33.3209 18.7701 34.4811 19.7977C35.2236 20.4599 35.9429 21.1677 36.6158 21.8984C37.6136 22.9945 37.6832 24.0221 36.6622 25.0496C33.3441 28.3835 29.9795 31.6945 26.5685 34.9827C25.6868 35.8276 24.4338 35.8047 23.5288 34.9599C21.4637 32.9961 19.4449 31.0323 17.4494 29C16.3588 27.8811 16.4516 26.7851 17.519 25.689C18.1919 25.0039 18.888 24.3417 19.561 23.6795C20.025 23.1772 20.5355 22.9717 21.1388 22.926ZM35.1308 23.4969C34.9684 22.9717 34.4811 22.6976 34.1098 22.3095C32.764 21.0079 33.0888 20.848 31.5806 22.3323C30.1884 23.7024 28.7961 25.0725 27.4039 26.4425C24.9907 28.8173 25.2459 28.9087 22.7631 26.4654C20.8836 24.6158 21.4405 24.6614 19.4681 26.511C18.8648 27.0591 18.9113 27.4701 19.4681 28.0181C21.162 29.6394 22.8095 31.2835 24.457 32.9504C24.9211 33.4299 25.2691 33.5213 25.7796 32.9961C28.7265 30.0504 31.7198 27.1276 34.7131 24.1819C34.8987 23.9992 35.1076 23.8165 35.1308 23.4969Z" fill="#15A94E"/>
</g>
<defs>
<clipPath id="clip0">
<rect width="52" height="58" fill="white"/>
</clipPath>
</defs>
</svg>
