<svg width="1013" height="112" viewBox="0 0 1013 112" fill="none" xmlns="http://www.w3.org/2000/svg">
<g opacity="0.5">
<path opacity="0.8" d="M7.5 65.3895C44.8333 36.5562 34.8 17.0897 214 73.8897C438 144.89 476.5 37.8895 453.5 13.3895C430.5 -11.1105 358 2.88951 381 65.3895C404 127.89 539.5 90.8895 609.5 65.3895C679.5 39.8895 706.347 22.8488 784.5 50.8896C816.242 62.2785 837.879 100.434 880.5 108C959.5 122.024 976 20.3896 1011 50.8896" stroke="#15A94E" stroke-width="4" stroke-linecap="round" stroke-dasharray="10 10"/>
<path d="M2 65.3895C39.3333 36.5562 34.8 17.0897 214 73.8897C438 144.89 476.5 37.8895 453.5 13.3895C430.5 -11.1105 358 2.88951 381 65.3895" stroke="#15A94E" stroke-width="4"/>
</g>
</svg>
