<svg width="60" height="60" viewBox="0 0 60 60" fill="none" xmlns="http://www.w3.org/2000/svg">
<path d="M26.25 3.75C24.2625 3.75 23.5406 5.19375 23.0719 6.14063C22.6031 7.0875 22.3219 7.5 21.5625 7.5H15.9375C15.1916 7.5 14.4762 7.79632 13.9488 8.32376C13.4213 8.85121 13.125 9.56658 13.125 10.3125V57.1875C13.125 57.9334 13.4213 58.6488 13.9488 59.1762C14.4762 59.7037 15.1916 60 15.9375 60H44.0625C44.8084 60 45.5238 59.7037 46.0512 59.1762C46.5787 58.6488 46.875 57.9334 46.875 57.1875V45C46.875 44.7514 46.7762 44.5129 46.6004 44.3371C46.4246 44.1613 46.1861 44.0625 45.9375 44.0625C45.6889 44.0625 45.4504 44.1613 45.2746 44.3371C45.0988 44.5129 45 44.7514 45 45V57.1875C45 57.4361 44.9012 57.6746 44.7254 57.8504C44.5496 58.0262 44.3111 58.125 44.0625 58.125H15.9375C15.6889 58.125 15.4504 58.0262 15.2746 57.8504C15.0988 57.6746 15 57.4361 15 57.1875V10.3125C15 10.0639 15.0988 9.8254 15.2746 9.64959C15.4504 9.47377 15.6889 9.375 15.9375 9.375H25.7812V10.7812H17.8125C17.4395 10.7813 17.0819 10.9294 16.8181 11.1931C16.5544 11.4569 16.4062 11.8145 16.4062 12.1875V54.375C16.4062 54.748 16.5544 55.1056 16.8181 55.3694C17.0819 55.6331 17.4395 55.7812 17.8125 55.7812H42.1875C42.5605 55.7812 42.9181 55.6331 43.1819 55.3694C43.4456 55.1056 43.5938 54.748 43.5938 54.375V45C43.5938 44.8757 43.5444 44.7565 43.4565 44.6685C43.3685 44.5806 43.2493 44.5312 43.125 44.5312C43.0007 44.5312 42.8815 44.5806 42.7935 44.6685C42.7056 44.7565 42.6562 44.8757 42.6562 45V46.875C42.7008 47.2901 42.6524 47.7098 42.5146 48.1039C42.3768 48.4979 42.1529 48.8563 41.8594 49.1531C41.4946 49.3783 41.086 49.5231 40.6609 49.5781C40.2358 49.6331 39.8038 49.5969 39.3938 49.4719C39.2494 49.4409 39.099 49.4539 38.9621 49.509C38.8251 49.5641 38.7077 49.6589 38.625 49.7812C38.5408 49.9076 38.4958 50.056 38.4958 50.2078C38.4958 50.3596 38.5408 50.5081 38.625 50.6344C38.8531 50.9566 38.9826 51.3382 38.9976 51.7328C39.0126 52.1273 38.9124 52.5177 38.7094 52.8563C38.3824 53.4021 37.9341 53.8653 37.3992 54.21C36.8643 54.5547 36.2572 54.7715 35.625 54.8438H17.8125C17.6882 54.8438 17.569 54.7944 17.481 54.7065C17.3931 54.6185 17.3438 54.4993 17.3438 54.375V12.1875C17.3438 12.0632 17.3931 11.944 17.481 11.856C17.569 11.7681 17.6882 11.7188 17.8125 11.7188H25.8656C25.9119 11.8347 25.9717 11.9449 26.0438 12.0469L26.0906 12.1031C26.16 12.1927 26.2421 12.2717 26.3344 12.3375V12.3375C26.4409 12.405 26.554 12.4615 26.6719 12.5063H26.7469C26.8743 12.547 27.0069 12.5691 27.1406 12.5719H32.7656C32.8994 12.5691 33.032 12.547 33.1594 12.5063H33.2344C33.3523 12.4615 33.4653 12.405 33.5719 12.3375C33.6641 12.2717 33.7462 12.1927 33.8156 12.1031L33.8625 12.0469C33.9345 11.9449 33.9943 11.8347 34.0406 11.7188V11.7188H42.1875C42.3118 11.7188 42.431 11.7681 42.519 11.856C42.6069 11.944 42.6562 12.0632 42.6562 12.1875V32.8125C42.6562 32.9368 42.7056 33.056 42.7935 33.144C42.8815 33.2319 43.0007 33.2812 43.125 33.2812C43.2493 33.2812 43.3685 33.2319 43.4565 33.144C43.5444 33.056 43.5938 32.9368 43.5938 32.8125V12.1875C43.5938 11.8145 43.4456 11.4569 43.1819 11.1931C42.9181 10.9294 42.5605 10.7813 42.1875 10.7812H34.2188V9.375H44.0625C44.3111 9.375 44.5496 9.47377 44.7254 9.64959C44.9012 9.8254 45 10.0639 45 10.3125V25.3125C45 25.5611 45.0988 25.7996 45.2746 25.9754C45.4504 26.1512 45.6889 26.25 45.9375 26.25C46.1861 26.25 46.4246 26.1512 46.6004 25.9754C46.7762 25.7996 46.875 25.5611 46.875 25.3125V10.3125C46.875 9.56658 46.5787 8.85121 46.0512 8.32376C45.5238 7.79632 44.8084 7.5 44.0625 7.5H38.4375C37.6781 7.5 37.4344 7.14375 36.9281 6.14063C36.4219 5.1375 35.7375 3.75 33.75 3.75H32.6437C32.7529 3.44937 32.81 3.13232 32.8125 2.8125C32.8125 2.06658 32.5162 1.35121 31.9887 0.823762C31.4613 0.296316 30.7459 0 30 0C29.2541 0 28.5387 0.296316 28.0113 0.823762C27.4838 1.35121 27.1875 2.06658 27.1875 2.8125C27.19 3.13232 27.2471 3.44937 27.3563 3.75H26.25ZM39.5156 53.3063C39.7619 52.881 39.8978 52.4008 39.9109 51.9095C39.924 51.4183 39.8139 50.9316 39.5906 50.4938C40.0821 50.5993 40.5902 50.6013 41.0825 50.4996C41.5748 50.3979 42.0406 50.1948 42.45 49.9031L42.6562 49.6875V54.375C42.6562 54.4993 42.6069 54.6185 42.519 54.7065C42.431 54.7944 42.3118 54.8438 42.1875 54.8438H38.1094C38.6833 54.4384 39.1629 53.9139 39.5156 53.3063ZM33.2812 11.25C33.2812 11.3743 33.2319 11.4935 33.144 11.5815C33.056 11.6694 32.9368 11.7188 32.8125 11.7188H27.1875C27.0632 11.7188 26.944 11.6694 26.856 11.5815C26.7681 11.4935 26.7188 11.3743 26.7188 11.25V9.375H33.2812V11.25ZM35.2594 6.98437C35.3344 7.14375 35.4281 7.32188 35.5219 7.5H24.4781C24.5719 7.32188 24.6656 7.14375 24.7406 6.98437C25.2469 5.98125 25.4906 5.625 26.25 5.625H33.75C34.5094 5.625 34.7531 5.98125 35.2594 6.98437ZM29.0625 2.8125C29.0625 2.62708 29.1175 2.44582 29.2205 2.29165C29.3235 2.13748 29.4699 2.01732 29.6412 1.94636C29.8125 1.87541 30.001 1.85684 30.1829 1.89301C30.3648 1.92919 30.5318 2.01848 30.6629 2.14959C30.794 2.2807 30.8833 2.44775 30.9195 2.6296C30.9557 2.81146 30.9371 2.99996 30.8661 3.17127C30.7952 3.34257 30.675 3.48899 30.5208 3.592C30.3667 3.69502 30.1854 3.75 30 3.75C29.7514 3.75 29.5129 3.65123 29.3371 3.47541C29.1613 3.2996 29.0625 3.06114 29.0625 2.8125Z" fill="#15A94E"/>
<path d="M22.5 37.9688H30C30.6216 37.9688 31.2177 37.7218 31.6573 37.2823C32.0968 36.8427 32.3438 36.2466 32.3438 35.625V16.875C32.3438 16.2534 32.0968 15.6573 31.6573 15.2177C31.2177 14.7782 30.6216 14.5312 30 14.5312H22.5C21.8784 14.5312 21.2823 14.7782 20.8427 15.2177C20.4032 15.6573 20.1562 16.2534 20.1562 16.875V17.9531C20.0159 18.0341 19.899 18.1501 19.8168 18.2898C19.7347 18.4294 19.6901 18.588 19.6875 18.75V20.625C19.6901 20.787 19.7347 20.9456 19.8168 21.0852C19.899 21.2249 20.0159 21.3409 20.1562 21.4219V35.625C20.1563 36.2466 20.4032 36.8427 20.8427 37.2823C21.2823 37.7218 21.8784 37.9688 22.5 37.9688ZM30 37.0312H22.5C22.127 37.0312 21.7694 36.8831 21.5056 36.6194C21.2419 36.3556 21.0938 35.998 21.0938 35.625V18.0937H22.0312C22.3406 18.0937 22.4813 18.225 22.7438 18.5062C22.9078 18.7227 23.1186 18.8992 23.3605 19.0226C23.6024 19.146 23.8691 19.2131 24.1406 19.2188H28.3594C28.6309 19.2131 28.8976 19.146 29.1395 19.0226C29.3814 18.8992 29.5922 18.7227 29.7562 18.5062C30.0187 18.225 30.1594 18.0937 30.4688 18.0937H31.4062V35.625C31.4062 35.998 31.2581 36.3556 30.9944 36.6194C30.7306 36.8831 30.373 37.0312 30 37.0312ZM21.0938 16.875C21.0938 16.502 21.2419 16.1444 21.5056 15.8806C21.7694 15.6169 22.127 15.4688 22.5 15.4688H30C30.373 15.4688 30.7306 15.6169 30.9944 15.8806C31.2581 16.1444 31.4062 16.502 31.4062 16.875V17.1562H30.4688C30.1972 17.1619 29.9306 17.229 29.6886 17.3524C29.4467 17.4758 29.2359 17.6523 29.0719 17.8687C28.8094 18.15 28.6688 18.2812 28.3594 18.2812H24.1406C23.8312 18.2812 23.6906 18.15 23.4281 17.8687C23.2641 17.6523 23.0533 17.4758 22.8114 17.3524C22.5694 17.229 22.3028 17.1619 22.0312 17.1562H21.0938V16.875Z" fill="#15A94E"/>
<path d="M37.0312 47.8125C37.0312 47.6882 36.9819 47.569 36.894 47.481C36.806 47.3931 36.6868 47.3438 36.5625 47.3438H21.5625C21.4382 47.3438 21.319 47.3931 21.231 47.481C21.1431 47.569 21.0938 47.6882 21.0938 47.8125C21.0938 47.9368 21.1431 48.056 21.231 48.144C21.319 48.2319 21.4382 48.2812 21.5625 48.2812H36.5625C36.6868 48.2812 36.806 48.2319 36.894 48.144C36.9819 48.056 37.0312 47.9368 37.0312 47.8125Z" fill="#15A94E"/>
<path d="M38.0812 39.5812C37.8869 39.4279 37.6399 39.3576 37.394 39.3857C37.1482 39.4138 36.9234 39.538 36.7687 39.7312L33.6749 43.5937L32.5406 42.4593C32.4531 42.3719 32.3494 42.3025 32.2352 42.2552C32.121 42.2079 31.9985 42.1836 31.8749 42.1836C31.7513 42.1836 31.6289 42.2079 31.5147 42.2552C31.4005 42.3025 31.2967 42.3719 31.2093 42.4593C31.1219 42.5467 31.0526 42.6505 31.0053 42.7647C30.9579 42.8789 30.9336 43.0013 30.9336 43.1249C30.9336 43.2485 30.9579 43.3709 31.0053 43.4851C31.0526 43.5993 31.1219 43.7031 31.2093 43.7905L33.0843 45.6655C33.1719 45.7524 33.2758 45.8212 33.39 45.8678C33.5042 45.9145 33.6266 45.9381 33.7499 45.9374H33.8062C33.9374 45.9287 34.0653 45.8925 34.1816 45.8311C34.2979 45.7697 34.3999 45.6846 34.4812 45.5812L38.2312 40.8937C38.3845 40.6994 38.4547 40.4524 38.4266 40.2065C38.3985 39.9606 38.2744 39.7358 38.0812 39.5812Z" fill="#15A94E"/>
<path d="M35.625 15.4688H37.5C37.6243 15.4688 37.7435 15.4194 37.8315 15.3315C37.9194 15.2435 37.9688 15.1243 37.9688 15C37.9688 14.8757 37.9194 14.7565 37.8315 14.6685C37.7435 14.5806 37.6243 14.5312 37.5 14.5312H35.625C35.5007 14.5312 35.3815 14.5806 35.2935 14.6685C35.2056 14.7565 35.1562 14.8757 35.1562 15C35.1562 15.1243 35.2056 15.2435 35.2935 15.3315C35.3815 15.4194 35.5007 15.4688 35.625 15.4688Z" fill="#15A94E"/>
<path d="M35.625 19.2188H40.3125C40.4368 19.2188 40.556 19.1694 40.644 19.0815C40.7319 18.9935 40.7812 18.8743 40.7812 18.75C40.7812 18.6257 40.7319 18.5065 40.644 18.4185C40.556 18.3306 40.4368 18.2812 40.3125 18.2812H35.625C35.5007 18.2812 35.3815 18.3306 35.2935 18.4185C35.2056 18.5065 35.1562 18.6257 35.1562 18.75C35.1562 18.8743 35.2056 18.9935 35.2935 19.0815C35.3815 19.1694 35.5007 19.2188 35.625 19.2188Z" fill="#15A94E"/>
<path d="M35.625 22.9688H37.5C37.6243 22.9688 37.7435 22.9194 37.8315 22.8315C37.9194 22.7435 37.9688 22.6243 37.9688 22.5C37.9688 22.3757 37.9194 22.2565 37.8315 22.1685C37.7435 22.0806 37.6243 22.0312 37.5 22.0312H35.625C35.5007 22.0312 35.3815 22.0806 35.2935 22.1685C35.2056 22.2565 35.1562 22.3757 35.1562 22.5C35.1562 22.6243 35.2056 22.7435 35.2935 22.8315C35.3815 22.9194 35.5007 22.9688 35.625 22.9688Z" fill="#15A94E"/>
<path d="M40.7812 26.25C40.7812 26.1257 40.7319 26.0065 40.644 25.9185C40.556 25.8306 40.4368 25.7812 40.3125 25.7812H35.625C35.5007 25.7812 35.3815 25.8306 35.2935 25.9185C35.2056 26.0065 35.1562 26.1257 35.1562 26.25C35.1562 26.3743 35.2056 26.4935 35.2935 26.5815C35.3815 26.6694 35.5007 26.7188 35.625 26.7188H40.3125C40.4368 26.7188 40.556 26.6694 40.644 26.5815C40.7319 26.4935 40.7812 26.3743 40.7812 26.25Z" fill="#15A94E"/>
<path d="M38.9062 30C38.9062 29.8757 38.8569 29.7565 38.769 29.6685C38.681 29.5806 38.5618 29.5312 38.4375 29.5312H35.625C35.5007 29.5312 35.3815 29.5806 35.2935 29.6685C35.2056 29.7565 35.1562 29.8757 35.1562 30C35.1562 30.1243 35.2056 30.2435 35.2935 30.3315C35.3815 30.4194 35.5007 30.4688 35.625 30.4688H38.4375C38.5618 30.4688 38.681 30.4194 38.769 30.3315C38.8569 30.2435 38.9062 30.1243 38.9062 30Z" fill="#15A94E"/>
<path d="M21.5625 51.0938C21.4382 51.0938 21.319 51.1431 21.231 51.231C21.1431 51.319 21.0938 51.4382 21.0938 51.5625C21.0938 51.6868 21.1431 51.806 21.231 51.894C21.319 51.9819 21.4382 52.0312 21.5625 52.0312H31.875C31.9993 52.0312 32.1185 51.9819 32.2065 51.894C32.2944 51.806 32.3438 51.6868 32.3438 51.5625C32.3438 51.4382 32.2944 51.319 32.2065 51.231C32.1185 51.1431 31.9993 51.0938 31.875 51.0938H21.5625Z" fill="#15A94E"/>
<path d="M41.9156 37.1719C41.4484 37.6418 41.1622 38.2615 41.1073 38.9218C41.0524 39.5822 41.2324 40.2407 41.6156 40.7813L40.9219 41.475C40.8779 41.5186 40.843 41.5704 40.8193 41.6275C40.7955 41.6847 40.7832 41.7459 40.7832 41.8078C40.7832 41.8697 40.7955 41.931 40.8193 41.9881C40.843 42.0452 40.8779 42.0971 40.9219 42.1406C40.9639 42.1855 41.0148 42.2212 41.0712 42.2456C41.1276 42.2701 41.1885 42.2827 41.25 42.2827C41.3115 42.2827 41.3723 42.2701 41.4288 42.2456C41.4852 42.2212 41.536 42.1855 41.5781 42.1406L42.2812 41.4469C42.7545 41.7854 43.3212 41.9689 43.9031 41.9719C44.2802 41.9778 44.6546 41.9078 45.0041 41.7661C45.3536 41.6243 45.671 41.4138 45.9375 41.1469L47.2594 39.825L57.825 29.2125C58.3517 28.6852 58.6475 27.9703 58.6475 27.225C58.6475 26.4797 58.3517 25.7648 57.825 25.2375V25.2375C57.3328 24.7498 56.6779 24.461 55.9859 24.4264C55.2938 24.3918 54.6134 24.6138 54.075 25.05C53.6769 24.8985 53.2511 24.8336 52.826 24.8595C52.4009 24.8853 51.9861 25.0014 51.6094 25.2C49.8828 26.0994 48.3303 27.2994 47.025 28.7438C46.9385 28.833 46.8901 28.9523 46.8901 29.0766C46.8901 29.2008 46.9385 29.3202 47.025 29.4094C47.1153 29.4937 47.2342 29.5407 47.3578 29.5407C47.4814 29.5407 47.6003 29.4937 47.6906 29.4094C50.8031 26.2969 52.3781 25.7063 53.3156 25.7906L43.2375 35.8406L41.9156 37.1719ZM44.5687 39.825C44.4813 39.9124 44.3775 39.9817 44.2633 40.0291C44.1491 40.0764 44.0267 40.1007 43.9031 40.1007C43.7795 40.1007 43.6571 40.0764 43.5429 40.0291C43.4287 39.9817 43.3249 39.9124 43.2375 39.825C43.1501 39.7376 43.0807 39.6338 43.0334 39.5196C42.9861 39.4054 42.9618 39.283 42.9618 39.1594C42.9618 39.0358 42.9861 38.9133 43.0334 38.7991C43.0807 38.6849 43.1501 38.5812 43.2375 38.4938L43.9031 37.8281L45.225 39.1594L44.5687 39.825ZM55.1719 26.5594C55.3475 26.3848 55.5851 26.2868 55.8328 26.2868C56.0805 26.2868 56.3181 26.3848 56.4937 26.5594C56.5816 26.6465 56.6514 26.7502 56.6989 26.8645C56.7465 26.9787 56.771 27.1012 56.771 27.225C56.771 27.3488 56.7465 27.4713 56.6989 27.5855C56.6514 27.6998 56.5816 27.8035 56.4937 27.8906L46.5562 37.8281L45.225 36.5062L55.1719 26.5594Z" fill="#15A94E"/>
</svg>
