<svg width="50" height="53" viewBox="0 0 50 53" fill="none" xmlns="http://www.w3.org/2000/svg">
<mask id="path-1-outside-1" maskUnits="userSpaceOnUse" x="0" y="-0.0142822" width="50" height="53" fill="black">
<rect fill="white" y="-0.0142822" width="50" height="53"/>
<path d="M44.5056 52C33.1957 52 21.9102 52 10.6003 52C7.88884 52 5.17739 51.9516 2.46594 52C1.34228 52.0243 1.00029 51.5882 1.00029 50.4979C0.951437 41.0974 7.03388 32.0604 15.8766 28.4746C17.1469 27.9658 17.1469 27.9658 16.2186 26.8998C14.582 24.9858 13.5072 22.781 13.0675 20.3098C12.9209 19.486 12.5545 19.1953 11.7728 19.268C10.6491 19.3891 10.2339 18.8803 10.2827 17.7901C10.3316 16.6513 10.2827 15.5368 10.2827 14.3981C10.2827 13.9378 10.2827 13.3806 10.8201 13.2836C11.7972 13.114 11.9438 12.3872 12.1881 11.6604C13.3117 8.41381 15.0949 5.62758 18.0507 3.68934C18.2461 3.54397 18.5392 3.42283 18.5148 3.15632C18.3194 1.82378 19.3209 1.82378 20.1759 1.5815C23.2782 0.685066 26.356 0.854662 29.4339 1.72687C30.0201 1.89647 30.5087 2.11452 30.4598 2.84136C30.4354 3.25324 30.6797 3.51975 30.9972 3.7378C33.9774 5.79718 35.614 8.753 36.7133 12.0965C36.8354 12.4841 36.8598 12.9687 37.3484 13.0656C38.4965 13.3079 38.4965 14.1316 38.472 15.0038C38.4476 16.0214 38.4476 17.0148 38.4476 18.0323C38.4476 18.8803 38.0568 19.3649 37.1774 19.2437C36.0537 19.0984 35.7117 19.6798 35.5407 20.649C35.1255 22.9264 34.1728 24.9615 32.6339 26.6817C31.8766 27.5055 32.1209 27.772 33.0491 28.1112C40.5728 30.9459 45.4827 36.276 47.9255 43.8352C48.6339 46.0399 48.927 48.3174 48.9759 50.619C49.0003 51.5397 48.6095 51.9516 47.6812 51.9273C46.6308 51.9516 45.5804 51.9758 44.5056 52ZM24.4507 50.8613C29.043 50.8613 33.6354 50.8129 38.2033 50.8855C39.3759 50.9098 39.6446 50.4737 39.6201 49.4076C39.5713 44.7316 39.498 40.0314 39.6446 35.3796C39.7178 33.514 39.0094 32.4238 37.4949 31.6243C37.3484 31.5516 37.2018 31.4789 37.0797 31.382C36.298 30.8247 36.0537 31.0912 36.0537 31.9634C36.0782 34.4347 36.0537 36.8817 36.0537 39.353C36.0537 40.9036 35.9072 41.049 34.3927 41.049C27.7972 41.049 21.2018 41.049 14.6308 41.049C13.1896 41.049 13.0186 40.8794 13.0186 39.4257C13.0186 37.0756 13.0186 34.7497 12.9942 32.3996C12.9942 32.0846 13.2385 31.4547 12.4812 31.6243C11.1133 31.9392 9.4522 34.0228 9.4522 35.4281C9.4522 40.1525 9.47663 44.877 9.42777 49.6015C9.42777 50.5221 9.69648 50.8855 10.6736 50.8613C15.2659 50.8371 19.8583 50.8613 24.4507 50.8613ZM24.3774 18.0323C24.3774 18.0323 24.3774 18.0081 24.3774 18.0323C28.1148 18.0323 31.8766 18.0323 35.614 18.0081C36.1514 18.0081 36.9575 18.2746 37.0797 17.5235C37.2262 16.5302 37.6659 15.2219 36.811 14.5677C36.0293 13.962 35.8095 13.2594 35.5652 12.4841C34.7346 9.72212 33.4156 7.25086 31.1682 5.36107C30.2156 4.56155 30.069 4.61001 29.8003 5.79718C29.2629 8.12307 28.7499 10.449 28.2125 12.7749C28.1148 13.1625 28.0171 13.5501 27.8705 13.9378C27.7484 14.2285 27.5041 14.3739 27.1866 14.277C26.9178 14.1801 26.7957 13.962 26.8201 13.6955C26.869 13.3321 26.9179 12.9687 27.0156 12.6295C27.6507 9.84326 28.2614 7.03281 28.9698 4.24659C29.214 3.22901 28.9209 2.84136 27.9682 2.64754C25.672 2.1872 23.3759 2.1872 21.0553 2.67176C20.127 2.86559 19.8339 3.22901 20.0782 4.1739C20.7133 6.66939 21.2507 9.21333 21.8125 11.733C21.9591 12.363 22.0812 12.9929 22.1789 13.6228C22.2278 13.9136 22.1056 14.2043 21.7637 14.277C21.4217 14.3497 21.2262 14.1558 21.1041 13.8651C20.982 13.5744 20.9087 13.2594 20.8354 12.9444C20.3224 10.6912 19.8339 8.46226 19.2965 6.20906C18.9301 4.58578 18.7102 4.53732 17.4156 5.65181C15.1927 7.59005 13.9224 10.0613 13.0919 12.8233C12.9453 13.2836 12.9698 13.962 12.5545 14.1316C11.3087 14.6404 11.6018 15.6338 11.553 16.5787C11.4797 17.7658 11.9927 18.105 13.1408 18.0808C16.9026 17.9839 20.64 18.0323 24.3774 18.0323ZM24.5484 39.7891C27.5285 39.7891 30.4843 39.7649 33.4644 39.7891C34.3682 39.7891 34.8079 39.571 34.8079 38.5777C34.7591 36.1064 34.8079 33.6594 34.8079 31.1882C34.8079 30.8247 34.8079 30.4613 34.5636 30.1463C33.8064 29.2015 30.9484 28.7169 29.898 29.371C26.4782 31.4547 22.985 31.6485 19.4919 29.6618C18.3927 29.0319 17.4888 28.9834 16.4385 29.5406C16.072 29.7345 15.7056 29.8798 15.3148 30.0252C14.5575 30.2917 14.2644 30.8005 14.2888 31.6C14.3377 33.9017 14.3377 36.2034 14.2888 38.505C14.2644 39.4984 14.6308 39.8376 15.6324 39.8376C18.6125 39.7649 21.5927 39.7891 24.5484 39.7891ZM24.2797 19.2922C21.3484 19.2922 18.4171 19.2922 15.4858 19.2922C14.0446 19.2922 14.0201 19.3164 14.3377 20.7459C14.7285 22.4903 15.4858 24.1136 16.5606 25.5673C19.0522 28.9107 22.985 30.3402 26.7713 29.3226C30.5087 28.305 33.9774 24.2347 34.4415 20.3825C34.5636 19.4376 34.0507 19.2922 33.2934 19.3164C30.3133 19.3164 27.3087 19.2922 24.2797 19.2922ZM40.9636 34.5074C40.8415 34.6528 40.7682 34.7254 40.7682 34.7739C40.7438 39.8618 40.7438 44.9254 40.7438 50.0133C40.7438 50.619 41.0369 50.7159 41.5743 50.7644C43.2354 50.934 44.8965 50.7886 46.5575 50.7886C47.5102 50.7886 47.7545 50.5706 47.7301 49.6499C47.6079 45.8219 46.5331 42.2604 44.5789 38.9896C43.553 37.3663 42.4293 35.8157 40.9636 34.5074ZM8.23083 35.5492C7.66899 35.6461 7.47357 36.0822 7.20487 36.3972C4.0293 40.3463 2.41709 44.8528 2.22167 49.8922C2.19724 50.7402 2.71022 50.8371 3.29648 50.8371C4.66441 50.8613 6.05678 50.7402 7.42472 50.7886C8.13312 50.8129 8.35296 50.5948 8.35296 49.9164C8.32854 45.2889 8.35296 40.6613 8.32854 36.0095C8.32854 35.8642 8.27968 35.7188 8.23083 35.5492Z"/>
</mask>
<path d="M44.5056 52C33.1957 52 21.9102 52 10.6003 52C7.88884 52 5.17739 51.9516 2.46594 52C1.34228 52.0243 1.00029 51.5882 1.00029 50.4979C0.951437 41.0974 7.03388 32.0604 15.8766 28.4746C17.1469 27.9658 17.1469 27.9658 16.2186 26.8998C14.582 24.9858 13.5072 22.781 13.0675 20.3098C12.9209 19.486 12.5545 19.1953 11.7728 19.268C10.6491 19.3891 10.2339 18.8803 10.2827 17.7901C10.3316 16.6513 10.2827 15.5368 10.2827 14.3981C10.2827 13.9378 10.2827 13.3806 10.8201 13.2836C11.7972 13.114 11.9438 12.3872 12.1881 11.6604C13.3117 8.41381 15.0949 5.62758 18.0507 3.68934C18.2461 3.54397 18.5392 3.42283 18.5148 3.15632C18.3194 1.82378 19.3209 1.82378 20.1759 1.5815C23.2782 0.685066 26.356 0.854662 29.4339 1.72687C30.0201 1.89647 30.5087 2.11452 30.4598 2.84136C30.4354 3.25324 30.6797 3.51975 30.9972 3.7378C33.9774 5.79718 35.614 8.753 36.7133 12.0965C36.8354 12.4841 36.8598 12.9687 37.3484 13.0656C38.4965 13.3079 38.4965 14.1316 38.472 15.0038C38.4476 16.0214 38.4476 17.0148 38.4476 18.0323C38.4476 18.8803 38.0568 19.3649 37.1774 19.2437C36.0537 19.0984 35.7117 19.6798 35.5407 20.649C35.1255 22.9264 34.1728 24.9615 32.6339 26.6817C31.8766 27.5055 32.1209 27.772 33.0491 28.1112C40.5728 30.9459 45.4827 36.276 47.9255 43.8352C48.6339 46.0399 48.927 48.3174 48.9759 50.619C49.0003 51.5397 48.6095 51.9516 47.6812 51.9273C46.6308 51.9516 45.5804 51.9758 44.5056 52ZM24.4507 50.8613C29.043 50.8613 33.6354 50.8129 38.2033 50.8855C39.3759 50.9098 39.6446 50.4737 39.6201 49.4076C39.5713 44.7316 39.498 40.0314 39.6446 35.3796C39.7178 33.514 39.0094 32.4238 37.4949 31.6243C37.3484 31.5516 37.2018 31.4789 37.0797 31.382C36.298 30.8247 36.0537 31.0912 36.0537 31.9634C36.0782 34.4347 36.0537 36.8817 36.0537 39.353C36.0537 40.9036 35.9072 41.049 34.3927 41.049C27.7972 41.049 21.2018 41.049 14.6308 41.049C13.1896 41.049 13.0186 40.8794 13.0186 39.4257C13.0186 37.0756 13.0186 34.7497 12.9942 32.3996C12.9942 32.0846 13.2385 31.4547 12.4812 31.6243C11.1133 31.9392 9.4522 34.0228 9.4522 35.4281C9.4522 40.1525 9.47663 44.877 9.42777 49.6015C9.42777 50.5221 9.69648 50.8855 10.6736 50.8613C15.2659 50.8371 19.8583 50.8613 24.4507 50.8613ZM24.3774 18.0323C24.3774 18.0323 24.3774 18.0081 24.3774 18.0323C28.1148 18.0323 31.8766 18.0323 35.614 18.0081C36.1514 18.0081 36.9575 18.2746 37.0797 17.5235C37.2262 16.5302 37.6659 15.2219 36.811 14.5677C36.0293 13.962 35.8095 13.2594 35.5652 12.4841C34.7346 9.72212 33.4156 7.25086 31.1682 5.36107C30.2156 4.56155 30.069 4.61001 29.8003 5.79718C29.2629 8.12307 28.7499 10.449 28.2125 12.7749C28.1148 13.1625 28.0171 13.5501 27.8705 13.9378C27.7484 14.2285 27.5041 14.3739 27.1866 14.277C26.9178 14.1801 26.7957 13.962 26.8201 13.6955C26.869 13.3321 26.9179 12.9687 27.0156 12.6295C27.6507 9.84326 28.2614 7.03281 28.9698 4.24659C29.214 3.22901 28.9209 2.84136 27.9682 2.64754C25.672 2.1872 23.3759 2.1872 21.0553 2.67176C20.127 2.86559 19.8339 3.22901 20.0782 4.1739C20.7133 6.66939 21.2507 9.21333 21.8125 11.733C21.9591 12.363 22.0812 12.9929 22.1789 13.6228C22.2278 13.9136 22.1056 14.2043 21.7637 14.277C21.4217 14.3497 21.2262 14.1558 21.1041 13.8651C20.982 13.5744 20.9087 13.2594 20.8354 12.9444C20.3224 10.6912 19.8339 8.46226 19.2965 6.20906C18.9301 4.58578 18.7102 4.53732 17.4156 5.65181C15.1927 7.59005 13.9224 10.0613 13.0919 12.8233C12.9453 13.2836 12.9698 13.962 12.5545 14.1316C11.3087 14.6404 11.6018 15.6338 11.553 16.5787C11.4797 17.7658 11.9927 18.105 13.1408 18.0808C16.9026 17.9839 20.64 18.0323 24.3774 18.0323ZM24.5484 39.7891C27.5285 39.7891 30.4843 39.7649 33.4644 39.7891C34.3682 39.7891 34.8079 39.571 34.8079 38.5777C34.7591 36.1064 34.8079 33.6594 34.8079 31.1882C34.8079 30.8247 34.8079 30.4613 34.5636 30.1463C33.8064 29.2015 30.9484 28.7169 29.898 29.371C26.4782 31.4547 22.985 31.6485 19.4919 29.6618C18.3927 29.0319 17.4888 28.9834 16.4385 29.5406C16.072 29.7345 15.7056 29.8798 15.3148 30.0252C14.5575 30.2917 14.2644 30.8005 14.2888 31.6C14.3377 33.9017 14.3377 36.2034 14.2888 38.505C14.2644 39.4984 14.6308 39.8376 15.6324 39.8376C18.6125 39.7649 21.5927 39.7891 24.5484 39.7891ZM24.2797 19.2922C21.3484 19.2922 18.4171 19.2922 15.4858 19.2922C14.0446 19.2922 14.0201 19.3164 14.3377 20.7459C14.7285 22.4903 15.4858 24.1136 16.5606 25.5673C19.0522 28.9107 22.985 30.3402 26.7713 29.3226C30.5087 28.305 33.9774 24.2347 34.4415 20.3825C34.5636 19.4376 34.0507 19.2922 33.2934 19.3164C30.3133 19.3164 27.3087 19.2922 24.2797 19.2922ZM40.9636 34.5074C40.8415 34.6528 40.7682 34.7254 40.7682 34.7739C40.7438 39.8618 40.7438 44.9254 40.7438 50.0133C40.7438 50.619 41.0369 50.7159 41.5743 50.7644C43.2354 50.934 44.8965 50.7886 46.5575 50.7886C47.5102 50.7886 47.7545 50.5706 47.7301 49.6499C47.6079 45.8219 46.5331 42.2604 44.5789 38.9896C43.553 37.3663 42.4293 35.8157 40.9636 34.5074ZM8.23083 35.5492C7.66899 35.6461 7.47357 36.0822 7.20487 36.3972C4.0293 40.3463 2.41709 44.8528 2.22167 49.8922C2.19724 50.7402 2.71022 50.8371 3.29648 50.8371C4.66441 50.8613 6.05678 50.7402 7.42472 50.7886C8.13312 50.8129 8.35296 50.5948 8.35296 49.9164C8.32854 45.2889 8.35296 40.6613 8.32854 36.0095C8.32854 35.8642 8.27968 35.7188 8.23083 35.5492Z" fill="#15A94E"/>
<path d="M44.5056 52C33.1957 52 21.9102 52 10.6003 52C7.88884 52 5.17739 51.9516 2.46594 52C1.34228 52.0243 1.00029 51.5882 1.00029 50.4979C0.951437 41.0974 7.03388 32.0604 15.8766 28.4746C17.1469 27.9658 17.1469 27.9658 16.2186 26.8998C14.582 24.9858 13.5072 22.781 13.0675 20.3098C12.9209 19.486 12.5545 19.1953 11.7728 19.268C10.6491 19.3891 10.2339 18.8803 10.2827 17.7901C10.3316 16.6513 10.2827 15.5368 10.2827 14.3981C10.2827 13.9378 10.2827 13.3806 10.8201 13.2836C11.7972 13.114 11.9438 12.3872 12.1881 11.6604C13.3117 8.41381 15.0949 5.62758 18.0507 3.68934C18.2461 3.54397 18.5392 3.42283 18.5148 3.15632C18.3194 1.82378 19.3209 1.82378 20.1759 1.5815C23.2782 0.685066 26.356 0.854662 29.4339 1.72687C30.0201 1.89647 30.5087 2.11452 30.4598 2.84136C30.4354 3.25324 30.6797 3.51975 30.9972 3.7378C33.9774 5.79718 35.614 8.753 36.7133 12.0965C36.8354 12.4841 36.8598 12.9687 37.3484 13.0656C38.4965 13.3079 38.4965 14.1316 38.472 15.0038C38.4476 16.0214 38.4476 17.0148 38.4476 18.0323C38.4476 18.8803 38.0568 19.3649 37.1774 19.2437C36.0537 19.0984 35.7117 19.6798 35.5407 20.649C35.1255 22.9264 34.1728 24.9615 32.6339 26.6817C31.8766 27.5055 32.1209 27.772 33.0491 28.1112C40.5728 30.9459 45.4827 36.276 47.9255 43.8352C48.6339 46.0399 48.927 48.3174 48.9759 50.619C49.0003 51.5397 48.6095 51.9516 47.6812 51.9273C46.6308 51.9516 45.5804 51.9758 44.5056 52ZM24.4507 50.8613C29.043 50.8613 33.6354 50.8129 38.2033 50.8855C39.3759 50.9098 39.6446 50.4737 39.6201 49.4076C39.5713 44.7316 39.498 40.0314 39.6446 35.3796C39.7178 33.514 39.0094 32.4238 37.4949 31.6243C37.3484 31.5516 37.2018 31.4789 37.0797 31.382C36.298 30.8247 36.0537 31.0912 36.0537 31.9634C36.0782 34.4347 36.0537 36.8817 36.0537 39.353C36.0537 40.9036 35.9072 41.049 34.3927 41.049C27.7972 41.049 21.2018 41.049 14.6308 41.049C13.1896 41.049 13.0186 40.8794 13.0186 39.4257C13.0186 37.0756 13.0186 34.7497 12.9942 32.3996C12.9942 32.0846 13.2385 31.4547 12.4812 31.6243C11.1133 31.9392 9.4522 34.0228 9.4522 35.4281C9.4522 40.1525 9.47663 44.877 9.42777 49.6015C9.42777 50.5221 9.69648 50.8855 10.6736 50.8613C15.2659 50.8371 19.8583 50.8613 24.4507 50.8613ZM24.3774 18.0323C24.3774 18.0323 24.3774 18.0081 24.3774 18.0323C28.1148 18.0323 31.8766 18.0323 35.614 18.0081C36.1514 18.0081 36.9575 18.2746 37.0797 17.5235C37.2262 16.5302 37.6659 15.2219 36.811 14.5677C36.0293 13.962 35.8095 13.2594 35.5652 12.4841C34.7346 9.72212 33.4156 7.25086 31.1682 5.36107C30.2156 4.56155 30.069 4.61001 29.8003 5.79718C29.2629 8.12307 28.7499 10.449 28.2125 12.7749C28.1148 13.1625 28.0171 13.5501 27.8705 13.9378C27.7484 14.2285 27.5041 14.3739 27.1866 14.277C26.9178 14.1801 26.7957 13.962 26.8201 13.6955C26.869 13.3321 26.9179 12.9687 27.0156 12.6295C27.6507 9.84326 28.2614 7.03281 28.9698 4.24659C29.214 3.22901 28.9209 2.84136 27.9682 2.64754C25.672 2.1872 23.3759 2.1872 21.0553 2.67176C20.127 2.86559 19.8339 3.22901 20.0782 4.1739C20.7133 6.66939 21.2507 9.21333 21.8125 11.733C21.9591 12.363 22.0812 12.9929 22.1789 13.6228C22.2278 13.9136 22.1056 14.2043 21.7637 14.277C21.4217 14.3497 21.2262 14.1558 21.1041 13.8651C20.982 13.5744 20.9087 13.2594 20.8354 12.9444C20.3224 10.6912 19.8339 8.46226 19.2965 6.20906C18.9301 4.58578 18.7102 4.53732 17.4156 5.65181C15.1927 7.59005 13.9224 10.0613 13.0919 12.8233C12.9453 13.2836 12.9698 13.962 12.5545 14.1316C11.3087 14.6404 11.6018 15.6338 11.553 16.5787C11.4797 17.7658 11.9927 18.105 13.1408 18.0808C16.9026 17.9839 20.64 18.0323 24.3774 18.0323ZM24.5484 39.7891C27.5285 39.7891 30.4843 39.7649 33.4644 39.7891C34.3682 39.7891 34.8079 39.571 34.8079 38.5777C34.7591 36.1064 34.8079 33.6594 34.8079 31.1882C34.8079 30.8247 34.8079 30.4613 34.5636 30.1463C33.8064 29.2015 30.9484 28.7169 29.898 29.371C26.4782 31.4547 22.985 31.6485 19.4919 29.6618C18.3927 29.0319 17.4888 28.9834 16.4385 29.5406C16.072 29.7345 15.7056 29.8798 15.3148 30.0252C14.5575 30.2917 14.2644 30.8005 14.2888 31.6C14.3377 33.9017 14.3377 36.2034 14.2888 38.505C14.2644 39.4984 14.6308 39.8376 15.6324 39.8376C18.6125 39.7649 21.5927 39.7891 24.5484 39.7891ZM24.2797 19.2922C21.3484 19.2922 18.4171 19.2922 15.4858 19.2922C14.0446 19.2922 14.0201 19.3164 14.3377 20.7459C14.7285 22.4903 15.4858 24.1136 16.5606 25.5673C19.0522 28.9107 22.985 30.3402 26.7713 29.3226C30.5087 28.305 33.9774 24.2347 34.4415 20.3825C34.5636 19.4376 34.0507 19.2922 33.2934 19.3164C30.3133 19.3164 27.3087 19.2922 24.2797 19.2922ZM40.9636 34.5074C40.8415 34.6528 40.7682 34.7254 40.7682 34.7739C40.7438 39.8618 40.7438 44.9254 40.7438 50.0133C40.7438 50.619 41.0369 50.7159 41.5743 50.7644C43.2354 50.934 44.8965 50.7886 46.5575 50.7886C47.5102 50.7886 47.7545 50.5706 47.7301 49.6499C47.6079 45.8219 46.5331 42.2604 44.5789 38.9896C43.553 37.3663 42.4293 35.8157 40.9636 34.5074ZM8.23083 35.5492C7.66899 35.6461 7.47357 36.0822 7.20487 36.3972C4.0293 40.3463 2.41709 44.8528 2.22167 49.8922C2.19724 50.7402 2.71022 50.8371 3.29648 50.8371C4.66441 50.8613 6.05678 50.7402 7.42472 50.7886C8.13312 50.8129 8.35296 50.5948 8.35296 49.9164C8.32854 45.2889 8.35296 40.6613 8.32854 36.0095C8.32854 35.8642 8.27968 35.7188 8.23083 35.5492Z" stroke="#15A94E" mask="url(#path-1-outside-1)"/>
</svg>
