<svg width="95" height="64" viewBox="0 0 95 64" fill="none" xmlns="http://www.w3.org/2000/svg">
<path d="M58.9814 10.6667C61.944 10.6667 64.3457 8.27886 64.3457 5.33334C64.3457 2.38782 61.944 0 58.9814 0C56.0188 0 53.6172 2.38782 53.6172 5.33334C53.6172 8.27886 56.0188 10.6667 58.9814 10.6667Z" fill="#15A94E"/>
<path d="M82.5961 35.2002C84.9662 35.2002 86.8875 33.2899 86.8875 30.9335C86.8875 28.5771 84.9662 26.6668 82.5961 26.6668C80.226 26.6668 78.3047 28.5771 78.3047 30.9335C78.3047 33.2899 80.226 35.2002 82.5961 35.2002Z" fill="#15A94E"/>
<path d="M35.3857 10.6667C38.3483 10.6667 40.75 8.27886 40.75 5.33334C40.75 2.38782 38.3483 0 35.3857 0C32.4231 0 30.0215 2.38782 30.0215 5.33334C30.0215 8.27886 32.4231 10.6667 35.3857 10.6667Z" fill="#15A94E"/>
<path d="M11.7758 35.2002C14.1458 35.2002 16.0672 33.2899 16.0672 30.9335C16.0672 28.5771 14.1458 26.6668 11.7758 26.6668C9.4057 26.6668 7.48438 28.5771 7.48438 30.9335C7.48438 33.2899 9.4057 35.2002 11.7758 35.2002Z" fill="#15A94E"/>
<path d="M94.1738 49.2799L90.4188 40.4265C89.1314 38.6132 87.093 37.2265 84.84 36.5865C84.1963 36.3732 83.338 36.2665 82.587 36.2665C81.085 36.2665 79.6903 36.5865 78.4029 37.2265L71.8585 32.6398L67.9963 16.6398C67.889 16.2131 67.5671 15.6798 67.2453 15.4665C65.9578 14.5065 64.4559 13.7598 62.8466 13.3331C61.5592 13.0131 60.2718 12.7998 58.9843 12.7998C57.6969 12.7998 56.4095 13.0131 55.2294 13.3331C53.6201 13.7598 52.1181 14.5065 50.8307 15.4665C50.4015 15.7865 50.187 16.2131 50.0797 16.6398L47.183 28.1598L44.3936 16.6398C44.2863 16.2131 43.9644 15.6798 43.6426 15.4665C42.3552 14.5065 40.8532 13.7598 39.2439 13.3331C37.9565 13.0131 36.6691 12.7998 35.3817 12.7998C34.0942 12.7998 32.8068 13.0131 31.6267 13.3331C30.0174 13.7598 28.5154 14.5065 27.228 15.4665C26.7989 15.7865 26.5843 16.2131 26.477 16.6398L22.6148 32.6398L16.0704 37.2265C14.6757 36.5865 13.281 36.2665 11.779 36.2665C11.028 36.2665 10.1697 36.3732 9.526 36.5865C7.27301 37.1198 5.2346 38.5065 3.94718 40.4265L0.192212 49.2799C-0.236928 50.2399 0.0849274 51.3065 0.835922 51.9465C1.26506 52.1599 1.6942 52.2665 2.12334 52.2665C2.98162 52.2665 3.73261 51.7332 4.05447 50.9865L6.41474 45.4398V51.1999V63.9999H10.7061V51.1999H12.8518V63.9999H17.1432V41.5998H17.2505L25.726 35.7332C26.1552 35.4132 26.477 34.9865 26.5843 34.4532L30.0174 20.2665V63.9999H34.3088V39.4665H36.4545V63.9999H40.7459V20.2665L45.1446 37.8665C45.3591 38.8265 46.2174 39.4665 47.183 39.4665C48.1486 39.4665 49.0068 38.8265 49.2214 37.8665L53.6201 20.2665V29.2265L49.8651 44.7999H53.6201V63.9999H57.9115V44.7999H60.0572V63.9999H64.3486V44.7999H68.1035L64.3486 29.2265V20.2665L67.889 34.4532C67.9963 34.9865 68.3181 35.4132 68.7473 35.7332L77.3301 41.7065V48.3199L75.0771 54.3999H77.2228V63.9999H81.5142V54.3999H83.6599V63.9999H87.9513V54.3999H90.097L88.0585 48.7465V45.4398L90.4188 50.9865C90.7407 51.8399 91.5989 52.2665 92.3499 52.2665C92.7791 52.2665 93.2082 52.1599 93.6374 51.8399C94.2811 51.3065 94.6029 50.1332 94.1738 49.2799Z" fill="#15A94E"/>
</svg>
