<svg width="36" height="32" viewBox="0 0 36 32" fill="none" xmlns="http://www.w3.org/2000/svg">
<g clip-path="url(#clip0)">
<path d="M17.9995 32.0497C9.44956 32.0497 2.47461 25.0748 2.47461 16.5248C2.47461 12.7748 3.8246 9.09986 6.37458 6.24988L8.02457 7.74987C5.84959 10.1498 4.72459 13.2998 4.72459 16.5248C4.72459 23.8748 10.6496 29.7997 17.9995 29.7997C19.9495 29.7997 21.8245 29.4247 23.5495 28.5997L24.4494 30.6247C22.4245 31.5997 20.2495 32.0497 17.9995 32.0497Z" fill="#15A94E"/>
<path d="M29.5487 26.8748L27.8987 25.3748C30.0737 22.9748 31.2737 19.8249 31.2737 16.5249C31.2737 9.17495 25.3487 3.24998 17.9988 3.24998C16.0488 3.24998 14.1738 3.62499 12.4488 4.44998L11.5488 2.42501C13.5738 1.52501 15.7488 1 17.9988 1C26.5487 1 33.5237 7.97496 33.5237 16.5249C33.5237 20.3499 32.0987 24.0248 29.5487 26.8748Z" fill="#15A94E"/>
<path d="M9.59993 15.3248H7.19995V8.12482H0V5.72485H9.59993V15.3248Z" fill="#15A94E"/>
<path d="M36.0003 27.3247H26.4004V17.7247H28.8004V24.9247H36.0003V27.3247Z" fill="#15A94E"/>
<path d="M17.855 9.11713C17.8737 8.96096 18.1263 8.96096 18.145 9.11713C18.7758 14.3002 22.0002 15.368 22 18.9701C22 21.1959 20.1692 23 17.9998 23C15.8313 23 14 21.1959 14 18.9701C14 15.368 17.2245 14.3002 17.855 9.11713Z" fill="#15A94E"/>
</g>
<defs>
<clipPath id="clip0">
<rect width="36" height="32" fill="white"/>
</clipPath>
</defs>
</svg>
