<svg width="36" height="36" viewBox="0 0 36 36" fill="none" xmlns="http://www.w3.org/2000/svg">
<path d="M21.2419 12.6577V12.6577C21.2419 14.7421 19.5239 16.431 17.5002 16.431C15.4776 16.431 13.7591 14.7421 13.7591 12.6577C13.7591 10.9686 14.4751 9.86541 15.3916 8.45343C15.4211 8.40793 15.4508 8.3621 15.4808 8.31593C16.2062 7.19692 17.003 5.92133 17.5005 4.11488C17.9982 5.92134 18.795 7.19692 19.5204 8.31593C19.5503 8.36203 19.5799 8.40777 19.6094 8.45319C20.5259 9.86528 21.242 10.9685 21.2419 12.6577Z" fill="#15A94E" stroke="#15A94E" stroke-width="1.06897"/>
<path d="M2 15.3621H11.0862" stroke="#15A94E" stroke-width="1.06897"/>
<path d="M23.9141 15.3621H33.0003" stroke="#15A94E" stroke-width="1.06897"/>
<path d="M5.20757 24.4482C5.20757 24.9341 5.05918 25.3535 4.84483 25.6393C4.63059 25.9249 4.37543 26.0517 4.1386 26.0517C3.90178 26.0517 3.64662 25.9249 3.43238 25.6393C3.21802 25.3535 3.06964 24.9341 3.06964 24.4482C3.06964 23.9623 3.21802 23.543 3.43238 23.2572C3.64662 22.9715 3.90178 22.8448 4.1386 22.8448C4.37543 22.8448 4.63059 22.9715 4.84483 23.2572C5.05918 23.543 5.20757 23.9623 5.20757 24.4482Z" stroke="#15A94E" stroke-width="1.06897"/>
<path d="M8.4146 28.7241C8.4146 29.21 8.26622 29.6294 8.05186 29.9152C7.83763 30.2008 7.58246 30.3276 7.34564 30.3276C7.10881 30.3276 6.85365 30.2008 6.63941 29.9152C6.42506 29.6294 6.27667 29.21 6.27667 28.7241C6.27667 28.2382 6.42506 27.8189 6.63941 27.5331C6.85365 27.2474 7.10881 27.1207 7.34564 27.1207C7.58246 27.1207 7.83762 27.2474 8.05186 27.5331C8.26622 27.8189 8.4146 28.2382 8.4146 28.7241Z" stroke="#15A94E" stroke-width="1.06897"/>
<path d="M5.20757 19.1035C5.20757 19.5894 5.05918 20.0088 4.84483 20.2946C4.63059 20.5802 4.37543 20.707 4.1386 20.707C3.90178 20.707 3.64662 20.5802 3.43238 20.2946C3.21802 20.0088 3.06964 19.5894 3.06964 19.1035C3.06964 18.6176 3.21802 18.1983 3.43238 17.9125C3.64662 17.6268 3.90178 17.5001 4.1386 17.5001C4.37543 17.5001 4.63059 17.6268 4.84483 17.9125C5.05918 18.1983 5.20757 18.6176 5.20757 19.1035Z" stroke="#15A94E" stroke-width="1.06897"/>
<path d="M13.2239 31.3966C13.7098 31.3966 14.1291 31.5449 14.4149 31.7593C14.7006 31.9735 14.8273 32.2287 14.8273 32.4655C14.8273 32.7024 14.7006 32.9575 14.4149 33.1717C14.1291 33.3861 13.7098 33.5345 13.2239 33.5345C12.738 33.5345 12.3186 33.3861 12.0328 33.1717C11.7472 32.9575 11.6204 32.7024 11.6204 32.4655C11.6204 32.2287 11.7472 31.9735 12.0328 31.7593C12.3186 31.5449 12.738 31.3966 13.2239 31.3966Z" stroke="#15A94E" stroke-width="1.06897"/>
<path d="M29.7924 24.4482C29.7924 24.9341 29.9408 25.3535 30.1552 25.6393C30.3694 25.9249 30.6246 26.0517 30.8614 26.0517C31.0982 26.0517 31.3534 25.9249 31.5676 25.6393C31.782 25.3535 31.9304 24.9341 31.9304 24.4482C31.9304 23.9623 31.782 23.543 31.5676 23.2572C31.3534 22.9715 31.0982 22.8448 30.8614 22.8448C30.6246 22.8448 30.3694 22.9715 30.1552 23.2572C29.9408 23.543 29.7924 23.9623 29.7924 24.4482Z" stroke="#15A94E" stroke-width="1.06897"/>
<path d="M26.5854 28.7241C26.5854 29.21 26.7338 29.6294 26.9481 29.9152C27.1624 30.2008 27.4175 30.3276 27.6544 30.3276C27.8912 30.3276 28.1464 30.2008 28.3606 29.9152C28.5749 29.6294 28.7233 29.21 28.7233 28.7241C28.7233 28.2382 28.5749 27.8189 28.3606 27.5331C28.1464 27.2474 27.8912 27.1207 27.6544 27.1207C27.4175 27.1207 27.1624 27.2474 26.9481 27.5331C26.7338 27.8189 26.5854 28.2382 26.5854 28.7241Z" stroke="#15A94E" stroke-width="1.06897"/>
<path d="M29.7924 19.1035C29.7924 19.5894 29.9408 20.0088 30.1552 20.2946C30.3694 20.5802 30.6246 20.707 30.8614 20.707C31.0982 20.707 31.3534 20.5802 31.5676 20.2946C31.782 20.0088 31.9304 19.5894 31.9304 19.1035C31.9304 18.6176 31.782 18.1983 31.5676 17.9125C31.3534 17.6268 31.0982 17.5001 30.8614 17.5001C30.6246 17.5001 30.3694 17.6268 30.1552 17.9125C29.9408 18.1983 29.7924 18.6176 29.7924 19.1035Z" stroke="#15A94E" stroke-width="1.06897"/>
<path d="M21.7761 31.3966C21.2902 31.3966 20.8709 31.5449 20.5851 31.7593C20.2994 31.9735 20.1727 32.2287 20.1727 32.4655C20.1727 32.7024 20.2994 32.9575 20.5851 33.1717C20.8709 33.3861 21.2902 33.5345 21.7761 33.5345C22.262 33.5345 22.6814 33.3861 22.9672 33.1717C23.2528 32.9575 23.3796 32.7024 23.3796 32.4655C23.3796 32.2287 23.2528 31.9735 22.9672 31.7593C22.6814 31.5449 22.262 31.3966 21.7761 31.3966Z" stroke="#15A94E" stroke-width="1.06897"/>
<path d="M12.6898 18.7122C12.269 18.4693 11.8316 18.3881 11.4769 18.4309C11.1224 18.4736 10.8851 18.6312 10.7667 18.8363C10.6483 19.0414 10.6304 19.3257 10.7707 19.6541C10.911 19.9826 11.2 20.3208 11.6208 20.5637C12.0416 20.8067 12.479 20.8879 12.8337 20.8451C13.1882 20.8024 13.4255 20.6448 13.5439 20.4397C13.6623 20.2346 13.6802 19.9503 13.5399 19.6219C13.3996 19.2934 13.1106 18.9552 12.6898 18.7122Z" stroke="#15A94E" stroke-width="1.06897"/>
<path d="M22.5675 18.6054C22.0981 18.7312 21.7315 18.983 21.5109 19.2641C21.2904 19.5449 21.234 19.8242 21.2953 20.053C21.3566 20.2817 21.5451 20.4954 21.8764 20.6284C22.208 20.7615 22.6514 20.7963 23.1208 20.6705C23.5902 20.5447 23.9568 20.2929 24.1774 20.0118C24.3979 19.731 24.4542 19.4517 24.3929 19.2229C24.3316 18.9942 24.1432 18.7805 23.8118 18.6475C23.4803 18.5144 23.0368 18.4796 22.5675 18.6054Z" stroke="#15A94E" stroke-width="1.06897"/>
<path d="M27.1216 23.9138C27.1216 23.4279 26.9732 23.0086 26.7589 22.7228C26.5447 22.4371 26.2895 22.3104 26.0527 22.3104C25.8158 22.3104 25.5607 22.4371 25.3464 22.7228C25.1321 23.0086 24.9837 23.4279 24.9837 23.9138C24.9837 24.3997 25.1321 24.8191 25.3464 25.1049C25.5607 25.3905 25.8158 25.5173 26.0527 25.5173C26.2895 25.5173 26.5447 25.3905 26.7589 25.1049C26.9732 24.8191 27.1216 24.3997 27.1216 23.9138Z" stroke="#15A94E" stroke-width="1.06897"/>
<path d="M9.48296 23.9138C9.48296 23.4279 9.33457 23.0086 9.12022 22.7228C8.90598 22.4371 8.65082 22.3104 8.414 22.3104C8.17717 22.3104 7.92201 22.4371 7.70777 22.7228C7.49342 23.0086 7.34503 23.4279 7.34503 23.9138C7.34503 24.3997 7.49342 24.8191 7.70777 25.1049C7.92201 25.3905 8.17717 25.5173 8.414 25.5173C8.65082 25.5173 8.90598 25.3905 9.12022 25.1049C9.33457 24.8191 9.48296 24.3997 9.48296 23.9138Z" stroke="#15A94E" stroke-width="1.06897"/>
<path d="M13.7584 26.5862C13.7584 26.1003 13.61 25.6809 13.3956 25.3951C13.1814 25.1095 12.9262 24.9827 12.6894 24.9827C12.4526 24.9827 12.1974 25.1095 11.9832 25.3951C11.7688 25.6809 11.6204 26.1003 11.6204 26.5862C11.6204 27.0721 11.7688 27.4914 11.9832 27.7772C12.1974 28.0629 12.4526 28.1896 12.6894 28.1896C12.9262 28.1896 13.1814 28.0629 13.3956 27.7772C13.61 27.4914 13.7584 27.0721 13.7584 26.5862Z" stroke="#15A94E" stroke-width="1.06897"/>
<path d="M18.0337 22.3103C18.0337 21.8244 17.8854 21.4051 17.671 21.1193C17.4568 20.8336 17.2016 20.7069 16.9648 20.7069C16.7279 20.7069 16.4728 20.8336 16.2586 21.1193C16.0442 21.4051 15.8958 21.8244 15.8958 22.3103C15.8958 22.7962 16.0442 23.2156 16.2586 23.5014C16.4728 23.787 16.7279 23.9138 16.9648 23.9138C17.2016 23.9138 17.4568 23.787 17.671 23.5014C17.8854 23.2156 18.0337 22.7962 18.0337 22.3103Z" stroke="#15A94E" stroke-width="1.06897"/>
<path d="M18.0337 28.7241C18.0337 28.2382 17.8854 27.8189 17.671 27.5331C17.4568 27.2474 17.2016 27.1207 16.9648 27.1207C16.7279 27.1207 16.4728 27.2474 16.2586 27.5331C16.0442 27.8189 15.8958 28.2382 15.8958 28.7241C15.8958 29.21 16.0442 29.6294 16.2586 29.9152C16.4728 30.2008 16.7279 30.3276 16.9648 30.3276C17.2016 30.3276 17.4568 30.2008 17.671 29.9152C17.8854 29.6294 18.0337 29.21 18.0337 28.7241Z" stroke="#15A94E" stroke-width="1.06897"/>
<path d="M22.3111 24.4483C22.3111 23.9623 22.1627 23.543 21.9483 23.2572C21.7341 22.9715 21.4789 22.8448 21.2421 22.8448C21.0053 22.8448 20.7501 22.9715 20.5359 23.2572C20.3215 23.543 20.1732 23.9623 20.1732 24.4483C20.1732 24.9342 20.3215 25.3535 20.5359 25.6393C20.7501 25.925 21.0053 26.0517 21.2421 26.0517C21.4789 26.0517 21.7341 25.925 21.9483 25.6393C22.1627 25.3535 22.3111 24.9342 22.3111 24.4483Z" stroke="#15A94E" stroke-width="1.06897"/>
</svg>
