<svg width="36" height="36" viewBox="0 0 36 36" fill="none" xmlns="http://www.w3.org/2000/svg">
<g clip-path="url(#clip0)">
<path d="M18.3713 7.63797C19.8288 7.64489 21.0103 6.48946 21.0103 5.0573C21.0103 3.63205 19.8288 2.47662 18.3713 2.47662C16.9139 2.47662 15.7324 3.63205 15.7324 5.0573C15.7324 6.48255 16.9139 7.63797 18.3713 7.63797Z" fill="#15A94E"/>
<path d="M21.0146 8.74496H18.3686H15.7227C13.7276 8.74496 12.4258 10.4608 12.4258 12.0936V19.9532C12.4258 21.4754 14.619 21.4754 14.619 19.9532V12.6886H15.0435V32.4484C15.0435 34.5517 18.0149 34.4825 18.0857 32.4484V21.0602H18.5809H18.6516V32.4553C18.7719 34.6139 21.6938 34.4064 21.6938 32.4484V12.6886H22.0476V19.9532C22.0476 21.4754 24.3115 21.4754 24.3115 19.9532V12.0936C24.3115 10.4677 23.0027 8.74496 21.0146 8.74496Z" fill="#15A94E"/>
</g>
<defs>
<clipPath id="clip0">
<rect y="2" width="36" height="32" fill="white"/>
</clipPath>
</defs>
</svg>
