<svg width="36" height="36" viewBox="0 0 36 36" fill="none" xmlns="http://www.w3.org/2000/svg">
<path d="M10.6425 32.0625C10.4933 32.0625 10.3502 32.0032 10.2448 31.8977C10.1393 31.7923 10.08 31.6492 10.08 31.5V27.5625C10.08 27.4133 10.1393 27.2702 10.2448 27.1648C10.3502 27.0593 10.4933 27 10.6425 27C10.7917 27 10.9348 27.0593 11.0402 27.1648C11.1457 27.2702 11.205 27.4133 11.205 27.5625V31.5C11.205 31.6492 11.1457 31.7923 11.0402 31.8977C10.9348 32.0032 10.7917 32.0625 10.6425 32.0625ZM11.205 34.3125V33.75C11.205 33.6008 11.1457 33.4577 11.0402 33.3523C10.9348 33.2468 10.7917 33.1875 10.6425 33.1875C10.4933 33.1875 10.3502 33.2468 10.2448 33.3523C10.1393 33.4577 10.08 33.6008 10.08 33.75V34.3125C10.08 34.4617 10.1393 34.6048 10.2448 34.7102C10.3502 34.8157 10.4933 34.875 10.6425 34.875C10.7917 34.875 10.9348 34.8157 11.0402 34.7102C11.1457 34.6048 11.205 34.4617 11.205 34.3125ZM8.955 28.125V27.5625C8.955 27.4133 8.89574 27.2702 8.79025 27.1648C8.68476 27.0593 8.54168 27 8.3925 27C8.24332 27 8.10024 27.0593 7.99475 27.1648C7.88926 27.2702 7.83 27.4133 7.83 27.5625V28.125C7.83 28.2742 7.88926 28.4173 7.99475 28.5227C8.10024 28.6282 8.24332 28.6875 8.3925 28.6875C8.54168 28.6875 8.68476 28.6282 8.79025 28.5227C8.89574 28.4173 8.955 28.2742 8.955 28.125ZM33.8569 10.0913V20.1825C33.8569 20.3317 33.7976 20.4748 33.6921 20.5802C33.5866 20.6857 33.4436 20.745 33.2944 20.745H30.375C29.9274 20.745 29.4982 20.5672 29.1818 20.2507C28.8653 19.9343 28.6875 19.5051 28.6875 19.0575V18.5625H15.1425C14.5458 18.5625 13.9735 18.7996 13.5515 19.2215C13.1296 19.6435 12.8925 20.2158 12.8925 20.8125V23.0625H13.41C13.8576 23.0625 14.2868 23.2403 14.6032 23.5568C14.9197 23.8732 15.0975 24.3024 15.0975 24.75C15.0975 25.1976 14.9197 25.6268 14.6032 25.9432C14.2868 26.2597 13.8576 26.4375 13.41 26.4375H5.625C5.17745 26.4375 4.74822 26.2597 4.43176 25.9432C4.11529 25.6268 3.9375 25.1976 3.9375 24.75C3.9375 24.3024 4.11529 23.8732 4.43176 23.5568C4.74822 23.2403 5.17745 23.0625 5.625 23.0625H6.1875V20.8125C6.1875 18.4256 7.13571 16.1364 8.82354 14.4485C10.5114 12.7607 12.8006 11.8125 15.1875 11.8125H17.4037V9.5625H13.4662C13.2446 9.5625 13.0252 9.51885 12.8205 9.43405C12.6157 9.34924 12.4297 9.22494 12.273 9.06824C12.1163 8.91154 11.992 8.72552 11.9072 8.52078C11.8224 8.31604 11.7787 8.09661 11.7787 7.875C11.7787 7.65339 11.8224 7.43396 11.9072 7.22922C11.992 7.02448 12.1163 6.83846 12.273 6.68176C12.4297 6.52506 12.6157 6.40076 12.8205 6.31595C13.0252 6.23115 13.2446 6.1875 13.4662 6.1875H17.9662C18.1154 6.1875 18.2585 6.24676 18.364 6.35225C18.4695 6.45774 18.5287 6.60082 18.5287 6.75H19.6537C19.6537 6.60082 19.713 6.45774 19.8185 6.35225C19.924 6.24676 20.0671 6.1875 20.2162 6.1875H24.7162C25.1638 6.1875 25.593 6.36529 25.9095 6.68176C26.226 6.99822 26.4037 7.42745 26.4037 7.875C26.4037 8.32255 26.226 8.75178 25.9095 9.06824C25.593 9.38471 25.1638 9.5625 24.7162 9.5625H20.7787V11.8125H28.6875V11.2163C28.6875 10.7687 28.8653 10.3395 29.1818 10.023C29.4982 9.70654 29.9274 9.52875 30.375 9.52875H33.2944C33.4436 9.52875 33.5866 9.58801 33.6921 9.6935C33.7976 9.79899 33.8569 9.94207 33.8569 10.0913ZM13.4662 8.4375H24.7162C24.8654 8.4375 25.0085 8.37824 25.114 8.27275C25.2195 8.16726 25.2787 8.02418 25.2787 7.875C25.2787 7.72582 25.2195 7.58274 25.114 7.47725C25.0085 7.37176 24.8654 7.3125 24.7162 7.3125H20.7787C20.7787 7.46168 20.7195 7.60476 20.614 7.71025C20.5085 7.81574 20.3654 7.875 20.2162 7.875H17.9662C17.8171 7.875 17.674 7.81574 17.5685 7.71025C17.463 7.60476 17.4037 7.46168 17.4037 7.3125H13.4662C13.3171 7.3125 13.174 7.37176 13.0685 7.47725C12.963 7.58274 12.9037 7.72582 12.9037 7.875C12.9037 8.02418 12.963 8.16726 13.0685 8.27275C13.174 8.37824 13.3171 8.4375 13.4662 8.4375ZM18.5287 11.8125H19.6537V9.5625H18.5287V11.8125ZM13.4044 24.1875H5.625C5.47582 24.1875 5.33274 24.2468 5.22725 24.3523C5.12176 24.4577 5.0625 24.6008 5.0625 24.75C5.0625 24.8992 5.12176 25.0423 5.22725 25.1477C5.33274 25.2532 5.47582 25.3125 5.625 25.3125H13.4044C13.5536 25.3125 13.6966 25.2532 13.8021 25.1477C13.9076 25.0423 13.9669 24.8992 13.9669 24.75C13.9669 24.6008 13.9076 24.4577 13.8021 24.3523C13.6966 24.2468 13.5536 24.1875 13.4044 24.1875ZM28.6875 17.4375V12.9375H15.1875C13.0989 12.9375 11.0959 13.7672 9.61903 15.244C8.14219 16.7209 7.3125 18.7239 7.3125 20.8125V23.0625H11.7619V20.8125C11.7619 19.9174 12.1175 19.0589 12.7504 18.426C13.3833 17.7931 14.2418 17.4375 15.1369 17.4375H28.6875ZM32.7319 10.6538H30.375C30.2258 10.6538 30.0827 10.713 29.9772 10.8185C29.8718 10.924 29.8125 11.0671 29.8125 11.2163V19.0575C29.8125 19.2067 29.8718 19.3498 29.9772 19.4552C30.0827 19.5607 30.2258 19.62 30.375 19.62H32.7319V10.6538Z" fill="#15A94E" stroke="#15A94E" stroke-width="0.6"/>
</svg>
