<svg width="36" height="36" viewBox="0 0 36 36" fill="none" xmlns="http://www.w3.org/2000/svg">
<path d="M8.35436 2.1488C8.33011 1.9504 8.00394 1.9504 7.97968 2.1488C7.16521 8.73312 3 10.0896 3 14.6656C3 17.4931 5.36553 19.785 8.1667 19.785C10.9691 19.785 13.334 17.4931 13.334 14.6656C13.3344 10.0896 9.16915 8.73312 8.35436 2.1488ZM28.0206 2.1488C27.9957 1.9504 27.6702 1.9504 27.6453 2.1488C26.8315 8.73312 22.6663 10.0896 22.6663 14.6656C22.6663 17.4931 25.0312 19.785 27.8336 19.785C30.6351 19.785 33 17.4931 33 14.6656C33 10.0896 28.8354 8.73312 28.0206 2.1488ZM17.813 16.3642C16.9982 22.9488 12.833 24.3046 12.833 28.8806C12.8333 31.7082 15.1982 34 18 34C20.8018 34 23.1667 31.7082 23.1667 28.8806C23.1667 24.3046 19.0021 22.9488 18.1873 16.3642C18.1628 16.1654 17.8379 16.1654 17.813 16.3642Z" fill="#15A94E"/>
</svg>
