<svg width="31" height="33" viewBox="0 0 31 33" fill="none" xmlns="http://www.w3.org/2000/svg">
<path d="M19.2419 10.6577V10.6577C19.2419 12.7421 17.5239 14.431 15.5002 14.431C13.4776 14.431 11.7591 12.7421 11.7591 10.6577C11.7591 8.96861 12.4751 7.86541 13.3916 6.45343C13.4211 6.40793 13.4508 6.3621 13.4808 6.31593C14.2062 5.19692 15.003 3.92133 15.5005 2.11488C15.9982 3.92134 16.795 5.19692 17.5204 6.31593C17.5503 6.36203 17.5799 6.40777 17.6094 6.45319C18.5259 7.86528 19.242 8.9685 19.2419 10.6577Z" fill="#15A94E" stroke="#15A94E" stroke-width="1.06897"/>
<path d="M0 13.3621H9.08621" stroke="#15A94E" stroke-width="1.06897"/>
<path d="M21.9141 13.3621H31.0003" stroke="#15A94E" stroke-width="1.06897"/>
<path d="M3.20757 22.4482C3.20757 22.9341 3.05918 23.3535 2.84483 23.6393C2.63059 23.9249 2.37543 24.0517 2.1386 24.0517C1.90178 24.0517 1.64662 23.9249 1.43238 23.6393C1.21802 23.3535 1.06964 22.9341 1.06964 22.4482C1.06964 21.9623 1.21802 21.543 1.43238 21.2572C1.64662 20.9715 1.90178 20.8448 2.1386 20.8448C2.37543 20.8448 2.63059 20.9715 2.84483 21.2572C3.05918 21.543 3.20757 21.9623 3.20757 22.4482Z" stroke="#15A94E" stroke-width="1.06897"/>
<path d="M6.4146 26.7241C6.4146 27.21 6.26622 27.6294 6.05186 27.9152C5.83763 28.2008 5.58246 28.3276 5.34564 28.3276C5.10881 28.3276 4.85365 28.2008 4.63941 27.9152C4.42506 27.6294 4.27667 27.21 4.27667 26.7241C4.27667 26.2382 4.42506 25.8189 4.63941 25.5331C4.85365 25.2474 5.10881 25.1207 5.34564 25.1207C5.58246 25.1207 5.83762 25.2474 6.05186 25.5331C6.26622 25.8189 6.4146 26.2382 6.4146 26.7241Z" stroke="#15A94E" stroke-width="1.06897"/>
<path d="M3.20757 17.1035C3.20757 17.5894 3.05918 18.0088 2.84483 18.2946C2.63059 18.5802 2.37543 18.707 2.1386 18.707C1.90178 18.707 1.64662 18.5802 1.43238 18.2946C1.21802 18.0088 1.06964 17.5894 1.06964 17.1035C1.06964 16.6176 1.21802 16.1983 1.43238 15.9125C1.64662 15.6268 1.90178 15.5001 2.1386 15.5001C2.37543 15.5001 2.63059 15.6268 2.84483 15.9125C3.05918 16.1983 3.20757 16.6176 3.20757 17.1035Z" stroke="#15A94E" stroke-width="1.06897"/>
<path d="M11.2239 29.3966C11.7098 29.3966 12.1291 29.5449 12.4149 29.7593C12.7006 29.9735 12.8273 30.2287 12.8273 30.4655C12.8273 30.7024 12.7006 30.9575 12.4149 31.1717C12.1291 31.3861 11.7098 31.5345 11.2239 31.5345C10.738 31.5345 10.3186 31.3861 10.0328 31.1717C9.74717 30.9575 9.62042 30.7024 9.62042 30.4655C9.62042 30.2287 9.74717 29.9735 10.0328 29.7593C10.3186 29.5449 10.738 29.3966 11.2239 29.3966Z" stroke="#15A94E" stroke-width="1.06897"/>
<path d="M27.7924 22.4482C27.7924 22.9341 27.9408 23.3535 28.1552 23.6393C28.3694 23.9249 28.6246 24.0517 28.8614 24.0517C29.0982 24.0517 29.3534 23.9249 29.5676 23.6393C29.782 23.3535 29.9304 22.9341 29.9304 22.4482C29.9304 21.9623 29.782 21.543 29.5676 21.2572C29.3534 20.9715 29.0982 20.8448 28.8614 20.8448C28.6246 20.8448 28.3694 20.9715 28.1552 21.2572C27.9408 21.543 27.7924 21.9623 27.7924 22.4482Z" stroke="#15A94E" stroke-width="1.06897"/>
<path d="M24.5854 26.7241C24.5854 27.21 24.7338 27.6294 24.9481 27.9152C25.1624 28.2008 25.4175 28.3276 25.6544 28.3276C25.8912 28.3276 26.1464 28.2008 26.3606 27.9152C26.5749 27.6294 26.7233 27.21 26.7233 26.7241C26.7233 26.2382 26.5749 25.8189 26.3606 25.5331C26.1464 25.2474 25.8912 25.1207 25.6544 25.1207C25.4175 25.1207 25.1624 25.2474 24.9481 25.5331C24.7338 25.8189 24.5854 26.2382 24.5854 26.7241Z" stroke="#15A94E" stroke-width="1.06897"/>
<path d="M27.7924 17.1035C27.7924 17.5894 27.9408 18.0088 28.1552 18.2946C28.3694 18.5802 28.6246 18.707 28.8614 18.707C29.0982 18.707 29.3534 18.5802 29.5676 18.2946C29.782 18.0088 29.9304 17.5894 29.9304 17.1035C29.9304 16.6176 29.782 16.1983 29.5676 15.9125C29.3534 15.6268 29.0982 15.5001 28.8614 15.5001C28.6246 15.5001 28.3694 15.6268 28.1552 15.9125C27.9408 16.1983 27.7924 16.6176 27.7924 17.1035Z" stroke="#15A94E" stroke-width="1.06897"/>
<path d="M19.7761 29.3966C19.2902 29.3966 18.8709 29.5449 18.5851 29.7593C18.2994 29.9735 18.1727 30.2287 18.1727 30.4655C18.1727 30.7024 18.2994 30.9575 18.5851 31.1717C18.8709 31.3861 19.2902 31.5345 19.7761 31.5345C20.262 31.5345 20.6814 31.3861 20.9672 31.1717C21.2528 30.9575 21.3796 30.7024 21.3796 30.4655C21.3796 30.2287 21.2528 29.9735 20.9672 29.7593C20.6814 29.5449 20.262 29.3966 19.7761 29.3966Z" stroke="#15A94E" stroke-width="1.06897"/>
<path d="M10.6898 16.7122C10.269 16.4693 9.83162 16.3881 9.47693 16.4309C9.12243 16.4736 8.88509 16.6312 8.76667 16.8363C8.64826 17.0414 8.63044 17.3257 8.7707 17.6541C8.91104 17.9826 9.20001 18.3208 9.62082 18.5637C10.0416 18.8067 10.479 18.8879 10.8337 18.8451C11.1882 18.8024 11.4255 18.6448 11.5439 18.4397C11.6623 18.2346 11.6802 17.9503 11.5399 17.6219C11.3996 17.2934 11.1106 16.9552 10.6898 16.7122Z" stroke="#15A94E" stroke-width="1.06897"/>
<path d="M20.5675 16.6054C20.0981 16.7312 19.7315 16.983 19.5109 17.2641C19.2904 17.5449 19.234 17.8242 19.2953 18.053C19.3566 18.2817 19.5451 18.4954 19.8764 18.6284C20.208 18.7615 20.6514 18.7963 21.1208 18.6705C21.5902 18.5447 21.9568 18.2929 22.1774 18.0118C22.3979 17.731 22.4542 17.4517 22.3929 17.2229C22.3316 16.9942 22.1432 16.7805 21.8118 16.6475C21.4803 16.5144 21.0368 16.4796 20.5675 16.6054Z" stroke="#15A94E" stroke-width="1.06897"/>
<path d="M25.1216 21.9138C25.1216 21.4279 24.9732 21.0086 24.7589 20.7228C24.5447 20.4371 24.2895 20.3104 24.0527 20.3104C23.8158 20.3104 23.5607 20.4371 23.3464 20.7228C23.1321 21.0086 22.9837 21.4279 22.9837 21.9138C22.9837 22.3997 23.1321 22.8191 23.3464 23.1049C23.5607 23.3905 23.8158 23.5173 24.0527 23.5173C24.2895 23.5173 24.5447 23.3905 24.7589 23.1049C24.9732 22.8191 25.1216 22.3997 25.1216 21.9138Z" stroke="#15A94E" stroke-width="1.06897"/>
<path d="M7.48296 21.9138C7.48296 21.4279 7.33457 21.0086 7.12022 20.7228C6.90598 20.4371 6.65082 20.3104 6.414 20.3104C6.17717 20.3104 5.92201 20.4371 5.70777 20.7228C5.49342 21.0086 5.34503 21.4279 5.34503 21.9138C5.34503 22.3997 5.49342 22.8191 5.70777 23.1049C5.92201 23.3905 6.17717 23.5173 6.414 23.5173C6.65082 23.5173 6.90598 23.3905 7.12022 23.1049C7.33457 22.8191 7.48296 22.3997 7.48296 21.9138Z" stroke="#15A94E" stroke-width="1.06897"/>
<path d="M11.7584 24.5862C11.7584 24.1003 11.61 23.6809 11.3956 23.3951C11.1814 23.1095 10.9262 22.9827 10.6894 22.9827C10.4526 22.9827 10.1974 23.1095 9.98316 23.3951C9.76881 23.6809 9.62042 24.1003 9.62042 24.5862C9.62042 25.0721 9.76881 25.4914 9.98316 25.7772C10.1974 26.0629 10.4526 26.1896 10.6894 26.1896C10.9262 26.1896 11.1814 26.0629 11.3956 25.7772C11.61 25.4914 11.7584 25.0721 11.7584 24.5862Z" stroke="#15A94E" stroke-width="1.06897"/>
<path d="M16.0337 20.3103C16.0337 19.8244 15.8854 19.4051 15.671 19.1193C15.4568 18.8336 15.2016 18.7069 14.9648 18.7069C14.7279 18.7069 14.4728 18.8336 14.2586 19.1193C14.0442 19.4051 13.8958 19.8244 13.8958 20.3103C13.8958 20.7962 14.0442 21.2156 14.2586 21.5014C14.4728 21.787 14.7279 21.9138 14.9648 21.9138C15.2016 21.9138 15.4568 21.787 15.671 21.5014C15.8854 21.2156 16.0337 20.7962 16.0337 20.3103Z" stroke="#15A94E" stroke-width="1.06897"/>
<path d="M16.0337 26.7241C16.0337 26.2382 15.8854 25.8189 15.671 25.5331C15.4568 25.2474 15.2016 25.1207 14.9648 25.1207C14.7279 25.1207 14.4728 25.2474 14.2586 25.5331C14.0442 25.8189 13.8958 26.2382 13.8958 26.7241C13.8958 27.21 14.0442 27.6294 14.2586 27.9152C14.4728 28.2008 14.7279 28.3276 14.9648 28.3276C15.2016 28.3276 15.4568 28.2008 15.671 27.9152C15.8854 27.6294 16.0337 27.21 16.0337 26.7241Z" stroke="#15A94E" stroke-width="1.06897"/>
<path d="M20.3111 22.4483C20.3111 21.9623 20.1627 21.543 19.9483 21.2572C19.7341 20.9715 19.4789 20.8448 19.2421 20.8448C19.0053 20.8448 18.7501 20.9715 18.5359 21.2572C18.3215 21.543 18.1732 21.9623 18.1732 22.4483C18.1732 22.9342 18.3215 23.3535 18.5359 23.6393C18.7501 23.925 19.0053 24.0517 19.2421 24.0517C19.4789 24.0517 19.7341 23.925 19.9483 23.6393C20.1627 23.3535 20.3111 22.9342 20.3111 22.4483Z" stroke="#15A94E" stroke-width="1.06897"/>
</svg>
