<svg width="36" height="36" viewBox="0 0 36 36" fill="none" xmlns="http://www.w3.org/2000/svg">
<path d="M12.9375 14.0625C12.7883 14.0625 12.6452 14.0032 12.5398 13.8977C12.4343 13.7923 12.375 13.6492 12.375 13.5V9.5625C12.375 9.41332 12.4343 9.27024 12.5398 9.16475C12.6452 9.05926 12.7883 9 12.9375 9C13.0867 9 13.2298 9.05926 13.3353 9.16475C13.4407 9.27024 13.5 9.41332 13.5 9.5625V13.5C13.5 13.6492 13.4407 13.7923 13.3353 13.8977C13.2298 14.0032 13.0867 14.0625 12.9375 14.0625ZM13.5 7.3125V6.75C13.5 6.60082 13.4407 6.45774 13.3353 6.35225C13.2298 6.24676 13.0867 6.1875 12.9375 6.1875C12.7883 6.1875 12.6452 6.24676 12.5398 6.35225C12.4343 6.45774 12.375 6.60082 12.375 6.75V7.3125C12.375 7.46168 12.4343 7.60476 12.5398 7.71025C12.6452 7.81574 12.7883 7.875 12.9375 7.875C13.0867 7.875 13.2298 7.81574 13.3353 7.71025C13.4407 7.60476 13.5 7.46168 13.5 7.3125ZM22.4213 26.6962L23.3156 32.0906C23.3293 32.171 23.3252 32.2534 23.3039 32.332C23.2825 32.4107 23.2443 32.4838 23.1919 32.5462C23.1391 32.608 23.0735 32.6576 22.9997 32.6915C22.9259 32.7255 22.8456 32.7431 22.7644 32.7431H12.6394C12.5573 32.7442 12.476 32.7273 12.4011 32.6935C12.3263 32.6598 12.2597 32.6101 12.2061 32.548C12.1525 32.4858 12.1131 32.4126 12.0908 32.3336C12.0685 32.2546 12.0637 32.1717 12.0769 32.0906L13.0163 26.4656C10.9753 25.5159 9.24816 24.0026 8.03834 22.1042C6.82852 20.2058 6.18637 18.0012 6.1875 15.75C6.1875 15.6008 6.24676 15.4577 6.35225 15.3523C6.45774 15.2468 6.60082 15.1875 6.75 15.1875H9.5625V4.5C9.5625 4.35082 9.62176 4.20774 9.72725 4.10225C9.83274 3.99676 9.97582 3.9375 10.125 3.9375H24.75C24.8992 3.9375 25.0423 3.99676 25.1478 4.10225C25.2532 4.20774 25.3125 4.35082 25.3125 4.5V6.1875H27C27.1492 6.1875 27.2923 6.24676 27.3978 6.35225C27.5032 6.45774 27.5625 6.60082 27.5625 6.75V9C27.5625 9.14918 27.5032 9.29226 27.3978 9.39775C27.2923 9.50324 27.1492 9.5625 27 9.5625H25.3125V15.1875H29.25C29.3992 15.1875 29.5423 15.2468 29.6478 15.3523C29.7532 15.4577 29.8125 15.6008 29.8125 15.75C29.811 18.1032 29.1066 20.4024 27.7897 22.3527C26.4728 24.303 24.6035 25.8155 22.4213 26.6962ZM25.3125 7.3125V8.4375H26.4375V7.3125H25.3125ZM10.6875 15.1875H24.1875V5.0625H10.6875V15.1875ZM7.3125 16.3125C7.33905 16.7846 7.39731 17.2544 7.48688 17.7188H28.4963C28.5915 17.2548 28.6554 16.785 28.6875 16.3125H7.3125ZM21.3413 27.0731C20.8502 27.216 20.3504 27.3269 19.845 27.405L19.4119 27.4725L18.9056 27.5175L18.2531 27.5625H18H17.8538C17.5275 27.5625 17.2013 27.5456 16.875 27.5119H16.7794C16.4194 27.4725 16.065 27.4163 15.7106 27.3487L15.435 27.2869C15.1706 27.225 14.9119 27.1575 14.6531 27.0844L14.3494 27L14.0906 26.9212L13.3031 31.6406H22.1006L21.3413 27.0731ZM28.2206 18.8438H7.77938C8.24041 20.3595 9.0313 21.7543 10.0953 22.9282C11.1592 24.102 12.4699 25.0258 13.9331 25.6331L14.2425 25.7456C14.4506 25.8244 14.6531 25.8975 14.8613 25.965L15.2606 26.0719C15.4463 26.1225 15.6375 26.1731 15.8231 26.2125L16.2675 26.2856C16.4475 26.3137 16.6275 26.3475 16.83 26.3644C17.0325 26.3812 17.1563 26.3925 17.325 26.4037C17.4938 26.415 17.6569 26.4037 17.8256 26.4037C17.9944 26.4037 18.2194 26.4037 18.3881 26.4037C18.5569 26.4037 18.6469 26.4037 18.7763 26.4037C19.0125 26.4037 19.2544 26.3587 19.4963 26.325L19.7156 26.2913C19.9969 26.2463 20.2781 26.1844 20.5594 26.1169H20.6494C20.9531 26.0381 21.2569 25.9425 21.5606 25.8356C23.1405 25.2727 24.5661 24.3468 25.7228 23.1324C26.8796 21.918 27.7351 20.4491 28.2206 18.8438Z" fill="#15A94E" stroke="#15A94E" stroke-width="0.6"/>
</svg>
