<svg width="36" height="32" viewBox="0 0 36 32" fill="none" xmlns="http://www.w3.org/2000/svg">
<g clip-path="url(#clip0)">
<path d="M18.3713 5.63803C19.8288 5.64495 21.0103 4.48953 21.0103 3.05736C21.0103 1.63211 19.8288 0.476685 18.3713 0.476685C16.9139 0.476685 15.7324 1.63211 15.7324 3.05736C15.7324 4.48261 16.9139 5.63803 18.3713 5.63803Z" fill="#15A94E"/>
<path d="M21.0146 6.745H18.3686H15.7227C13.7276 6.745 12.4258 8.46083 12.4258 10.0936V17.9533C12.4258 19.4754 14.619 19.4754 14.619 17.9533V10.6886H15.0435V30.4484C15.0435 32.5517 18.0149 32.4825 18.0857 30.4484V19.0603H18.5809H18.6516V30.4553C18.7719 32.614 21.6938 32.4064 21.6938 30.4484V10.6886H22.0476V17.9533C22.0476 19.4754 24.3115 19.4754 24.3115 17.9533V10.0936C24.3115 8.46775 23.0027 6.745 21.0146 6.745Z" fill="#15A94E"/>
</g>
<defs>
<clipPath id="clip0">
<rect width="36" height="32" fill="white"/>
</clipPath>
</defs>
</svg>
