<svg width="36" height="36" viewBox="0 0 36 36" fill="none" xmlns="http://www.w3.org/2000/svg">
<path d="M22.1504 15.6437C19.1182 14.771 15.9013 14.771 12.8691 15.6437C11.4137 13.505 9.67968 11.5699 7.71289 9.88937C10.8118 8.49223 14.1723 7.76971 17.5716 7.76971C20.971 7.76971 24.3315 8.49223 27.4304 9.88937C25.4199 11.5616 23.644 13.4972 22.1504 15.6437V15.6437Z" stroke="#15A94E" stroke-linecap="round" stroke-linejoin="round"/>
<path d="M11.3125 3.5625H23.6875C25.7429 3.5625 27.7142 4.37902 29.1676 5.83242C30.621 7.28583 31.4375 9.25707 31.4375 11.3125V28.8438C31.4375 29.5317 31.1642 30.1914 30.6778 30.6778C30.1914 31.1642 29.5317 31.4375 28.8438 31.4375H6.15625C5.46834 31.4375 4.80861 31.1642 4.32219 30.6778C3.83577 30.1914 3.5625 29.5317 3.5625 28.8438V11.3125C3.5625 9.25707 4.37902 7.28583 5.83242 5.83242C7.28583 4.37902 9.25707 3.5625 11.3125 3.5625ZM29.9265 29.9265C30.2137 29.6393 30.375 29.2499 30.375 28.8438V11.3125C30.375 9.53886 29.6704 7.83787 28.4163 6.58372C27.1621 5.32957 25.4611 4.625 23.6875 4.625H11.3125C9.53886 4.625 7.83787 5.32957 6.58372 6.58372C5.32957 7.83787 4.625 9.53886 4.625 11.3125V28.8438C4.625 29.2499 4.78633 29.6393 5.07349 29.9265C5.36066 30.2137 5.75014 30.375 6.15625 30.375H28.8438C29.2499 30.375 29.6393 30.2137 29.9265 29.9265Z" fill="#15A94E" stroke="#15A94E"/>
<path d="M10.9356 10.6613L10.9356 10.6613L10.9342 10.6599L9.90293 9.62863C9.80251 9.52821 9.74609 9.39201 9.74609 9.24999C9.74609 9.17967 9.75994 9.11004 9.78685 9.04508C9.81376 8.98011 9.85321 8.92108 9.90293 8.87136C10.0033 8.77094 10.1395 8.71452 10.2816 8.71452C10.3519 8.71452 10.4215 8.72837 10.4865 8.75528C10.5514 8.78219 10.6105 8.82164 10.6602 8.87136L11.6914 9.90261L11.6914 9.90261L11.6929 9.90405C11.7427 9.95344 11.7822 10.0122 11.8092 10.0769C11.8362 10.1417 11.85 10.2111 11.85 10.2812C11.85 10.3514 11.8362 10.4208 11.8092 10.4855C11.7822 10.5503 11.7427 10.609 11.6929 10.6584L11.6929 10.6584L11.69 10.6613C11.6406 10.7111 11.5819 10.7506 11.5171 10.7776C11.4524 10.8046 11.3829 10.8185 11.3128 10.8185C11.2427 10.8185 11.1732 10.8046 11.1085 10.7776C11.0438 10.7506 10.985 10.7111 10.9356 10.6613Z" fill="#15A94E" stroke="#15A94E"/>
<path d="M17.8757 9.62565C17.776 9.72528 17.6409 9.78125 17.5 9.78125C17.3591 9.78125 17.224 9.72528 17.1243 9.62565C17.0247 9.52602 16.9688 9.3909 16.9688 9.25V8.21875C16.9688 8.07785 17.0247 7.94273 17.1243 7.8431C17.224 7.74347 17.3591 7.6875 17.5 7.6875C17.6409 7.6875 17.776 7.74347 17.8757 7.8431C17.9753 7.94273 18.0312 8.07785 18.0312 8.21875V9.25C18.0312 9.3909 17.9753 9.52602 17.8757 9.62565Z" fill="#15A94E" stroke="#15A94E"/>
<path d="M23.3075 9.90406L23.3075 9.90406L23.309 9.90261L24.3402 8.87136C24.4407 8.77094 24.5769 8.71452 24.7189 8.71452C24.8609 8.71452 24.9971 8.77094 25.0975 8.87136C25.1979 8.97178 25.2543 9.10798 25.2543 9.24999C25.2543 9.39201 25.1979 9.52821 25.0975 9.62863L24.0663 10.6599L24.0663 10.6599L24.0648 10.6613C24.0154 10.7111 23.9567 10.7506 23.8919 10.7776C23.8272 10.8046 23.7578 10.8185 23.6876 10.8185C23.6175 10.8185 23.5481 10.8046 23.4833 10.7776C23.4186 10.7506 23.3598 10.7111 23.3104 10.6613L23.3104 10.6613L23.3075 10.6584C23.2577 10.609 23.2182 10.5503 23.1912 10.4855C23.1643 10.4208 23.1504 10.3514 23.1504 10.2812C23.1504 10.2111 23.1643 10.1417 23.1912 10.0769C23.2182 10.0122 23.2577 9.95344 23.3075 9.90406Z" fill="#15A94E" stroke="#15A94E"/>
<path d="M17.075 14.0875L20.1688 9.9625L19.7688 9.6625L20.1688 9.9625C20.2533 9.84978 20.3791 9.77527 20.5186 9.75534C20.5877 9.74547 20.658 9.74931 20.7256 9.76662C20.7932 9.78394 20.8567 9.81439 20.9125 9.85625L21.2125 9.45625L20.9125 9.85625C21.0252 9.94079 21.0997 10.0666 21.1197 10.2061C21.1396 10.3456 21.1033 10.4873 21.0187 10.6L17.925 14.725C17.8755 14.791 17.8113 14.8445 17.7376 14.8814L17.9612 15.3286L17.7376 14.8814C17.6638 14.9183 17.5825 14.9375 17.5 14.9375C17.3851 14.9375 17.2732 14.9002 17.1812 14.8313L16.8859 15.2251L17.1812 14.8313C17.1254 14.7894 17.0784 14.7369 17.0429 14.6769C17.0073 14.6169 16.984 14.5504 16.9741 14.4814C16.9642 14.4123 16.9681 14.342 16.9854 14.2744C17.0027 14.2068 17.0331 14.1433 17.075 14.0875Z" fill="#15A94E" stroke="#15A94E"/>
</svg>
