<svg width="345" height="35" viewBox="0 0 345 35" fill="none" xmlns="http://www.w3.org/2000/svg">
<path d="M9.54309 27.4563H10.5304V19.2682H9.53174L7.3528 20.8343V21.8614L9.52039 20.352H9.54309V27.4563Z" fill="black"/>
<line x1="10.6366" y1="0.65625" x2="10.6366" y2="12.2773" stroke="#D9D9DE" stroke-width="0.726316"/>
<path d="M63.6947 27.5925C65.4027 27.5925 66.6113 26.4406 66.6113 24.795C66.6113 23.2232 65.4764 22.0827 63.9046 22.0827C63.1102 22.0827 62.4293 22.3778 62.0434 22.9282H62.0207L62.2988 20.1761H66.146V19.2682H61.459L61.0391 23.9382H61.9413C62.3215 23.28 62.9457 22.9622 63.723 22.9622C64.8125 22.9622 65.5899 23.7396 65.5899 24.8234C65.5899 25.9242 64.8182 26.6959 63.706 26.6959C62.7244 26.6959 61.981 26.0945 61.8902 25.2206H60.8859C60.971 26.6165 62.1286 27.5925 63.6947 27.5925Z" fill="black"/>
<line x1="64.3846" y1="0.65625" x2="64.3846" y2="12.2773" stroke="#D9D9DE" stroke-width="0.726316"/>
<path d="M114.013 27.4563H115.001V19.2682H114.002L111.823 20.8343V21.8614L113.991 20.352H114.013V27.4563ZM119.943 27.5925C121.85 27.5925 122.951 25.9412 122.951 23.3537C122.951 20.7833 121.844 19.132 119.943 19.132C118.042 19.132 116.924 20.7946 116.924 23.3594C116.924 25.9469 118.031 27.5925 119.943 27.5925ZM119.943 26.7016C118.661 26.7016 117.951 25.3965 117.951 23.3537C117.951 21.3564 118.678 20.0286 119.943 20.0286C121.209 20.0286 121.923 21.345 121.923 23.3594C121.923 25.4022 121.22 26.7016 119.943 26.7016Z" fill="black"/>
<line x1="118.131" y1="0.65625" x2="118.131" y2="12.2773" stroke="#D9D9DE" stroke-width="0.726316"/>
<path d="M167.386 27.4563H168.374V19.2682H167.375L165.196 20.8343V21.8614L167.364 20.352H167.386V27.4563ZM173.265 27.5925C174.973 27.5925 176.182 26.4406 176.182 24.795C176.182 23.2232 175.047 22.0827 173.475 22.0827C172.681 22.0827 172 22.3778 171.614 22.9282H171.591L171.869 20.1761H175.716V19.2682H171.029L170.609 23.9382H171.512C171.892 23.28 172.516 22.9622 173.293 22.9622C174.383 22.9622 175.16 23.7396 175.16 24.8234C175.16 25.9242 174.388 26.6959 173.276 26.6959C172.295 26.6959 171.551 26.0945 171.461 25.2206H170.456C170.541 26.6165 171.699 27.5925 173.265 27.5925Z" fill="black"/>
<line x1="171.879" y1="0.65625" x2="171.879" y2="12.2773" stroke="#D9D9DE" stroke-width="0.726316"/>
<path d="M218.155 21.6344H219.143C219.143 20.7152 219.903 20.0229 220.913 20.0229C221.849 20.0229 222.451 20.6641 222.451 21.4699C222.451 22.1508 222.195 22.5934 221.089 23.7453L218.206 26.7527V27.4563H223.608V26.5484H219.608V26.5257L221.554 24.5283C223.058 22.9849 223.472 22.3097 223.472 21.4074C223.472 20.1648 222.428 19.132 220.913 19.132C219.336 19.132 218.155 20.1988 218.155 21.6344ZM227.654 27.5925C229.561 27.5925 230.662 25.9412 230.662 23.3537C230.662 20.7833 229.555 19.132 227.654 19.132C225.753 19.132 224.635 20.7946 224.635 23.3594C224.635 25.9469 225.742 27.5925 227.654 27.5925ZM227.654 26.7016C226.372 26.7016 225.663 25.3965 225.663 23.3537C225.663 21.3564 226.389 20.0286 227.654 20.0286C228.92 20.0286 229.635 21.345 229.635 23.3594C229.635 25.4022 228.931 26.7016 227.654 26.7016Z" fill="black"/>
<line x1="225.627" y1="0.65625" x2="225.627" y2="12.2773" stroke="#D9D9DE" stroke-width="0.726316"/>
<path d="M272.026 21.6344H273.014C273.014 20.7152 273.774 20.0229 274.784 20.0229C275.72 20.0229 276.322 20.6641 276.322 21.4699C276.322 22.1508 276.066 22.5934 274.96 23.7453L272.077 26.7527V27.4563H277.479V26.5484H273.479V26.5257L275.425 24.5283C276.929 22.9849 277.343 22.3097 277.343 21.4074C277.343 20.1648 276.299 19.132 274.784 19.132C273.207 19.132 272.026 20.1988 272.026 21.6344ZM281.474 27.5925C283.182 27.5925 284.391 26.4406 284.391 24.795C284.391 23.2232 283.256 22.0827 281.684 22.0827C280.89 22.0827 280.209 22.3778 279.823 22.9282H279.8L280.078 20.1761H283.925V19.2682H279.238L278.818 23.9382H279.721C280.101 23.28 280.725 22.9622 281.502 22.9622C282.592 22.9622 283.369 23.7396 283.369 24.8234C283.369 25.9242 282.598 26.6959 281.485 26.6959C280.504 26.6959 279.76 26.0945 279.67 25.2206H278.665C278.75 26.6165 279.908 27.5925 281.474 27.5925Z" fill="black"/>
<line x1="279.373" y1="0.65625" x2="279.373" y2="12.2773" stroke="#D9D9DE" stroke-width="0.726316"/>
<path d="M327.221 23.6602H328.248C329.4 23.6602 330.121 24.2276 330.115 25.2376C330.11 26.0945 329.389 26.7073 328.311 26.7073C327.221 26.7073 326.455 26.1569 326.393 25.2887H325.411C325.485 26.6449 326.614 27.5925 328.311 27.5925C329.917 27.5925 331.154 26.6108 331.154 25.2036C331.154 24.0403 330.342 23.297 329.151 23.1949V23.1722C330.178 22.9565 330.887 22.2586 330.887 21.2429C330.887 20.074 329.939 19.132 328.299 19.132C326.767 19.132 325.689 20.0229 325.576 21.4131H326.557C326.62 20.5279 327.335 20.0172 328.299 20.0172C329.349 20.0172 329.86 20.5676 329.86 21.3791C329.86 22.1962 329.179 22.7977 328.203 22.7977H327.221V23.6602ZM335.296 27.5925C337.202 27.5925 338.303 25.9412 338.303 23.3537C338.303 20.7833 337.197 19.132 335.296 19.132C333.395 19.132 332.277 20.7946 332.277 23.3594C332.277 25.9469 333.384 27.5925 335.296 27.5925ZM335.296 26.7016C334.013 26.7016 333.304 25.3965 333.304 23.3537C333.304 21.3564 334.031 20.0286 335.296 20.0286C336.561 20.0286 337.276 21.345 337.276 23.3594C337.276 25.4022 336.573 26.7016 335.296 26.7016Z" fill="black"/>
<line x1="333.121" y1="0.65625" x2="333.121" y2="12.2773" stroke="#D9D9DE" stroke-width="0.726316"/>
</svg>
