<svg width="56" height="64" viewBox="0 0 56 64" fill="none" xmlns="http://www.w3.org/2000/svg">
<path d="M15.1274 11.2C18.2202 11.2 20.7274 8.69281 20.7274 5.60001C20.7274 2.50721 18.2202 0 15.1274 0C12.0346 0 9.52734 2.50721 9.52734 5.60001C9.52734 8.69281 12.0346 11.2 15.1274 11.2Z" fill="#15A94E"/>
<path d="M40.7211 11.2C43.8139 11.2 46.3211 8.69281 46.3211 5.60001C46.3211 2.50721 43.8139 0 40.7211 0C37.6283 0 35.1211 2.50721 35.1211 5.60001C35.1211 8.69281 37.6283 11.2 40.7211 11.2Z" fill="#15A94E"/>
<path d="M55.8412 35.2799L51.2812 18.3999C51.1212 17.9199 50.8812 17.4399 50.5612 17.1199C49.0412 15.5199 47.1212 14.3199 45.0412 13.5999C43.6812 13.0399 42.2412 12.7999 40.7212 12.7999C39.2012 12.7999 37.7612 13.0399 36.4012 13.5199C34.2412 14.2399 32.4012 15.4399 30.8812 17.0399C30.5612 17.4399 30.3212 17.8399 30.1612 18.3199L27.9212 26.7199L25.6812 18.3999C25.5212 17.9199 25.2812 17.4399 24.9612 17.1199C23.4412 15.5199 21.5212 14.3199 19.4412 13.5999C18.0812 13.0399 16.6412 12.7999 15.1212 12.7999C13.6012 12.7999 12.1612 13.0399 10.8012 13.5199C8.64116 14.2399 6.80116 15.4399 5.28116 17.0399C4.96116 17.4399 4.72115 17.8399 4.56115 18.3199L0.0811475 35.1999C-0.238853 36.4799 0.401148 37.9199 1.76115 38.2399C1.92115 38.3999 2.08115 38.3999 2.32115 38.3999C3.36115 38.3999 4.32115 37.6799 4.64115 36.6399L8.72116 21.2799V39.1999V64H13.5212V39.1999H16.7212V64H21.5212V39.1999V21.2799L25.6012 36.5599C25.9212 37.5999 26.8812 38.3199 27.9212 38.3199C28.1612 38.3199 28.3212 38.3199 28.5612 38.2399C29.2812 37.9999 29.8412 37.4399 30.0812 36.7999C30.1612 36.7999 34.3212 21.2799 34.3212 21.2799V27.7599L29.7612 44.7999H34.3212V64H39.1212V44.7999H42.3212V64H47.1212V44.7999H51.6812L47.1212 27.7599V21.2799L51.2012 36.5599C51.5212 37.5999 52.4812 38.3199 53.5212 38.3199C53.7612 38.3199 53.9212 38.3199 54.1612 38.2399C55.4412 37.9199 56.1612 36.5599 55.8412 35.2799Z" fill="#15A94E"/>
</svg>
