<svg width="36" height="36" viewBox="0 0 36 36" fill="none" xmlns="http://www.w3.org/2000/svg">
<path d="M33.7347 33.2254L2.77468 2.26545C2.67136 2.16213 2.51692 2.13153 2.38228 2.18733C2.248 2.24313 2.16016 2.37453 2.16016 2.51997V33.48C2.16016 33.6791 2.32144 33.84 2.52016 33.84H33.4802C33.6256 33.84 33.7574 33.7525 33.8128 33.6179C33.8686 33.4832 33.8376 33.3284 33.7347 33.2254ZM2.88016 33.12V3.38901L5.47144 5.98029L4.597 6.85545L5.1064 7.36449L5.98084 6.48969L7.29592 7.80477L6.42148 8.67885L6.93052 9.18789L7.80496 8.31381L9.1204 9.62925L7.33336 11.4159L7.8424 11.925L9.62944 10.1383L10.9442 11.453L10.0697 12.3282L10.5791 12.8372L11.4536 11.9624L12.7686 13.2775L11.8938 14.1523L12.4029 14.6613L13.2777 13.7865L14.5931 15.102L12.8061 16.8883L13.3151 17.3973L15.1022 15.611L16.4172 16.9261L15.5428 17.8009L16.0518 18.3099L16.9263 17.4351L18.2417 18.7506L17.3666 19.625L17.8756 20.134L18.7508 19.2596L20.0658 20.5747L18.2792 22.3614L18.7882 22.8704L20.5749 21.0837L21.89 22.3988L21.0152 23.2732L21.5242 23.7823L22.399 22.9078L23.7141 24.2229L22.8393 25.0977L23.3483 25.6068L24.2231 24.732L25.5382 26.047L23.7512 27.8341L24.2602 28.3431L26.0472 26.5561L27.3627 27.8715L26.4879 28.746L26.9969 29.255L27.8717 28.3806L29.1864 29.6953L28.312 30.5704L28.821 31.0795L29.6955 30.2043L32.6111 33.12H2.88016Z" stroke="#15A94E" stroke-width="0.8"/>
<path d="M6.97112 13.9161C6.86924 13.8103 6.71336 13.7768 6.57692 13.8315C6.44048 13.8862 6.35156 14.0187 6.35156 14.1656V29.6099C6.35156 29.809 6.51284 29.9699 6.71156 29.9699H21.5475C21.6915 29.9699 21.8222 29.8839 21.8787 29.7511C21.9352 29.6186 21.9072 29.4649 21.8071 29.3608L6.97112 13.9161ZM7.07156 29.2499V15.0598L20.7026 29.2499H7.07156Z" stroke="#15A94E" stroke-width="0.8"/>
</svg>
