<svg width="30" height="32" viewBox="0 0 30 32" fill="none" xmlns="http://www.w3.org/2000/svg">
<path d="M5.35436 0.1488C5.33011 -0.0496 5.00394 -0.0496 4.97968 0.1488C4.16521 6.73312 0 8.0896 0 12.6656C0 15.4931 2.36553 17.785 5.1667 17.785C7.96915 17.785 10.334 15.4931 10.334 12.6656C10.3344 8.0896 6.16915 6.73312 5.35436 0.1488ZM25.0206 0.1488C24.9957 -0.0496 24.6702 -0.0496 24.6453 0.1488C23.8315 6.73312 19.6663 8.0896 19.6663 12.6656C19.6663 15.4931 22.0312 17.785 24.8336 17.785C27.6351 17.785 30 15.4931 30 12.6656C30 8.0896 25.8354 6.73312 25.0206 0.1488ZM14.813 14.3642C13.9982 20.9488 9.83298 22.3046 9.83298 26.8806C9.8333 29.7082 12.1982 32 15 32C17.8018 32 20.1667 29.7082 20.1667 26.8806C20.1667 22.3046 16.0021 20.9488 15.1873 14.3642C15.1628 14.1654 14.8379 14.1654 14.813 14.3642Z" fill="#15A94E"/>
</svg>
