<svg width="32" height="32" viewBox="0 0 32 32" fill="none" xmlns="http://www.w3.org/2000/svg">
<path d="M28.1062 14.375L25.75 12.0204V6.25C25.75 5.35625 25.0187 4.625 24.125 4.625H22.5C21.6063 4.625 20.875 5.35625 20.875 6.25V7.14862L17.625 3.90188C17.1814 3.48263 16.7751 3 16 3C15.2249 3 14.8186 3.48263 14.375 3.90188L3.89375 14.375C3.38675 14.9031 3 15.2882 3 16C3 16.9149 3.702 17.625 4.625 17.625H6.25V27.375C6.25 28.2687 6.98125 29 7.875 29H12.75V20.875C12.75 19.9813 13.4812 19.25 14.375 19.25H17.625C18.5188 19.25 19.25 19.9813 19.25 20.875V29H24.125C25.0187 29 25.75 28.2687 25.75 27.375V17.625H27.375C28.298 17.625 29 16.9149 29 16C29 15.2882 28.6132 14.9031 28.1062 14.375Z" fill="#15A94E"/>
</svg>
