<svg width="36" height="36" viewBox="0 0 36 36" fill="none" xmlns="http://www.w3.org/2000/svg">
<g clip-path="url(#clip0)">
<path d="M17.9995 34.0498C9.44956 34.0498 2.47461 27.0748 2.47461 18.5249C2.47461 14.7749 3.8246 11.0999 6.37458 8.24994L8.02457 9.74993C5.84959 12.1499 4.72459 15.2999 4.72459 18.5249C4.72459 25.8748 10.6496 31.7998 17.9995 31.7998C19.9495 31.7998 21.8245 31.4248 23.5495 30.5998L24.4494 32.6248C22.4245 33.5998 20.2495 34.0498 17.9995 34.0498Z" fill="#15A94E"/>
<path d="M29.5487 28.8748L27.8987 27.3748C30.0737 24.9748 31.2737 21.8248 31.2737 18.5248C31.2737 11.1749 25.3487 5.24992 17.9988 5.24992C16.0488 5.24992 14.1738 5.62492 12.4488 6.44992L11.5488 4.42495C13.5738 3.52495 15.7488 2.99994 17.9988 2.99994C26.5487 2.99994 33.5237 9.9749 33.5237 18.5248C33.5237 22.3498 32.0987 26.0248 29.5487 28.8748Z" fill="#15A94E"/>
<path d="M9.59993 17.3248H7.19995V10.1248H0V7.72485H9.59993V17.3248Z" fill="#15A94E"/>
<path d="M36.0003 29.3247H26.4004V19.7248H28.8004V26.9247H36.0003V29.3247Z" fill="#15A94E"/>
<path d="M17.855 11.1171C17.8737 10.961 18.1263 10.961 18.145 11.1171C18.7758 16.3002 22.0002 17.368 22 20.9701C22 23.1959 20.1692 25 17.9998 25C15.8313 25 14 23.1959 14 20.9701C14 17.368 17.2245 16.3002 17.855 11.1171Z" fill="#15A94E"/>
</g>
<defs>
<clipPath id="clip0">
<rect y="2" width="36" height="32" fill="white"/>
</clipPath>
</defs>
</svg>
