<svg width="43" height="46" viewBox="0 0 43 46" fill="none" xmlns="http://www.w3.org/2000/svg">
<g clip-path="url(#clip0)">
<path d="M0.199219 14.9009C8.96561 14.0752 13.5104 9.00342 14.3281 0C15.1078 3.87265 15.7924 7.64701 18.5687 10.5368C21.326 13.4068 24.901 14.2521 28.6662 14.8812C19.8238 15.6282 15.2789 20.6803 14.5563 29.6641C14.4612 29.6444 14.3852 29.6248 14.2901 29.6051C14.214 29.153 14.119 28.7205 14.0429 28.2684C13.4914 24.9068 12.5977 21.7026 10.2017 19.1863C8.43316 17.3188 6.2273 16.2376 3.77423 15.6675C2.59524 15.3923 1.39723 15.1564 0.199219 14.9009Z" fill="#15A94E"/>
<path d="M24.4062 29.3299C29.7117 28.6615 32.7163 25.6538 33.3248 20.1299C33.629 21.2504 33.8192 22.4299 34.2756 23.4718C34.732 24.553 35.3215 25.6538 36.1201 26.4991C36.8808 27.3051 37.9457 27.8948 38.9535 28.347C39.9994 28.8188 41.1594 29.0547 42.2433 29.3692C39.9994 29.6641 37.8696 30.2931 36.1391 31.9837C34.3897 33.7136 33.8762 35.994 33.3248 38.3726C32.6402 32.947 29.7498 29.9 24.4062 29.3299Z" fill="#15A94E"/>
<path d="M18.3588 45.9999C17.7503 42.5204 15.9057 40.4367 12.4258 39.9452C15.7916 39.3751 17.7883 37.4093 18.3588 33.8315C18.9673 37.3503 20.9069 39.3751 24.3108 39.9256C20.8689 40.4563 18.9673 42.4811 18.3588 45.9999Z" fill="#15A94E"/>
</g>
<defs>
<clipPath id="clip0">
<rect x="0.199219" width="42.0444" height="46" fill="white"/>
</clipPath>
</defs>
</svg>
