<svg width="46" height="46" viewBox="0 0 46 46" fill="none" xmlns="http://www.w3.org/2000/svg">
<g clip-path="url(#clip0)">
<path d="M24.7672 0C24.9478 0.0601982 25.1198 0.146196 25.309 0.171995C25.7734 0.232193 26.2378 0.257992 26.7624 0.309591C26.7108 0.533184 26.6936 0.67078 26.6592 0.799776C26.3324 1.88334 26.9086 3.11311 27.8804 3.45709C29.2133 3.93008 30.3829 3.3539 30.7699 2.21873C31.0279 1.47056 31.0451 1.48775 31.819 1.79735C33.7282 2.56272 35.4653 3.62909 37.1079 4.85885C37.2799 4.98785 37.4261 5.13404 37.5809 5.27164C36.4543 6.82819 36.3683 7.92036 37.2885 8.80613C38.1742 9.65751 39.361 9.54571 40.6854 8.47934C41.4679 8.89213 43.5749 12.4524 44.5122 14.9463C44.1339 15.1183 43.7383 15.2645 43.3685 15.4795C42.5429 15.9525 42.3107 16.7179 42.4225 17.5951C42.5171 18.3776 42.9213 18.971 43.6867 19.2806C44.2285 19.5042 44.7702 19.5128 45.3206 19.3236C45.4066 19.2892 45.5098 19.2978 45.6732 19.2892C46.1204 21.7831 46.1204 24.2427 45.6646 26.771C45.4668 26.7194 45.3206 26.685 45.1658 26.6506C44.1167 26.4098 42.8439 26.7796 42.4741 28.1297C42.1989 29.1445 42.5343 30.3055 43.7727 30.7613C44.5208 31.0365 44.5294 31.0451 44.2113 31.8362C43.4287 33.8056 42.3279 35.5857 41.038 37.2541C40.952 37.3659 40.8488 37.4605 40.7284 37.6067C40.0662 36.9703 39.3524 36.4973 38.3978 36.6865C37.9162 36.7811 37.4863 36.9875 37.1509 37.3745C36.3769 38.2688 36.5145 39.4126 37.5981 40.78C37.1423 41.1325 36.7037 41.5023 36.2307 41.8205C34.6999 42.8611 33.0918 43.7641 31.3632 44.4348C31.0537 44.5552 31.0021 44.4692 30.9247 44.2285C30.7441 43.6695 30.5205 43.1363 30.0131 42.7751C29.2907 42.2763 28.1211 42.2935 27.3988 42.8267C26.7624 43.2911 26.4184 44.3746 26.6506 45.183C26.685 45.3206 26.728 45.4496 26.7796 45.6732C24.2599 46.1376 21.7831 46.129 19.2548 45.6818C19.6246 44.3489 19.5386 43.1449 18.154 42.6117C16.3739 41.9237 15.4279 42.9213 14.9721 44.5552C12.5384 43.6351 10.3885 42.3795 8.39334 40.7628C9.01253 40.1006 9.53711 39.4298 9.33932 38.5268C9.24472 38.0882 9.04692 37.6067 8.74593 37.2799C7.90316 36.3597 6.81959 36.4801 5.24584 37.6067C4.89325 37.1509 4.50626 36.7209 4.18807 36.2393C3.1561 34.6999 2.25313 33.1004 1.58235 31.3718C1.45336 31.0537 1.57375 31.0107 1.81454 30.9333C2.37353 30.7527 2.90671 30.5205 3.2593 30.0131C3.75809 29.2907 3.73229 28.1125 3.1991 27.3988C2.72612 26.7452 1.63395 26.4012 0.834175 26.642C0.696579 26.685 0.567583 26.7194 0.31819 26.7796C0.266592 26.2808 0.232193 25.8336 0.171995 25.395C0.146196 25.18 0.0601982 24.9736 0 24.7672C0 23.5891 0 22.4195 0 21.2414C0.0601982 21.035 0.146196 20.8286 0.171995 20.6136C0.232193 20.1664 0.266592 19.7278 0.31819 19.229C0.558983 19.2978 0.696579 19.3322 0.834175 19.3666C1.64255 19.6074 2.70892 19.272 3.1905 18.627C3.72369 17.9219 3.75809 16.7781 3.2765 16.0557C2.91531 15.5053 2.34773 15.2903 1.76295 15.0839C1.55655 15.0151 1.46196 14.9635 1.56515 14.697C2.24453 12.9426 3.1475 11.3087 4.21387 9.7607C4.53206 9.28772 4.90185 8.86633 5.16844 8.51374C5.82202 8.82333 6.36381 9.18452 6.95719 9.33072C7.61937 9.49411 8.29875 9.27912 8.74593 8.74593C9.02973 8.40194 9.23612 7.94616 9.33932 7.50757C9.53711 6.6046 9.01253 5.93382 8.41914 5.29744C8.57394 5.15124 8.69434 5.01365 8.84053 4.90185C10.4917 3.65489 12.2374 2.57992 14.1552 1.80595C14.9721 1.47915 14.9635 1.47056 15.2731 2.24453C15.7547 3.45709 16.8641 3.90428 18.1884 3.4313C19.1086 3.09591 19.6676 1.84034 19.3494 0.791176C19.3064 0.66218 19.2892 0.524584 19.2462 0.300991C19.7794 0.257992 20.2438 0.223593 20.6996 0.171995C20.8802 0.146196 21.0608 0.0601982 21.2414 0C22.4195 0 23.5891 0 24.7672 0ZM44.5294 22.9871C44.5294 22.9871 44.538 22.9871 44.5294 22.9871C44.538 22.4453 44.5466 21.8949 44.5294 21.3531C44.5208 21.0436 44.4434 20.7942 44.0393 20.7856C43.8759 20.7856 43.7125 20.6996 43.5491 20.648C42.0957 20.1492 41.0036 18.7732 40.995 17.2425C40.9864 16.1331 41.5023 15.2559 42.3193 14.5336C42.5601 14.3186 42.7063 14.1122 42.5257 13.8026C41.9065 12.7448 41.2873 11.687 40.6682 10.6207C40.5306 10.3885 40.3672 10.3885 40.1264 10.4659C39.7394 10.5863 39.3352 10.6981 38.931 10.7411C38.2602 10.8099 37.6497 10.5691 37.0735 10.2337C35.6545 9.39951 34.7773 7.62797 35.4911 5.94242C35.6287 5.60703 35.5685 5.43503 35.2933 5.28024C34.2786 4.69546 33.2638 4.11927 32.2576 3.52589C31.9222 3.3281 31.7072 3.3969 31.4578 3.68929C30.8043 4.44606 29.9787 4.93625 28.9639 5.00505C27.201 5.11684 25.524 3.73229 25.2058 1.91774C25.1628 1.65975 25.0768 1.49635 24.8188 1.49635C23.6063 1.48775 22.3851 1.48775 21.1726 1.50495C21.0522 1.50495 20.8802 1.66835 20.82 1.79735C20.7254 1.99514 20.7082 2.23593 20.6394 2.45093C20.1664 3.88708 18.7646 4.98785 17.2855 5.01365C16.1589 5.03085 15.2731 4.50626 14.5336 3.69789C14.3358 3.48289 14.138 3.3023 13.8456 3.46569C12.7534 4.09348 11.6698 4.72126 10.6035 5.37484C10.5003 5.43503 10.4143 5.71023 10.4659 5.83062C10.7583 6.596 10.8529 7.33558 10.5949 8.15255C10.0445 9.9241 7.93756 11.3517 5.95102 10.5089C5.62423 10.3713 5.44363 10.4143 5.28884 10.6981C4.69546 11.7128 4.11928 12.7276 3.52589 13.7338C3.3281 14.0692 3.4055 14.2928 3.68929 14.5422C4.42887 15.1871 4.93625 15.9955 4.99645 16.9931C5.11684 18.7904 3.74089 20.476 1.91774 20.8028C1.66835 20.8458 1.49635 20.9318 1.49635 21.1812C1.48775 22.3937 1.47916 23.6149 1.50495 24.8274C1.50495 24.9478 1.66835 25.1198 1.78875 25.18C1.98654 25.2746 2.22733 25.3004 2.44233 25.3606C3.79248 25.7304 4.98785 27.2698 5.00505 28.6715C5.02225 29.8153 4.51486 30.7269 3.68929 31.4664C3.46569 31.6642 3.2937 31.8706 3.4571 32.1544C4.06768 33.2294 4.70406 34.3044 5.32324 35.3793C5.46943 35.6287 5.65003 35.6201 5.89942 35.5341C6.26921 35.4051 6.6648 35.3105 7.05179 35.2675C7.76556 35.1815 8.40195 35.4481 8.98673 35.8093C10.3885 36.6865 11.2055 38.4408 10.4917 40.1006C10.3713 40.3758 10.3885 40.5478 10.6551 40.7026C11.6698 41.2873 12.6846 41.8721 13.6908 42.4741C14.052 42.6891 14.2842 42.6203 14.5594 42.3021C15.2043 41.5625 16.0213 41.0723 17.0189 41.0121C18.7646 40.9176 20.4072 42.2161 20.7684 44.0135C20.8544 44.452 21.078 44.5466 21.4305 44.5552C22.4625 44.5638 23.4945 44.5638 24.5265 44.5552C24.922 44.5552 25.2316 44.4606 25.2316 43.9619C25.2316 43.8157 25.309 43.6609 25.3606 43.5147C25.8508 42.1301 27.1236 41.0981 28.5855 41.0121C29.7551 40.952 30.7011 41.4679 31.4578 42.3365C31.6642 42.5687 31.8706 42.7063 32.1544 42.5515C33.2294 41.9323 34.2958 41.2959 35.3707 40.6768C35.5857 40.5478 35.6115 40.393 35.5255 40.178C35.2331 39.4298 35.1557 38.6988 35.3965 37.8904C35.9211 36.1103 38.0882 34.6397 40.1006 35.5341C40.3586 35.6459 40.5306 35.6201 40.6682 35.3707C41.2615 34.3474 41.8549 33.324 42.4569 32.3006C42.6633 31.9566 42.5859 31.7244 42.2763 31.4664C41.5109 30.8129 41.038 29.9787 40.9778 28.9639C40.8832 27.2096 42.2333 25.567 44.0479 25.2316C44.3833 25.1714 44.4865 24.9994 44.4951 24.7242C44.538 24.1395 44.5294 23.5633 44.5294 22.9871Z" fill="#15A94E"/>
<path d="M7.21484 22.9959C7.21484 14.3875 14.4128 7.20674 23.0126 7.21534C31.6467 7.22394 38.7845 14.3961 38.7931 22.9701C38.8103 31.6214 31.6295 38.8796 22.8234 38.7936C14.3784 38.7076 7.22344 31.6472 7.21484 22.9959ZM8.5994 23.0045C8.6682 31.1226 14.9718 37.409 23.047 37.3832C31.1049 37.3574 37.4343 31.0366 37.3827 22.9099C37.3397 14.8777 31.0275 8.5397 22.8664 8.6085C14.8342 8.68589 8.6768 14.9551 8.5994 23.0045Z" fill="#15A94E"/>
<path d="M23.9928 20.8459C24.1906 20.8459 24.3453 20.8459 24.5001 20.8459C26.0653 20.8459 27.6219 20.8545 29.187 20.8373C29.5998 20.8287 29.9352 20.9233 30.1244 21.2845C30.3136 21.6543 30.0814 21.9553 29.875 22.2477C29.3762 22.9357 28.8688 23.6237 28.37 24.3116C26.9511 26.2638 25.5321 28.2245 24.1132 30.1767C23.0726 31.6214 22.032 33.0662 20.9915 34.5109C20.8711 34.6743 20.7765 34.8893 20.6217 34.9753C20.4067 35.0871 20.1143 35.1903 19.8907 35.1387C19.5983 35.0699 19.3747 34.7947 19.4435 34.4507C19.5467 33.9347 19.6843 33.436 19.8305 32.9286C20.0369 32.2148 20.2691 31.5096 20.4755 30.7872C20.7507 29.8155 21.0086 28.8351 21.2838 27.8633C21.5332 26.9948 21.7826 26.1262 22.0578 25.1974C21.8514 25.1802 21.688 25.1544 21.5246 25.1544C19.9337 25.1544 18.3427 25.1372 16.7518 25.1544C16.3648 25.1544 16.0724 25.0426 15.9004 24.7158C15.7284 24.3976 15.8832 24.1396 16.081 23.8644C17.328 22.1445 18.5663 20.4246 19.8047 18.696C21.5504 16.2623 23.3048 13.8372 25.0591 11.4034C25.1193 11.326 25.1795 11.24 25.2397 11.1626C25.5579 10.767 25.8761 10.6639 26.1943 10.853C26.5383 11.0508 26.6673 11.4808 26.5469 11.9022C26.0825 13.4846 25.6267 15.0755 25.1537 16.6579C24.8097 17.8274 24.4485 18.997 24.1046 20.1666C24.0444 20.373 24.0358 20.5707 23.9928 20.8459ZM23.9326 15.6517C23.881 15.6345 23.8294 15.6173 23.7864 15.6087C21.8514 18.2918 19.9079 20.9663 17.9213 23.7183C18.1793 23.7269 18.3427 23.7441 18.5147 23.7441C19.9939 23.7441 21.4644 23.7355 22.9436 23.7441C23.5284 23.7441 23.881 24.303 23.6746 24.8448C23.5542 25.163 23.451 25.4812 23.3564 25.808C23.0038 26.9776 22.6512 28.1557 22.3158 29.3253C22.2212 29.6521 22.161 29.9961 22.0922 30.3315C22.1438 30.3487 22.1954 30.3659 22.2384 30.3831C24.1734 27.6999 26.1083 25.0254 28.1034 22.2563C27.8196 22.2563 27.6477 22.2563 27.4843 22.2563C26.0223 22.2563 24.5603 22.2563 23.0984 22.2563C22.548 22.2563 22.1954 21.8435 22.3158 21.3447C22.376 21.0953 22.462 20.8545 22.5308 20.6137C22.9264 19.2636 23.3306 17.9134 23.7262 16.5633C23.8122 16.2709 23.8638 15.9613 23.9326 15.6517Z" fill="#15A94E"/>
<path d="M11.5488 22.3076C12.0046 22.3076 12.426 22.3076 12.8904 22.3076C12.8904 22.7634 12.8904 23.2106 12.8904 23.6836C12.4432 23.6836 12.0132 23.6836 11.5488 23.6836C11.5488 23.2364 11.5488 22.7978 11.5488 22.3076Z" fill="#15A94E"/>
<path d="M34.4587 23.7007C34.003 23.7007 33.5816 23.7007 33.1172 23.7007C33.1172 23.2449 33.1172 22.7977 33.1172 22.3247C33.5644 22.3247 33.9944 22.3247 34.4587 22.3247C34.4587 22.7719 34.4587 23.2105 34.4587 23.7007Z" fill="#15A94E"/>
</g>
<defs>
<clipPath id="clip0">
<rect width="46" height="46" fill="white"/>
</clipPath>
</defs>
</svg>
