<svg width="46" height="46" viewBox="0 0 46 46" fill="none" xmlns="http://www.w3.org/2000/svg">
<path fill-rule="evenodd" clip-rule="evenodd" d="M37.2519 18.8931C36.6237 12.3337 31.1626 7.1875 24.438 7.1875C19.2357 7.1875 14.7823 10.2752 12.7281 14.7056C12.11 14.5101 11.466 14.375 10.7832 14.375C7.21102 14.375 4.31445 17.273 4.31445 20.8438C4.31445 21.5539 4.45677 22.2252 4.66808 22.862C1.88939 24.4821 0.00195312 27.4548 0.00195312 30.9034C0.00195312 36.064 4.18508 40.2471 9.3457 40.2471V40.25H35.2193V40.2471C41.1748 40.2471 46.0005 35.4214 46.0005 29.4659C46.0005 24.2104 42.2328 19.8447 37.2519 18.8931ZM35.2193 37.3721V37.375H9.3457C5.77927 37.3721 2.87695 34.4712 2.87695 30.9034C2.87695 28.6034 4.08877 26.5262 6.11708 25.3446C8.08789 24.2133 8.22302 23.989 7.39645 21.9564C7.25702 21.5381 7.18945 21.1744 7.18945 20.8452C7.18945 18.8629 8.80089 17.2514 10.7832 17.2514C10.7832 17.2514 11.7262 17.1839 12.7281 17.5821C14.377 18.239 14.5566 17.6108 15.3358 15.916C16.9846 12.3611 20.5568 10.0625 24.438 10.0625C29.613 10.0625 33.891 13.9768 34.3913 19.1676C34.5681 21.2261 34.5681 21.2261 36.7128 21.7163C40.4302 22.4264 43.1255 25.6867 43.1255 29.4659C43.1255 33.8258 39.5792 37.3721 35.2193 37.3721Z" fill="#15A94E"/>
</svg>
