<svg width="46" height="28" viewBox="0 0 46 28" fill="none" xmlns="http://www.w3.org/2000/svg">
<g clip-path="url(#clip0)">
<path d="M0 1.82639C0.573655 0.443236 1.61341 -0.0532807 3.11925 -8.2433e-05C5.73655 0.0885813 8.37179 0.0176503 11.007 0.0176503C11.7241 0.0176503 12.4412 -0.0355479 13.0865 0.372305C13.2479 0.496434 13.4451 0.5319 13.6064 0.425503C14.5027 -0.159677 15.5066 0.0353831 16.4926 0.0353831C18.8231 0.0176503 21.1535 0.0353831 23.484 0.0353831C24.2369 0.0353831 24.9899 -0.0178152 25.6532 0.390038C25.8145 0.478702 25.9938 0.549633 26.1551 0.443236C27.0514 -0.159677 28.0553 0.0531158 29.0234 0.0531158C31.5331 0.0353831 34.0429 0.0353831 36.5526 0.0531158C38.4349 0.0531158 39.2954 0.904288 39.2954 2.74849C39.2954 3.77699 39.3133 4.82322 39.2954 5.85172C39.2775 6.4369 39.5284 6.6497 40.0842 6.63196C41.1598 6.61423 42.2354 6.61423 43.311 6.63196C45.014 6.6497 45.9104 7.53633 45.9283 9.18548C45.9283 10.2849 46.0538 11.3843 45.8924 12.466C45.7311 13.4945 45.749 14.4698 45.8924 15.5161C46.0538 16.6687 46.0538 17.8923 45.8924 19.0449C45.749 20.0734 45.7311 21.0487 45.8924 22.0949C46.0717 23.2475 45.9462 24.4534 45.9283 25.6415C45.9104 26.9182 44.9961 27.9113 43.7054 27.929C40.5323 27.9645 37.3772 28.0354 34.2042 27.8935C33.1645 27.8581 32.1785 27.8049 31.1387 27.8758C27.9478 28.0709 24.7568 28.0177 21.5659 27.8935C20.562 27.8581 19.5939 27.8226 18.59 27.8758C15.3991 28.0531 12.2081 28.0177 9.01715 27.8935C8.01325 27.8581 7.09899 27.663 6.04131 27.8935C4.87607 28.1595 3.60327 27.9822 2.38426 27.9467C1.18316 27.9113 0.537802 27.1133 0.0179267 26.1557C0 18.0341 0 9.93025 0 1.82639ZM32.2143 6.57877C33.7381 6.57877 35.2619 6.57877 36.7857 6.5965C37.4489 6.5965 37.8075 6.34824 37.8075 5.65666C37.8075 4.5927 37.8075 3.52873 37.8075 2.46477C37.8075 1.86186 37.4669 1.52493 36.8574 1.52493C33.8098 1.52493 30.7623 1.52493 27.7147 1.52493C27.0514 1.52493 26.7467 1.86186 26.7467 2.51797C26.7646 3.54647 26.7646 4.5927 26.7467 5.6212C26.7467 6.29504 27.0694 6.57877 27.7327 6.57877C29.2206 6.56103 30.7085 6.57877 32.2143 6.57877ZM7.06313 6.57877C8.58691 6.57877 10.1107 6.57877 11.6344 6.5965C12.2798 6.5965 12.5666 6.34824 12.5487 5.69213C12.5308 4.5927 12.5308 3.511 12.5487 2.41157C12.5666 1.75546 12.226 1.5072 11.6165 1.5072C8.64069 1.5072 5.64692 1.5072 2.67108 1.5072C1.97194 1.52493 1.61341 1.82639 1.61341 2.55343C1.63133 3.58193 1.63133 4.61043 1.61341 5.65666C1.59548 6.33051 1.90023 6.61423 2.58145 6.5965C4.06937 6.56103 5.57521 6.57877 7.06313 6.57877ZM19.7194 6.57877C21.2073 6.56103 22.7132 6.56103 24.2011 6.57877C24.7927 6.57877 25.0974 6.38371 25.0974 5.76306C25.0795 4.6459 25.0974 3.511 25.0974 2.39384C25.0974 1.80866 24.8106 1.52493 24.219 1.52493C21.2073 1.52493 18.1956 1.52493 15.1839 1.52493C14.4669 1.52493 14.18 1.89732 14.198 2.5889C14.2159 3.5642 14.2338 4.5395 14.198 5.5148C14.1621 6.33051 14.5565 6.5965 15.3453 6.57877C16.7973 6.56103 18.2673 6.57877 19.7194 6.57877ZM26.2985 26.2976C27.7864 26.3153 29.2923 26.2798 30.7802 26.3153C31.5869 26.333 31.9096 25.9961 31.8917 25.1981C31.8558 24.2583 31.8737 23.3007 31.8917 22.3609C31.9096 21.6516 31.5869 21.3501 30.8698 21.3501C27.8581 21.3679 24.8465 21.3679 21.8348 21.3324C21.0818 21.3324 20.8309 21.6693 20.8488 22.3609C20.8667 23.3362 20.8846 24.3115 20.8488 25.2868C20.8309 26.0139 21.1177 26.2976 21.8527 26.2798C23.3048 26.2798 24.8106 26.2976 26.2985 26.2976ZM38.8652 26.3153C38.8652 26.2976 38.8652 26.2976 38.8652 26.3153C40.4069 26.2976 41.9665 26.2976 43.5082 26.2976C44.1535 26.2976 44.4224 26.0316 44.4224 25.3932C44.4045 24.3292 44.4224 23.2653 44.4224 22.2013C44.4224 21.6161 44.1356 21.3501 43.544 21.3501C40.4786 21.3679 37.3952 21.3679 34.3297 21.3679C33.7023 21.3679 33.3975 21.6693 33.3975 22.29C33.3975 23.3007 33.4154 24.2938 33.3975 25.3045C33.3796 26.0671 33.756 26.333 34.509 26.333C35.9431 26.2976 37.4131 26.3153 38.8652 26.3153ZM38.9189 8.21018C37.3952 8.22791 35.8714 8.22791 34.3655 8.21018C33.6843 8.21018 33.3796 8.4939 33.3975 9.16775C33.4154 10.1785 33.4154 11.1715 33.3975 12.1823C33.3796 12.9094 33.756 13.1576 34.4552 13.1576C37.431 13.1399 40.4248 13.1399 43.4006 13.1576C44.1715 13.1576 44.4762 12.8207 44.4583 12.0936C44.4404 11.1538 44.4224 10.1962 44.4583 9.25641C44.4942 8.4939 44.1535 8.19245 43.4006 8.21018C41.8948 8.22791 40.4069 8.21018 38.9189 8.21018ZM32.2681 19.7187C33.756 19.7187 35.244 19.701 36.7319 19.7365C37.5027 19.7542 37.8075 19.435 37.7896 18.6902C37.7716 17.7504 37.7716 16.8106 37.7896 15.853C37.8075 15.0905 37.4489 14.789 36.714 14.789C33.7023 14.8068 30.6906 14.8068 27.6789 14.789C26.9797 14.789 26.7288 15.1082 26.7288 15.7643C26.7467 16.7396 26.7646 17.7149 26.7288 18.6902C26.7108 19.435 27.0156 19.7542 27.7864 19.7365C29.2923 19.701 30.7802 19.7187 32.2681 19.7187ZM26.3523 8.21018C26.3523 8.21018 26.3523 8.22791 26.3523 8.21018C24.8285 8.21018 23.3048 8.22791 21.781 8.21018C21.0998 8.19245 20.795 8.47617 20.8309 9.15001C20.8667 10.1253 20.8488 11.1006 20.8309 12.0759C20.8129 12.8207 21.1356 13.1576 21.8885 13.1399C24.8465 13.1221 27.8044 13.1221 30.7623 13.1399C31.5869 13.1399 31.8917 12.7675 31.8737 12.005C31.8558 11.0829 31.8379 10.1785 31.8737 9.25641C31.9096 8.4407 31.5331 8.15698 30.7443 8.17471C29.2744 8.24564 27.8223 8.21018 26.3523 8.21018ZM13.7857 21.3679C12.2619 21.3679 10.7381 21.3856 9.21434 21.3679C8.58691 21.3679 8.26422 21.5629 8.28215 22.2368C8.30008 23.3007 8.30008 24.3647 8.28215 25.4287C8.26422 26.067 8.56898 26.333 9.21434 26.3153C12.226 26.2976 15.2377 26.2976 18.2494 26.3153C18.8769 26.3153 19.1995 26.1202 19.1816 25.4464C19.1637 24.3824 19.1637 23.3185 19.1816 22.2545C19.1995 21.6161 18.9127 21.3501 18.2673 21.3679C16.7615 21.3679 15.2736 21.3679 13.7857 21.3679ZM13.6781 13.1576C15.2019 13.1576 16.7256 13.1399 18.2494 13.1576C18.8769 13.1576 19.2175 12.9626 19.1995 12.2887C19.1816 11.2247 19.1816 10.1608 19.1995 9.09682C19.2175 8.4407 18.8769 8.21018 18.2673 8.21018C15.2198 8.21018 12.1723 8.21018 9.14263 8.21018C8.53312 8.21018 8.28215 8.4939 8.30008 9.07908C8.318 10.1076 8.33593 11.1538 8.30008 12.1823C8.28215 12.9271 8.60483 13.1753 9.3219 13.1576C10.7381 13.1399 12.2081 13.1576 13.6781 13.1576ZM6.99143 19.7187C8.5152 19.7187 10.039 19.701 11.5627 19.7187C12.226 19.7365 12.5666 19.5059 12.5487 18.7966C12.5129 17.7681 12.5308 16.7219 12.5487 15.6934C12.5666 15.055 12.2977 14.7713 11.6524 14.7713C8.60483 14.7713 5.55729 14.7713 2.52767 14.7713C1.86438 14.7713 1.63133 15.0727 1.63133 15.6934C1.64926 16.6687 1.66719 17.644 1.63133 18.6193C1.59548 19.4173 1.88231 19.7365 2.70694 19.7187C4.12315 19.6833 5.55729 19.7187 6.99143 19.7187ZM19.6298 14.789C18.1419 14.789 16.6539 14.8068 15.1481 14.789C14.4669 14.7713 14.1621 15.0196 14.18 15.7111C14.2159 16.7396 14.198 17.7681 14.18 18.8144C14.1621 19.4527 14.4489 19.7187 15.0943 19.7187C18.1419 19.701 21.1715 19.701 24.219 19.7187C24.8823 19.7187 25.1154 19.3995 25.0974 18.7789C25.0795 17.7681 25.0616 16.7751 25.0974 15.7643C25.1154 15.0373 24.8106 14.7536 24.0935 14.7713C22.6056 14.8068 21.1177 14.789 19.6298 14.789ZM41.8948 19.7187C42.4684 19.7187 43.0242 19.7187 43.5978 19.7187C44.0998 19.7187 44.4045 19.5059 44.4224 18.9917C44.4404 17.8391 44.4404 16.6864 44.4224 15.5338C44.4224 15.0373 44.0998 14.789 43.6157 14.789C42.4505 14.789 41.2853 14.789 40.12 14.789C39.6002 14.789 39.3313 15.055 39.3313 15.5515C39.3133 16.651 39.3133 17.7327 39.3313 18.8321C39.3313 19.4173 39.636 19.701 40.2097 19.7187C40.7654 19.7187 41.3211 19.7187 41.8948 19.7187ZM4.0873 13.1576C4.58924 13.1576 5.10912 13.1399 5.61107 13.1753C6.32814 13.2108 6.65082 12.9448 6.63289 12.2C6.59704 11.1715 6.61496 10.143 6.63289 9.09682C6.63289 8.51163 6.39984 8.22791 5.79033 8.22791C4.71473 8.24564 3.63913 8.24564 2.56352 8.22791C1.86438 8.21018 1.61341 8.5471 1.63133 9.20321C1.64926 10.214 1.66719 11.207 1.63133 12.2178C1.61341 12.9626 1.95401 13.2285 2.67108 13.1753C3.11925 13.1221 3.60327 13.1576 4.0873 13.1576ZM4.03351 26.3153C4.53546 26.3153 5.05534 26.2976 5.55729 26.3153C6.31021 26.3508 6.66875 26.0671 6.61496 25.2868C6.57911 24.7903 6.59704 24.276 6.59704 23.7795C6.59704 20.96 6.91972 21.3856 4.10522 21.3679C1.2728 21.3501 1.59548 20.9955 1.61341 23.8682C1.64926 26.5458 1.23694 26.3153 4.03351 26.3153Z" fill="#15A94E"/>
</g>
<defs>
<clipPath id="clip0">
<rect width="46" height="28" fill="white"/>
</clipPath>
</defs>
</svg>
