<svg width="1920" height="544" viewBox="0 0 1920 544" fill="none" xmlns="http://www.w3.org/2000/svg">
<g opacity="0.15">
<g clip-path="url(#clip0)">
<path fill-rule="evenodd" clip-rule="evenodd" d="M7.30664 385.393L118.085 415.347L230.71 321.961L347.906 289.364L455.959 177.478L566.737 149.286L679.362 230.338L790.14 274.387L904.611 240.91L1015.39 230.338L1128.01 265.577L1241.76 229.457L1351.42 290.245L1464.04 307.865L1576.67 240.91H1687.44L1800.07 230.338L1912.69 161.62L1913.55 544L7.30664 448.824" fill="url(#paint0_linear)" fill-opacity="0.1"/>
<path fill-rule="evenodd" clip-rule="evenodd" d="M566.952 148.208L679.846 229.454L790.187 273.33L902.574 239.923L1015.49 229.324L1128.01 262.771L1241.87 228.377L1351.75 289.285L1463.84 306.821L1576.39 239.91H1689.24L1799.74 229.364L1912.17 160.766L1913.21 162.474L1800.39 231.311L1689.34 241.91H1576.94L1464.24 308.909L1351.09 291.206L1241.64 230.536L1128.02 264.859L1015.29 231.351L902.956 241.896L790.093 275.445L678.878 231.221L566.522 150.364L454.636 176.62L348.445 290.252L231.192 322.865L122.045 416.434L7.08154 389.891L7.53148 387.942L121.51 414.258L230.227 321.057L347.367 288.476L453.589 174.812L566.952 148.208Z" fill="#990505"/>
<path d="M15 389C15 392.25 12.156 395 8.5 395C4.84405 395 2 392.25 2 389C2 385.75 4.84405 383 8.5 383C12.156 383 15 385.75 15 389Z" fill="white" stroke="#990505" stroke-width="2"/>
<path d="M127 415C127 418.314 124.314 421 121 421C117.686 421 115 418.314 115 415C115 411.686 117.686 409 121 409C124.314 409 127 411.686 127 415Z" fill="white" stroke="#990505" stroke-width="2"/>
<path d="M235 323.5C235 327.09 232.09 330 228.5 330C224.91 330 222 327.09 222 323.5C222 319.91 224.91 317 228.5 317C232.09 317 235 319.91 235 323.5Z" fill="white" stroke="#990505" stroke-width="2"/>
<path d="M460 178C460 181.866 456.866 185 453 185C449.134 185 446 181.866 446 178C446 174.134 449.134 171 453 171C456.866 171 460 174.134 460 178Z" fill="white" stroke="#990505" stroke-width="2"/>
<path d="M351 289.5C351 293.09 348.09 296 344.5 296C340.91 296 338 293.09 338 289.5C338 285.91 340.91 283 344.5 283C348.09 283 351 285.91 351 289.5Z" fill="white" stroke="#990505" stroke-width="2"/>
<path d="M571.945 151.048C571.945 154.337 569.112 157.096 565.502 157.096C561.891 157.096 559.059 154.337 559.059 151.048C559.059 147.758 561.891 145 565.502 145C569.112 145 571.945 147.758 571.945 151.048Z" fill="white" stroke="#990505" stroke-width="2"/>
<path d="M684.764 230.338C684.764 233.627 681.932 236.385 678.321 236.385C674.711 236.385 671.878 233.627 671.878 230.338C671.878 227.048 674.711 224.29 678.321 224.29C681.932 224.29 684.764 227.048 684.764 230.338Z" fill="white" stroke="#990505" stroke-width="2"/>
<path d="M797.644 272.625C797.644 275.915 794.811 278.673 791.201 278.673C787.591 278.673 784.758 275.915 784.758 272.625C784.758 269.336 787.591 266.577 791.201 266.577C794.811 266.577 797.644 269.336 797.644 272.625Z" fill="white" stroke="#990505" stroke-width="2"/>
<path d="M910.577 241.361C910.577 244.951 907.667 247.861 904.077 247.861C900.488 247.861 897.577 244.951 897.577 241.361C897.577 237.771 900.488 234.861 904.077 234.861C907.667 234.861 910.577 237.771 910.577 241.361Z" fill="white" stroke="#990505" stroke-width="2"/>
<path d="M1024.38 231.29C1024.38 235.156 1021.24 238.29 1017.38 238.29C1013.51 238.29 1010.38 235.156 1010.38 231.29C1010.38 227.424 1013.51 224.29 1017.38 224.29C1021.24 224.29 1024.38 227.424 1024.38 231.29Z" fill="white" stroke="#990505" stroke-width="2"/>
<path d="M1135 262C1135 265.314 1132.31 268 1129 268C1125.69 268 1123 265.314 1123 262C1123 258.686 1125.69 256 1129 256C1132.31 256 1135 258.686 1135 262Z" fill="white" stroke="#990505" stroke-width="2"/>
<path d="M1248 230C1248 233.314 1245.31 236 1242 236C1238.69 236 1236 233.314 1236 230C1236 226.686 1238.69 224 1242 224C1245.31 224 1248 226.686 1248 230Z" fill="white" stroke="#990505" stroke-width="2"/>
<path d="M1362 291C1362 294.314 1359.31 297 1356 297C1352.69 297 1350 294.314 1350 291C1350 287.686 1352.69 285 1356 285C1359.31 285 1362 287.686 1362 291Z" fill="white" stroke="#990505" stroke-width="2"/>
<path d="M1469 306.5C1469 309.538 1466.54 312 1463.5 312C1460.46 312 1458 309.538 1458 306.5C1458 303.462 1460.46 301 1463.5 301C1466.54 301 1469 303.462 1469 306.5Z" fill="white" stroke="#990505" stroke-width="2"/>
<path d="M1585 241C1585 244.314 1582.31 247 1579 247C1575.69 247 1573 244.314 1573 241C1573 237.686 1575.69 235 1579 235C1582.31 235 1585 237.686 1585 241Z" fill="white" stroke="#990505" stroke-width="2"/>
<path d="M1701 239C1701 242.314 1698.31 245 1695 245C1691.69 245 1689 242.314 1689 239C1689 235.686 1691.69 233 1695 233C1698.31 233 1701 235.686 1701 239Z" fill="white" stroke="#990505" stroke-width="2"/>
<path d="M1811 228C1811 231.866 1807.87 235 1804 235C1800.13 235 1797 231.866 1797 228C1797 224.134 1800.13 221 1804 221C1807.87 221 1811 224.134 1811 228Z" fill="white" stroke="#990505" stroke-width="2"/>
<path d="M1922 159.5C1922 162.538 1919.54 165 1916.5 165C1913.46 165 1911 162.538 1911 159.5C1911 156.462 1913.46 154 1916.5 154C1919.54 154 1922 156.462 1922 159.5Z" fill="white" stroke="#990505" stroke-width="2"/>
</g>
</g>
<g opacity="0.15">
<g clip-path="url(#clip1)">
<path fill-rule="evenodd" clip-rule="evenodd" d="M5.9585 275.07L116.209 216.747L230.198 251.741L343.252 147.656L453.503 18.4471L567.491 47.1601L676.808 135.991L790.796 191.623L902.915 132.402L1011.3 109.97L1126.22 4.98779L1238.34 86.6406L1352.33 216.747L1462.58 258.022L1577.5 140.029L1686.49 22.9335L1797.07 47.1601L1911.06 59.7221V407H5.9585" fill="url(#paint1_linear)" fill-opacity="0.1"/>
<path fill-rule="evenodd" clip-rule="evenodd" d="M1128.13 4.09033L1240.79 86.2315L1354.47 216.138L1463.66 257.065L1577.9 139.643L1577.91 139.626L1687.07 22.2136L1797.94 46.5338L1911.66 59.0809L1911.44 61.0688L1797.62 48.5101L1687.75 24.4119L1579.36 141.005L1579.35 141.013L1579.35 141.021L1464.19 259.397L1353.3 217.834L1239.43 87.7161L1128.28 6.66981L1013.97 111.21L905.667 133.653L793.437 193.002L679.105 137.137L570.079 48.4374L457.125 19.9512L347.447 148.64L234.142 253.079L120.211 218.062L9.39208 275.215L8.47534 273.437L120.019 215.91L233.631 250.83L346.003 147.251L456.409 17.708L570.998 46.6064L680.189 135.441L793.401 190.758L904.983 131.752L1013.03 109.363L1128.13 4.09033Z" fill="#75ACFE"/>
<path d="M12 273.5C12 277.09 9.08985 280 5.5 280C1.91015 280 -1 277.09 -1 273.5C-1 269.91 1.91015 267 5.5 267C9.08985 267 12 269.91 12 273.5Z" fill="white" stroke="#2B69DD" stroke-width="2"/>
<path d="M125 216.5C125 220.09 122.09 223 118.5 223C114.91 223 112 220.09 112 216.5C112 212.91 114.91 210 118.5 210C122.09 210 125 212.91 125 216.5Z" fill="white" stroke="#2B69DD" stroke-width="2"/>
<path d="M239 250.5C239 254.09 236.09 257 232.5 257C228.91 257 226 254.09 226 250.5C226 246.91 228.91 244 232.5 244C236.09 244 239 246.91 239 250.5Z" fill="white" stroke="#2B69DD" stroke-width="2"/>
<path d="M463 19.5C463 23.0899 460.09 26 456.5 26C452.91 26 450 23.0899 450 19.5C450 15.9101 452.91 13 456.5 13C460.09 13 463 15.9101 463 19.5Z" fill="white" stroke="#2B69DD" stroke-width="2"/>
<path d="M349 151.5C349 155.09 346.09 158 342.5 158C338.91 158 336 155.09 336 151.5C336 147.91 338.91 145 342.5 145C346.09 145 349 147.91 349 151.5Z" fill="white" stroke="#2B69DD" stroke-width="2"/>
<path d="M572.908 46.9521C572.908 50.542 569.998 53.4521 566.408 53.4521C562.818 53.4521 559.908 50.542 559.908 46.9521C559.908 43.3623 562.818 40.4521 566.408 40.4521C569.998 40.4521 572.908 43.3623 572.908 46.9521Z" fill="white" stroke="#2B69DD" stroke-width="2"/>
<path d="M685 133.5C685 137.09 682.09 140 678.5 140C674.91 140 672 137.09 672 133.5C672 129.91 674.91 127 678.5 127C682.09 127 685 129.91 685 133.5Z" fill="white" stroke="#2B69DD" stroke-width="2"/>
<path d="M799 189.5C799 193.09 796.09 196 792.5 196C788.91 196 786 193.09 786 189.5C786 185.91 788.91 183 792.5 183C796.09 183 799 185.91 799 189.5Z" fill="white" stroke="#2B69DD" stroke-width="2"/>
<path d="M911.43 133.029C911.43 136.619 908.52 139.529 904.93 139.529C901.34 139.529 898.43 136.619 898.43 133.029C898.43 129.439 901.34 126.529 904.93 126.529C908.52 126.529 911.43 129.439 911.43 133.029Z" fill="white" stroke="#2B69DD" stroke-width="2"/>
<path d="M1019 109.5C1019 113.09 1016.09 116 1012.5 116C1008.91 116 1006 113.09 1006 109.5C1006 105.91 1008.91 103 1012.5 103C1016.09 103 1019 105.91 1019 109.5Z" fill="white" stroke="#2B69DD" stroke-width="2"/>
<path d="M1135 7.5C1135 11.0899 1132.09 14 1128.5 14C1124.91 14 1122 11.0899 1122 7.5C1122 3.91015 1124.91 1 1128.5 1C1132.09 1 1135 3.91015 1135 7.5Z" fill="white" stroke="#2B69DD" stroke-width="2"/>
<path d="M1249.95 88.1973C1249.95 91.7871 1247.04 94.6973 1243.45 94.6973C1239.86 94.6973 1236.95 91.7871 1236.95 88.1973C1236.95 84.6074 1239.86 81.6973 1243.45 81.6973C1247.04 81.6973 1249.95 84.6074 1249.95 88.1973Z" fill="white" stroke="#2B69DD" stroke-width="2"/>
<path d="M1360.91 215.52C1360.91 219.109 1358 222.02 1354.41 222.02C1350.82 222.02 1347.91 219.109 1347.91 215.52C1347.91 211.93 1350.82 209.02 1354.41 209.02C1358 209.02 1360.91 211.93 1360.91 215.52Z" fill="white" stroke="#2B69DD" stroke-width="2"/>
<path d="M1470 256.5C1470 260.09 1467.09 263 1463.5 263C1459.91 263 1457 260.09 1457 256.5C1457 252.91 1459.91 250 1463.5 250C1467.09 250 1470 252.91 1470 256.5Z" fill="white" stroke="#2B69DD" stroke-width="2"/>
<path d="M1587 137.5C1587 141.09 1584.09 144 1580.5 144C1576.91 144 1574 141.09 1574 137.5C1574 133.91 1576.91 131 1580.5 131C1584.09 131 1587 133.91 1587 137.5Z" fill="white" stroke="#2B69DD" stroke-width="2"/>
<path d="M1694 21.5C1694 25.0899 1691.09 28 1687.5 28C1683.91 28 1681 25.0899 1681 21.5C1681 17.9101 1683.91 15 1687.5 15C1691.09 15 1694 17.9101 1694 21.5Z" fill="white" stroke="#2B69DD" stroke-width="2"/>
<path d="M1810.39 46.9521C1810.39 50.542 1807.48 53.4521 1803.89 53.4521C1800.3 53.4521 1797.39 50.542 1797.39 46.9521C1797.39 43.3623 1800.3 40.4521 1803.89 40.4521C1807.48 40.4521 1810.39 43.3623 1810.39 46.9521Z" fill="white" stroke="#2B69DD" stroke-width="2"/>
<path d="M1925.11 61.2983C1925.11 64.8882 1922.2 67.7983 1918.61 67.7983C1915.02 67.7983 1912.11 64.8882 1912.11 61.2983C1912.11 57.7085 1915.02 54.7983 1918.61 54.7983C1922.2 54.7983 1925.11 57.7085 1925.11 61.2983Z" fill="white" stroke="#2B69DD" stroke-width="2"/>
</g>
</g>
<defs>
<linearGradient id="paint0_linear" x1="134.85" y1="149.286" x2="134.85" y2="491.181" gradientUnits="userSpaceOnUse">
<stop stop-color="#F31818"/>
<stop offset="1" stop-color="#5D7EF7" stop-opacity="0.01"/>
</linearGradient>
<linearGradient id="paint1_linear" x1="5.9585" y1="4.98779" x2="5.9585" y2="407" gradientUnits="userSpaceOnUse">
<stop stop-color="#3A96FD"/>
<stop offset="1" stop-color="#2E5BFF" stop-opacity="0.01"/>
</linearGradient>
<clipPath id="clip0">
<path d="M0 144H1920V544H0V144Z" fill="white"/>
</clipPath>
<clipPath id="clip1">
<path d="M1 0H1918V407H1V0Z" fill="white"/>
</clipPath>
</defs>
</svg>
