<svg width="32" height="32" viewBox="0 0 32 32" fill="none" xmlns="http://www.w3.org/2000/svg">
<g opacity="0.6">
<path fill-rule="evenodd" clip-rule="evenodd" d="M16 32C7.16336 32 0 24.8366 0 16C0 7.16336 7.16336 0 16 0C24.8366 0 32 7.16336 32 16C32 24.8366 24.8366 32 16 32Z" fill="#1786C4"/>
<path fill-rule="evenodd" clip-rule="evenodd" d="M27.1578 6.3999H23.9179L18.7974 11.6451C17.252 13.228 14.7467 13.228 13.2014 11.6451L8.08086 6.3999H4.84106L11.5815 13.3044C14.0214 15.8037 17.9774 15.8037 20.4173 13.3044L27.1578 6.3999ZM4.7998 25.5999H8.03962L13.2018 20.3121C14.7471 18.7291 17.2524 18.7291 18.7978 20.3121L23.9599 25.5999H27.1998L20.4178 18.6528C17.9778 16.1534 14.0218 16.1534 11.5819 18.6528L4.7998 25.5999Z" fill="white"/>
</g>
</svg>
